AcariSans-Regular.ufo
<glyph name="numbersign" format="2">
  <advance width="1368"/>
  <unicode hex="0023"/>
  <outline>
    <contour>
      <point x="816" y="0" type="line"/>
      <point x="696" y="0" type="line"/>
      <point x="788" y="436" type="line"/>
      <point x="467" y="436" type="line"/>
      <point x="377" y="0" type="line"/>
      <point x="257" y="0" type="line"/>
      <point x="347" y="438" type="line"/>
      <point x="107" y="438" type="line"/>
      <point x="107" y="551" type="line"/>
      <point x="371" y="551" type="line"/>
      <point x="437" y="884" type="line"/>
      <point x="189" y="884" type="line"/>
      <point x="189" y="994" type="line"/>
      <point x="461" y="994" type="line"/>
      <point x="555" y="1434" type="line"/>
      <point x="676" y="1434" type="line"/>
      <point x="581" y="997" type="line"/>
      <point x="902" y="997" type="line"/>
      <point x="994" y="1434" type="line"/>
      <point x="1114" y="1434" type="line"/>
      <point x="1022" y="995" type="line"/>
      <point x="1262" y="995" type="line"/>
      <point x="1262" y="884" type="line"/>
      <point x="999" y="884" type="line"/>
      <point x="931" y="551" type="line"/>
      <point x="1180" y="551" type="line"/>
      <point x="1180" y="442" type="line"/>
      <point x="908" y="442" type="line"/>
    </contour>
    <contour>
      <point x="811" y="551" type="line"/>
      <point x="878" y="884" type="line"/>
      <point x="559" y="884" type="line"/>
      <point x="491" y="551" type="line"/>
    </contour>
  </outline>
</glyph>
<glyph name="ampersand" format="2">
  <advance width="1376"/>
  <unicode hex="0026"/>
  <outline>
    <contour>
      <point x="1171" y="-54" type="line"/>
      <point x="975" y="177" type="line"/>
      <point x="896" y="85"/>
      <point x="674" y="-21"/>
      <point x="531" y="-21" type="qcurve" smooth="yes"/>
      <point x="423" y="-21"/>
      <point x="239" y="49"/>
      <point x="127" y="192"/>
      <point x="127" y="302" type="qcurve" smooth="yes"/>
      <point x="127" y="406"/>
      <point x="175" y="489" type="qcurve" smooth="yes"/>
      <point x="220" y="566"/>
      <point x="366" y="694"/>
      <point x="476" y="764" type="qcurve"/>
      <point x="394" y="862"/>
      <point x="287" y="1037"/>
      <point x="287" y="1122" type="qcurve" smooth="yes"/>
      <point x="287" y="1220"/>
      <point x="383" y="1357"/>
      <point x="539" y="1430"/>
      <point x="629" y="1430" type="qcurve" smooth="yes"/>
      <point x="723" y="1430"/>
      <point x="866" y="1346"/>
      <point x="947" y="1206"/>
      <point x="947" y="1123" type="qcurve" smooth="yes"/>
      <point x="947" y="1041"/>
      <point x="876" y="911"/>
      <point x="750" y="797"/>
      <point x="665" y="740" type="qcurve"/>
      <point x="960" y="394" type="line"/>
      <point x="1016" y="518"/>
      <point x="1033" y="691" type="qcurve"/>
      <point x="1165" y="677" type="line"/>
      <point x="1147" y="454"/>
      <point x="1052" y="287" type="qcurve"/>
      <point x="1270" y="32" type="line"/>
    </contour>
    <contour>
      <point x="580" y="830" type="qcurve"/>
      <point x="699" y="903"/>
      <point x="825" y="1039"/>
      <point x="825" y="1122" type="qcurve" smooth="yes"/>
      <point x="825" y="1177"/>
      <point x="769" y="1260"/>
      <point x="681" y="1306"/>
      <point x="631" y="1306" type="qcurve" smooth="yes"/>
      <point x="576" y="1306"/>
      <point x="479" y="1263"/>
      <point x="418" y="1180"/>
      <point x="418" y="1120" type="qcurve" smooth="yes"/>
      <point x="418" y="1014"/>
    </contour>
    <contour>
      <point x="533" y="112" type="qcurve" smooth="yes"/>
      <point x="762" y="112"/>
      <point x="890" y="277" type="qcurve"/>
      <point x="556" y="669" type="line"/>
      <point x="364" y="551"/>
      <point x="298" y="443" type="qcurve"/>
      <point x="258" y="380"/>
      <point x="258" y="304" type="qcurve" smooth="yes"/>
      <point x="258" y="206"/>
      <point x="417" y="112"/>
    </contour>
  </outline>
</glyph>
<glyph name="parenleft" format="2">
  <advance width="560"/>
  <unicode hex="0028"/>
  <outline>
    <contour>
      <point x="492" y="-32" type="qcurve"/>
      <point x="367" y="-32" type="line"/>
      <point x="253" y="101"/>
      <point x="128" y="532"/>
      <point x="128" y="705" type="qcurve" smooth="yes"/>
      <point x="128" y="896"/>
      <point x="243" y="1292"/>
      <point x="365" y="1442" type="qcurve"/>
      <point x="494" y="1442" type="line"/>
      <point x="370" y="1278"/>
      <point x="250" y="896"/>
      <point x="250" y="702" type="qcurve" smooth="yes"/>
      <point x="250" y="511"/>
      <point x="367" y="133"/>
    </contour>
  </outline>
</glyph>
<glyph name="asterisk" format="2">
  <advance width="868"/>
  <unicode hex="002A"/>
  <outline>
    <contour>
      <point x="556" y="850" type="line"/>
      <point x="433" y="1082" type="line"/>
      <point x="310" y="850" type="line"/>
      <point x="218" y="918" type="line"/>
      <point x="391" y="1115" type="line"/>
      <point x="142" y="1156" type="line"/>
      <point x="177" y="1268" type="line"/>
      <point x="408" y="1168" type="line"/>
      <point x="377" y="1413" type="line"/>
      <point x="490" y="1413" type="line"/>
      <point x="460" y="1168" type="line"/>
      <point x="690" y="1268" type="line"/>
      <point x="726" y="1156" type="line"/>
      <point x="476" y="1115" type="line"/>
      <point x="650" y="918" type="line"/>
    </contour>
  </outline>
</glyph>
<glyph name="comma" format="2">
  <advance width="621"/>
  <unicode hex="002C"/>
  <outline>
    <contour>
      <point x="236" y="-326" type="line"/>
      <point x="143" y="-326" type="line"/>
      <point x="287" y="264" type="line"/>
      <point x="480" y="264" type="line"/>
    </contour>
  </outline>
</glyph>
<glyph name="two" format="2">
  <advance width="1200"/>
  <unicode hex="0032"/>
  <outline>
    <contour>
      <point x="1078" y="0" type="line"/>
      <point x="102" y="0" type="line"/>
      <point x="102" y="142" type="line"/>
      <point x="391" y="326"/>
      <point x="576" y="522" type="qcurve" smooth="yes"/>
      <point x="715" y="669"/>
      <point x="844" y="904"/>
      <point x="844" y="1024" type="qcurve" smooth="yes"/>
      <point x="844" y="1113"/>
      <point x="780" y="1232"/>
      <point x="669" y="1291"/>
      <point x="598" y="1291" type="qcurve" smooth="yes"/>
      <point x="509" y="1291"/>
      <point x="386" y="1204"/>
      <point x="319" y="1051"/>
      <point x="314" y="950" type="qcurve"/>
      <point x="158" y="965" type="line"/>
      <point x="158" y="1116"/>
      <point x="268" y="1325"/>
      <point x="464" y="1432"/>
      <point x="594" y="1432" type="qcurve" smooth="yes"/>
      <point x="725" y="1432"/>
      <point x="910" y="1329"/>
      <point x="1008" y="1147"/>
      <point x="1008" y="1029" type="qcurve" smooth="yes"/>
      <point x="1008" y="882"/>
      <point x="848" y="595"/>
      <point x="674" y="423" type="qcurve" smooth="yes"/>
      <point x="566" y="315"/>
      <point x="405" y="187"/>
      <point x="320" y="134" type="qcurve"/>
      <point x="1078" y="134" type="line"/>
    </contour>
  </outline>
</glyph>
<glyph name="three" format="2">
  <advance width="1200"/>
  <unicode hex="0033"/>
  <outline>
    <contour>
      <point x="578" y="-20" type="qcurve" smooth="yes"/>
      <point x="483" y="-20"/>
      <point x="311" y="30"/>
      <point x="179" y="133"/>
      <point x="102" y="291"/>
      <point x="102" y="399" type="qcurve"/>
      <point x="246" y="413" type="line"/>
      <point x="246" y="319"/>
      <point x="339" y="187"/>
      <point x="491" y="118"/>
      <point x="580" y="118" type="qcurve" smooth="yes"/>
      <point x="663" y="118"/>
      <point x="813" y="182"/>
      <point x="908" y="310"/>
      <point x="908" y="407" type="qcurve" smooth="yes"/>
      <point x="908" y="498"/>
      <point x="825" y="620"/>
      <point x="685" y="681"/>
      <point x="600" y="681" type="qcurve" smooth="yes"/>
      <point x="500" y="681" type="line"/>
      <point x="500" y="818" type="line"/>
      <point x="600" y="818" type="line" smooth="yes"/>
      <point x="703" y="818"/>
      <point x="830" y="937"/>
      <point x="830" y="1049" type="qcurve" smooth="yes"/>
      <point x="830" y="1129"/>
      <point x="758" y="1238"/>
      <point x="642" y="1293"/>
      <point x="576" y="1293" type="qcurve" smooth="yes"/>
      <point x="462" y="1293"/>
      <point x="317" y="1158"/>
      <point x="312" y="1047" type="qcurve"/>
      <point x="170" y="1063" type="line"/>
      <point x="170" y="1181"/>
      <point x="279" y="1347"/>
      <point x="462" y="1434"/>
      <point x="574" y="1434" type="qcurve" smooth="yes"/>
      <point x="682" y="1434"/>
      <point x="866" y="1349"/>
      <point x="978" y="1186"/>
      <point x="978" y="1068" type="qcurve" smooth="yes"/>
      <point x="978" y="974"/>
      <point x="895" y="813"/>
      <point x="812" y="761" type="qcurve"/>
      <point x="935" y="716"/>
      <point x="1051" y="526"/>
      <point x="1054" y="402" type="qcurve"/>
      <point x="1054" y="262"/>
      <point x="926" y="75"/>
      <point x="710" y="-20"/>
    </contour>
  </outline>
</glyph>
<glyph name="five" format="2">
  <advance width="1200"/>
  <unicode hex="0035"/>
  <outline>
    <contour>
      <point x="596" y="-20" type="qcurve" smooth="yes"/>
      <point x="474" y="-20"/>
      <point x="284" y="85"/>
      <point x="160" y="261"/>
      <point x="136" y="372" type="qcurve"/>
      <point x="276" y="419" type="line"/>
      <point x="302" y="291"/>
      <point x="452" y="114"/>
      <point x="594" y="114" type="qcurve" smooth="yes"/>
      <point x="698" y="114"/>
      <point x="837" y="215"/>
      <point x="906" y="375"/>
      <point x="906" y="462" type="qcurve" smooth="yes"/>
      <point x="906" y="546"/>
      <point x="840" y="698"/>
      <point x="707" y="793"/>
      <point x="606" y="793" type="qcurve" smooth="yes"/>
      <point x="518" y="793"/>
      <point x="367" y="711"/>
      <point x="320" y="637" type="qcurve"/>
      <point x="184" y="701" type="line"/>
      <point x="308" y="1413" type="line"/>
      <point x="1006" y="1413" type="line"/>
      <point x="1006" y="1275" type="line"/>
      <point x="428" y="1275" type="line"/>
      <point x="352" y="819" type="line"/>
      <point x="457" y="923"/>
      <point x="628" y="923" type="qcurve" smooth="yes"/>
      <point x="764" y="923"/>
      <point x="962" y="793"/>
      <point x="1070" y="582"/>
      <point x="1070" y="462" type="qcurve" smooth="yes"/>
      <point x="1070" y="328"/>
      <point x="945" y="110"/>
      <point x="730" y="-20"/>
    </contour>
  </outline>
</glyph>
<glyph name="nine" format="2">
  <advance width="1200"/>
  <unicode hex="0039"/>
  <outline>
    <contour>
      <point x="582" y="0" type="line"/>
      <point x="412" y="0" type="line"/>
      <point x="720" y="526" type="line"/>
      <point x="660" y="512"/>
      <point x="594" y="512" type="qcurve" smooth="yes"/>
      <point x="463" y="512"/>
      <point x="252" y="630"/>
      <point x="128" y="834"/>
      <point x="128" y="961" type="qcurve" smooth="yes"/>
      <point x="128" y="1080"/>
      <point x="243" y="1299"/>
      <point x="355" y="1369" type="qcurve"/>
      <point x="462" y="1434"/>
      <point x="596" y="1434" type="qcurve" smooth="yes"/>
      <point x="730" y="1434"/>
      <point x="940" y="1304"/>
      <point x="1062" y="1089"/>
      <point x="1062" y="964" type="qcurve" smooth="yes"/>
      <point x="1062" y="832"/>
      <point x="996" y="719" type="qcurve"/>
    </contour>
    <contour>
      <point x="594" y="635" type="qcurve" smooth="yes"/>
      <point x="688" y="635"/>
      <point x="830" y="728"/>
      <point x="910" y="878"/>
      <point x="910" y="963" type="qcurve" smooth="yes"/>
      <point x="910" y="1059"/>
      <point x="821" y="1207"/>
      <point x="676" y="1291"/>
      <point x="594" y="1291" type="qcurve" smooth="yes"/>
      <point x="503" y="1291"/>
      <point x="360" y="1198"/>
      <point x="278" y="1049"/>
      <point x="278" y="963" type="qcurve" smooth="yes"/>
      <point x="278" y="869"/>
      <point x="366" y="720"/>
      <point x="510" y="635"/>
    </contour>
  </outline>
</glyph>
<glyph name="colon" format="2">
  <advance width="671"/>
  <unicode hex="003A"/>
  <outline>
    <contour>
      <point x="433" y="761" type="line"/>
      <point x="238" y="761" type="line"/>
      <point x="238" y="954" type="line"/>
      <point x="433" y="954" type="line"/>
    </contour>
    <contour>
      <point x="433" y="0" type="line"/>
      <point x="238" y="0" type="line"/>
      <point x="238" y="194" type="line"/>
      <point x="433" y="194" type="line"/>
    </contour>
  </outline>
</glyph>
<glyph name="semicolon" format="2">
  <advance width="652"/>
  <unicode hex="003B"/>
  <outline>
    <contour>
      <point x="445" y="761" type="line"/>
      <point x="249" y="761" type="line"/>
      <point x="249" y="954" type="line"/>
      <point x="445" y="954" type="line"/>
    </contour>
    <contour>
      <point x="219" y="-326" type="line"/>
      <point x="126" y="-326" type="line"/>
      <point x="270" y="264" type="line"/>
      <point x="463" y="264" type="line"/>
    </contour>
  </outline>
</glyph>
<glyph name="less" format="2">
  <advance width="1211"/>
  <unicode hex="003C"/>
  <outline>
    <contour>
      <point x="1001" y="170" type="line"/>
      <point x="102" y="674" type="line"/>
      <point x="1001" y="1178" type="line"/>
      <point x="1069" y="1060" type="line"/>
      <point x="352" y="674" type="line"/>
      <point x="1069" y="287" type="line"/>
    </contour>
  </outline>
</glyph>
<glyph name="B" format="2">
  <advance width="1243"/>
  <unicode hex="0042"/>
  <outline>
    <contour>
      <point x="676" y="0" type="qcurve" smooth="yes"/>
      <point x="212" y="0" type="line"/>
      <point x="212" y="1413" type="line"/>
      <point x="603" y="1413" type="line" smooth="yes"/>
      <point x="795" y="1413"/>
      <point x="918" y="1333" type="qcurve" smooth="yes"/>
      <point x="1056" y="1242"/>
      <point x="1056" y="1063" type="qcurve" smooth="yes"/>
      <point x="1056" y="854"/>
      <point x="873" y="748" type="qcurve"/>
      <point x="992" y="695"/>
      <point x="1125" y="516"/>
      <point x="1125" y="377" type="qcurve" smooth="yes"/>
      <point x="1125" y="243"/>
      <point x="1062" y="159" type="qcurve"/>
      <point x="995" y="73"/>
      <point x="792" y="0"/>
    </contour>
    <contour>
      <point x="603" y="791" type="line" smooth="yes"/>
      <point x="731" y="791"/>
      <point x="891" y="916"/>
      <point x="891" y="1042" type="qcurve" smooth="yes"/>
      <point x="891" y="1169"/>
      <point x="736" y="1271"/>
      <point x="605" y="1271" type="qcurve" smooth="yes"/>
      <point x="367" y="1271" type="line"/>
      <point x="367" y="791" type="line"/>
    </contour>
    <contour>
      <point x="680" y="147" type="line" smooth="yes"/>
      <point x="969" y="147"/>
      <point x="969" y="386" type="qcurve" smooth="yes"/>
      <point x="969" y="527"/>
      <point x="809" y="649"/>
      <point x="683" y="649" type="qcurve" smooth="yes"/>
      <point x="367" y="649" type="line"/>
      <point x="367" y="147" type="line"/>
    </contour>
  </outline>
</glyph>
<glyph name="D" format="2">
  <advance width="1406"/>
  <unicode hex="0044"/>
  <outline>
    <contour>
      <point x="570" y="0" type="qcurve" smooth="yes"/>
      <point x="212" y="0" type="line"/>
      <point x="212" y="1413" type="line"/>
      <point x="572" y="1413" type="line" smooth="yes"/>
      <point x="921" y="1413"/>
      <point x="1285" y="1040"/>
      <point x="1285" y="696" type="qcurve" smooth="yes"/>
      <point x="1285" y="469"/>
      <point x="1114" y="159"/>
      <point x="794" y="0"/>
    </contour>
    <contour>
      <point x="546" y="145" type="line" smooth="yes"/>
      <point x="707" y="145"/>
      <point x="972" y="262"/>
      <point x="1052" y="393" type="qcurve"/>
      <point x="1126" y="519"/>
      <point x="1126" y="707" type="qcurve" smooth="yes"/>
      <point x="1126" y="883"/>
      <point x="1008" y="1136"/>
      <point x="761" y="1271"/>
      <point x="568" y="1271" type="qcurve" smooth="yes"/>
      <point x="371" y="1271" type="line"/>
      <point x="371" y="145" type="line"/>
    </contour>
  </outline>
</glyph>
<glyph name="E" format="2">
  <advance width="1239"/>
  <unicode hex="0045"/>
  <outline>
    <contour>
      <point x="1127" y="0" type="line"/>
      <point x="212" y="0" type="line"/>
      <point x="212" y="1413" type="line"/>
      <point x="1127" y="1413" type="line"/>
      <point x="1127" y="1276" type="line"/>
      <point x="371" y="1276" type="line"/>
      <point x="371" y="774" type="line"/>
      <point x="1028" y="774" type="line"/>
      <point x="1028" y="641" type="line"/>
      <point x="371" y="641" type="line"/>
      <point x="371" y="145" type="line"/>
      <point x="1127" y="145" type="line"/>
    </contour>
  </outline>
</glyph>
<glyph name="G" format="2">
  <advance width="1509"/>
  <unicode hex="0047"/>
  <outline>
    <contour>
      <point x="759" y="-20" type="qcurve" smooth="yes"/>
      <point x="550" y="-20"/>
      <point x="407" y="77" type="qcurve"/>
      <point x="258" y="181"/>
      <point x="125" y="513"/>
      <point x="125" y="707" type="qcurve" smooth="yes"/>
      <point x="125" y="900"/>
      <point x="260" y="1233"/>
      <point x="408" y="1338" type="qcurve"/>
      <point x="550" y="1436"/>
      <point x="757" y="1436" type="qcurve" smooth="yes"/>
      <point x="960" y="1436"/>
      <point x="1251" y="1241"/>
      <point x="1331" y="1060" type="qcurve"/>
      <point x="1186" y="997" type="line"/>
      <point x="1125" y="1133"/>
      <point x="909" y="1287"/>
      <point x="755" y="1287" type="qcurve" smooth="yes"/>
      <point x="595" y="1287"/>
      <point x="489" y="1210" type="qcurve"/>
      <point x="378" y="1127"/>
      <point x="281" y="868"/>
      <point x="281" y="717" type="qcurve" smooth="yes"/>
      <point x="281" y="595"/>
      <point x="336" y="382"/>
      <point x="452" y="220"/>
      <point x="633" y="128"/>
      <point x="759" y="128" type="qcurve" smooth="yes"/>
      <point x="875" y="128"/>
      <point x="1079" y="232"/>
      <point x="1143" y="342" type="qcurve" smooth="yes"/>
      <point x="1203" y="446"/>
      <point x="1205" y="590" type="qcurve"/>
      <point x="882" y="590" type="line"/>
      <point x="882" y="715" type="line"/>
      <point x="1355" y="715" type="line"/>
      <point x="1355" y="0" type="line"/>
      <point x="1223" y="0" type="line"/>
      <point x="1221" y="258" type="line"/>
      <point x="1191" y="183"/>
      <point x="1065" y="57"/>
      <point x="878" y="-20"/>
    </contour>
  </outline>
</glyph>
<glyph name="J" format="2">
  <advance width="1119"/>
  <unicode hex="004A"/>
  <outline>
    <contour>
      <point x="498" y="-20" type="qcurve" smooth="yes"/>
      <point x="368" y="-20"/>
      <point x="183" y="92"/>
      <point x="80" y="280"/>
      <point x="72" y="396" type="qcurve"/>
      <point x="227" y="417" type="line"/>
      <point x="232" y="339"/>
      <point x="291" y="205"/>
      <point x="408" y="120"/>
      <point x="498" y="120" type="qcurve" smooth="yes"/>
      <point x="607" y="120"/>
      <point x="726" y="213"/>
      <point x="772" y="371"/>
      <point x="772" y="485" type="qcurve" smooth="yes"/>
      <point x="772" y="1276" type="line"/>
      <point x="240" y="1276" type="line"/>
      <point x="240" y="1413" type="line"/>
      <point x="931" y="1413" type="line"/>
      <point x="931" y="502" type="line" smooth="yes"/>
      <point x="931" y="254"/>
      <point x="723" y="-20"/>
    </contour>
  </outline>
</glyph>
<glyph name="K" format="2">
  <advance width="1452"/>
  <unicode hex="004B"/>
  <outline>
    <contour>
      <point x="1389" y="0" type="line"/>
      <point x="1198" y="0" type="line"/>
      <point x="716" y="747" type="line"/>
      <point x="371" y="390" type="line"/>
      <point x="371" y="0" type="line"/>
      <point x="212" y="0" type="line"/>
      <point x="212" y="1413" type="line"/>
      <point x="371" y="1413" type="line"/>
      <point x="371" y="584" type="line"/>
      <point x="1152" y="1413" type="line"/>
      <point x="1356" y="1413" type="line"/>
      <point x="822" y="856" type="line"/>
    </contour>
  </outline>
</glyph>
<glyph name="M" format="2">
  <advance width="1762"/>
  <unicode hex="004D"/>
  <outline>
    <contour>
      <point x="1550" y="0" type="line"/>
      <point x="1393" y="0" type="line"/>
      <point x="1393" y="1276" type="line"/>
      <point x="968" y="123" type="line"/>
      <point x="794" y="123" type="line"/>
      <point x="370" y="1276" type="line"/>
      <point x="370" y="0" type="line"/>
      <point x="212" y="0" type="line"/>
      <point x="212" y="1413" type="line"/>
      <point x="470" y="1413" type="line"/>
      <point x="878" y="278" type="line"/>
      <point x="1292" y="1413" type="line"/>
      <point x="1550" y="1413" type="line"/>
    </contour>
  </outline>
</glyph>
<glyph name="P" format="2">
  <advance width="1148"/>
  <unicode hex="0050"/>
  <outline>
    <contour>
      <point x="370" y="0" type="line"/>
      <point x="212" y="0" type="line"/>
      <point x="212" y="1413" type="line"/>
      <point x="608" y="1413" type="line" smooth="yes"/>
      <point x="814" y="1413"/>
      <point x="1060" y="1205"/>
      <point x="1060" y="1023" type="qcurve" smooth="yes"/>
      <point x="1060" y="897"/>
      <point x="948" y="726"/>
      <point x="745" y="638"/>
      <point x="608" y="638" type="qcurve" smooth="yes"/>
      <point x="370" y="638" type="line"/>
    </contour>
    <contour>
      <point x="608" y="779" type="line" smooth="yes"/>
      <point x="745" y="779"/>
      <point x="904" y="897"/>
      <point x="904" y="1023" type="qcurve" smooth="yes"/>
      <point x="904" y="1140"/>
      <point x="751" y="1272"/>
      <point x="608" y="1272" type="qcurve" smooth="yes"/>
      <point x="370" y="1272" type="line"/>
      <point x="370" y="779" type="line"/>
    </contour>
  </outline>
</glyph>
<glyph name="S" format="2">
  <advance width="1110"/>
  <unicode hex="0053"/>
  <outline>
    <contour>
      <point x="571" y="-16" type="qcurve" smooth="yes"/>
      <point x="456" y="-16"/>
      <point x="247" y="68"/>
      <point x="104" y="236"/>
      <point x="83" y="362" type="qcurve"/>
      <point x="231" y="406" type="line"/>
      <point x="250" y="263"/>
      <point x="444" y="125"/>
      <point x="572" y="125" type="qcurve" smooth="yes"/>
      <point x="655" y="125"/>
      <point x="784" y="179"/>
      <point x="858" y="291"/>
      <point x="858" y="378" type="qcurve" smooth="yes"/>
      <point x="858" y="460"/>
      <point x="815" y="517" type="qcurve" smooth="yes"/>
      <point x="776" y="568"/>
      <point x="648" y="646"/>
      <point x="538" y="693" type="qcurve" smooth="yes"/>
      <point x="417" y="744"/>
      <point x="272" y="835"/>
      <point x="227" y="901" type="qcurve" smooth="yes"/>
      <point x="177" y="972"/>
      <point x="177" y="1076" type="qcurve" smooth="yes"/>
      <point x="177" y="1187"/>
      <point x="283" y="1348"/>
      <point x="457" y="1434"/>
      <point x="560" y="1434" type="qcurve" smooth="yes"/>
      <point x="682" y="1434"/>
      <point x="884" y="1328"/>
      <point x="952" y="1214" type="qcurve"/>
      <point x="833" y="1134" type="line"/>
      <point x="789" y="1218"/>
      <point x="642" y="1297"/>
      <point x="558" y="1297" type="qcurve" smooth="yes"/>
      <point x="498" y="1297"/>
      <point x="394" y="1247"/>
      <point x="331" y="1154"/>
      <point x="331" y="1090" type="qcurve" smooth="yes"/>
      <point x="331" y="1014"/>
      <point x="372" y="961" type="qcurve" smooth="yes"/>
      <point x="410" y="912"/>
      <point x="533" y="839"/>
      <point x="638" y="794" type="qcurve" smooth="yes"/>
      <point x="760" y="741"/>
      <point x="908" y="654"/>
      <point x="1012" y="503"/>
      <point x="1012" y="390" type="qcurve" smooth="yes"/>
      <point x="1012" y="263"/>
      <point x="893" y="81"/>
      <point x="693" y="-16"/>
    </contour>
  </outline>
</glyph>
<glyph name="U" format="2">
  <advance width="1352"/>
  <unicode hex="0055"/>
  <outline>
    <contour>
      <point x="675" y="-20" type="qcurve" smooth="yes"/>
      <point x="507" y="-20"/>
      <point x="397" y="53" type="qcurve"/>
      <point x="283" y="131"/>
      <point x="184" y="375"/>
      <point x="184" y="518" type="qcurve" smooth="yes"/>
      <point x="184" y="1413" type="line"/>
      <point x="343" y="1413" type="line"/>
      <point x="343" y="563" type="line" smooth="yes"/>
      <point x="343" y="362"/>
      <point x="495" y="130"/>
      <point x="675" y="130" type="qcurve" smooth="yes"/>
      <point x="1011" y="130"/>
      <point x="1011" y="563" type="qcurve" smooth="yes"/>
      <point x="1011" y="1413" type="line"/>
      <point x="1170" y="1413" type="line"/>
      <point x="1170" y="528" type="line" smooth="yes"/>
      <point x="1170" y="416"/>
      <point x="1113" y="217"/>
      <point x="993" y="66"/>
      <point x="805" y="-20"/>
    </contour>
  </outline>
</glyph>
<glyph name="X" format="2">
  <advance width="1260"/>
  <unicode hex="0058"/>
  <outline>
    <contour>
      <point x="1188" y="0" type="line"/>
      <point x="1003" y="0" type="line"/>
      <point x="629" y="576" type="line"/>
      <point x="261" y="0" type="line"/>
      <point x="72" y="0" type="line"/>
      <point x="540" y="707" type="line"/>
      <point x="74" y="1413" type="line"/>
      <point x="263" y="1413" type="line"/>
      <point x="631" y="827" type="line"/>
      <point x="1001" y="1413" type="line"/>
      <point x="1186" y="1413" type="line"/>
      <point x="723" y="707" type="line"/>
    </contour>
  </outline>
</glyph>
<glyph name="backslash" format="2">
  <advance width="927"/>
  <unicode hex="005C"/>
  <outline>
    <contour>
      <point x="917" y="-430" type="line"/>
      <point x="765" y="-430" type="line"/>
      <point x="11" y="1516" type="line"/>
      <point x="164" y="1516" type="line"/>
    </contour>
  </outline>
</glyph>
<glyph name="h" format="2">
  <advance width="1124"/>
  <unicode hex="0068"/>
  <outline>
    <contour>
      <point x="979" y="0" type="line"/>
      <point x="828" y="0" type="line"/>
      <point x="828" y="592" type="line" smooth="yes"/>
      <point x="828" y="713"/>
      <point x="735" y="875"/>
      <point x="621" y="875" type="qcurve" smooth="yes"/>
      <point x="531" y="875"/>
      <point x="395" y="781"/>
      <point x="318" y="631"/>
      <point x="318" y="547" type="qcurve" smooth="yes"/>
      <point x="318" y="0" type="line"/>
      <point x="170" y="0" type="line"/>
      <point x="170" y="1413" type="line"/>
      <point x="318" y="1413" type="line"/>
      <point x="318" y="835" type="line"/>
      <point x="370" y="918"/>
      <point x="546" y="1016"/>
      <point x="643" y="1016" type="qcurve" smooth="yes"/>
      <point x="758" y="1016"/>
      <point x="907" y="909"/>
      <point x="979" y="727"/>
      <point x="979" y="616" type="qcurve" smooth="yes"/>
    </contour>
  </outline>
</glyph>
<glyph name="i" format="2">
  <advance width="488"/>
  <unicode hex="0069"/>
  <outline>
    <contour>
      <point x="331" y="1221" type="line"/>
      <point x="159" y="1221" type="line"/>
      <point x="159" y="1413" type="line"/>
      <point x="331" y="1413" type="line"/>
    </contour>
    <contour>
      <point x="320" y="0" type="line"/>
      <point x="168" y="0" type="line"/>
      <point x="168" y="999" type="line"/>
      <point x="320" y="999" type="line"/>
    </contour>
  </outline>
</glyph>
<glyph name="j" format="2">
  <advance width="494"/>
  <unicode hex="006A"/>
  <outline>
    <contour>
      <point x="333" y="1225" type="line"/>
      <point x="159" y="1225" type="line"/>
      <point x="159" y="1418" type="line"/>
      <point x="333" y="1418" type="line"/>
    </contour>
    <contour>
      <point x="67" y="-438" type="qcurve" smooth="yes"/>
      <point x="34" y="-438"/>
      <point x="-51" y="-420"/>
      <point x="-84" y="-407" type="qcurve"/>
      <point x="-52" y="-295" type="line"/>
      <point x="-29" y="-302"/>
      <point x="37" y="-312"/>
      <point x="63" y="-312" type="qcurve" smooth="yes"/>
      <point x="123" y="-312"/>
      <point x="171" y="-233"/>
      <point x="171" y="-177" type="qcurve" smooth="yes"/>
      <point x="171" y="999" type="line"/>
      <point x="323" y="999" type="line"/>
      <point x="323" y="-155" type="line" smooth="yes"/>
      <point x="323" y="-237"/>
      <point x="271" y="-365"/>
      <point x="158" y="-438"/>
    </contour>
  </outline>
</glyph>
<glyph name="k" format="2">
  <advance width="1048"/>
  <unicode hex="006B"/>
  <outline>
    <contour>
      <point x="1018" y="0" type="line"/>
      <point x="841" y="0" type="line"/>
      <point x="535" y="530" type="line"/>
      <point x="321" y="293" type="line"/>
      <point x="321" y="0" type="line"/>
      <point x="170" y="0" type="line"/>
      <point x="170" y="1413" type="line"/>
      <point x="321" y="1413" type="line"/>
      <point x="321" y="461" type="line"/>
      <point x="766" y="999" type="line"/>
      <point x="953" y="999" type="line"/>
      <point x="627" y="632" type="line"/>
    </contour>
  </outline>
</glyph>
<glyph name="n" format="2">
  <advance width="1120"/>
  <unicode hex="006E"/>
  <outline>
    <contour>
      <point x="975" y="0" type="line"/>
      <point x="826" y="0" type="line"/>
      <point x="826" y="592" type="line" smooth="yes"/>
      <point x="826" y="874"/>
      <point x="614" y="874" type="qcurve" smooth="yes"/>
      <point x="528" y="874"/>
      <point x="395" y="785"/>
      <point x="318" y="645"/>
      <point x="318" y="568" type="qcurve" smooth="yes"/>
      <point x="318" y="0" type="line"/>
      <point x="168" y="0" type="line"/>
      <point x="168" y="999" type="line"/>
      <point x="318" y="999" type="line"/>
      <point x="318" y="842" type="line"/>
      <point x="366" y="921"/>
      <point x="533" y="1016"/>
      <point x="631" y="1016" type="qcurve" smooth="yes"/>
      <point x="751" y="1016"/>
      <point x="903" y="908"/>
      <point x="975" y="723"/>
      <point x="975" y="607" type="qcurve" smooth="yes"/>
    </contour>
  </outline>
</glyph>
<glyph name="o" format="2">
  <advance width="1119"/>
  <unicode hex="006F"/>
  <outline>
    <contour>
      <point x="558" y="-20" type="qcurve" smooth="yes"/>
      <point x="413" y="-20"/>
      <point x="201" y="123"/>
      <point x="86" y="357"/>
      <point x="86" y="496" type="qcurve" smooth="yes"/>
      <point x="86" y="634"/>
      <point x="201" y="870"/>
      <point x="313" y="943" type="qcurve" smooth="yes"/>
      <point x="420" y="1012"/>
      <point x="558" y="1012" type="qcurve" smooth="yes"/>
      <point x="704" y="1012"/>
      <point x="917" y="868"/>
      <point x="1033" y="633"/>
      <point x="1033" y="496" type="qcurve" smooth="yes"/>
      <point x="1033" y="355"/>
      <point x="914" y="120"/>
      <point x="700" y="-20"/>
    </contour>
    <contour>
      <point x="558" y="112" type="qcurve" smooth="yes"/>
      <point x="666" y="112"/>
      <point x="801" y="216"/>
      <point x="865" y="390"/>
      <point x="865" y="496" type="qcurve" smooth="yes"/>
      <point x="865" y="599"/>
      <point x="804" y="774"/>
      <point x="669" y="879"/>
      <point x="558" y="879" type="qcurve" smooth="yes"/>
      <point x="451" y="879"/>
      <point x="316" y="775"/>
      <point x="253" y="601"/>
      <point x="253" y="496" type="qcurve" smooth="yes"/>
      <point x="253" y="392"/>
      <point x="315" y="217"/>
      <point x="450" y="112"/>
    </contour>
  </outline>
</glyph>
<glyph name="r" format="2">
  <advance width="795"/>
  <unicode hex="0072"/>
  <outline>
    <contour>
      <point x="319" y="0" type="line"/>
      <point x="168" y="0" type="line"/>
      <point x="168" y="999" type="line"/>
      <point x="321" y="999" type="line"/>
      <point x="321" y="805" type="line"/>
      <point x="348" y="904"/>
      <point x="518" y="1014"/>
      <point x="605" y="1014" type="qcurve" smooth="yes"/>
      <point x="645" y="1014"/>
      <point x="740" y="991"/>
      <point x="773" y="968" type="qcurve"/>
      <point x="721" y="841" type="line"/>
      <point x="669" y="886"/>
      <point x="594" y="886" type="qcurve" smooth="yes"/>
      <point x="504" y="886"/>
      <point x="381" y="762"/>
      <point x="319" y="552"/>
      <point x="319" y="425" type="qcurve" smooth="yes"/>
    </contour>
  </outline>
</glyph>
<glyph name="s" format="2">
  <advance width="870"/>
  <unicode hex="0073"/>
  <outline>
    <contour>
      <point x="403" y="-19" type="qcurve" smooth="yes"/>
      <point x="309" y="-11"/>
      <point x="164" y="70"/>
      <point x="71" y="189"/>
      <point x="54" y="256" type="qcurve"/>
      <point x="183" y="311" type="line"/>
      <point x="203" y="233"/>
      <point x="325" y="121"/>
      <point x="419" y="113" type="qcurve" smooth="yes"/>
      <point x="431" y="112"/>
      <point x="442" y="112" type="qcurve" smooth="yes"/>
      <point x="508" y="112"/>
      <point x="620" y="178"/>
      <point x="626" y="257" type="qcurve" smooth="yes"/>
      <point x="627" y="265"/>
      <point x="627" y="273" type="qcurve" smooth="yes"/>
      <point x="627" y="318"/>
      <point x="575" y="384"/>
      <point x="483" y="430"/>
      <point x="402" y="458" type="qcurve"/>
      <point x="306" y="489"/>
      <point x="248" y="521" type="qcurve" smooth="yes"/>
      <point x="124" y="589"/>
      <point x="124" y="723" type="qcurve" smooth="yes"/>
      <point x="124" y="735"/>
      <point x="125" y="747" type="qcurve" smooth="yes"/>
      <point x="133" y="840"/>
      <point x="231" y="964"/>
      <point x="368" y="1015"/>
      <point x="436" y="1015" type="qcurve" smooth="yes"/>
      <point x="450" y="1015"/>
      <point x="465" y="1014" type="qcurve" smooth="yes"/>
      <point x="542" y="1007"/>
      <point x="663" y="946"/>
      <point x="749" y="852"/>
      <point x="776" y="795" type="qcurve"/>
      <point x="653" y="737" type="line"/>
      <point x="588" y="876"/>
      <point x="449" y="887" type="qcurve" smooth="yes"/>
      <point x="436" y="888"/>
      <point x="424" y="888" type="qcurve" smooth="yes"/>
      <point x="358" y="888"/>
      <point x="268" y="818"/>
      <point x="264" y="760" type="qcurve"/>
      <point x="263" y="754"/>
      <point x="263" y="748" type="qcurve" smooth="yes"/>
      <point x="263" y="708"/>
      <point x="313" y="648"/>
      <point x="398" y="611"/>
      <point x="474" y="585" type="qcurve" smooth="yes"/>
      <point x="574" y="551"/>
      <point x="698" y="488"/>
      <point x="773" y="374"/>
      <point x="773" y="295" type="qcurve" smooth="yes"/>
      <point x="773" y="281"/>
      <point x="772" y="267" type="qcurve" smooth="yes"/>
      <point x="763" y="164"/>
      <point x="655" y="33"/>
      <point x="509" y="-20"/>
      <point x="437" y="-20" type="qcurve" smooth="yes"/>
      <point x="420" y="-20"/>
    </contour>
  </outline>
</glyph>
<glyph name="v" format="2">
  <advance width="949"/>
  <unicode hex="0076"/>
  <outline>
    <contour>
      <point x="541" y="0" type="line"/>
      <point x="409" y="0" type="line"/>
      <point x="36" y="999" type="line"/>
      <point x="199" y="999" type="line"/>
      <point x="475" y="194" type="line"/>
      <point x="753" y="999" type="line"/>
      <point x="913" y="999" type="line"/>
    </contour>
  </outline>
</glyph>
<glyph name="x" format="2">
  <advance width="920"/>
  <unicode hex="0078"/>
  <outline>
    <contour>
      <point x="874" y="0" type="line"/>
      <point x="696" y="0" type="line"/>
      <point x="462" y="378" type="line"/>
      <point x="229" y="0" type="line"/>
      <point x="46" y="0" type="line"/>
      <point x="383" y="504" type="line"/>
      <point x="46" y="999" type="line"/>
      <point x="229" y="999" type="line"/>
      <point x="462" y="629" type="line"/>
      <point x="696" y="999" type="line"/>
      <point x="874" y="999" type="line"/>
      <point x="541" y="504" type="line"/>
    </contour>
  </outline>
</glyph>
<glyph name="y" format="2">
  <advance width="975"/>
  <unicode hex="0079"/>
  <outline>
    <contour>
      <point x="405" y="-430" type="line"/>
      <point x="248" y="-430" type="line"/>
      <point x="419" y="5" type="line"/>
      <point x="35" y="999" type="line"/>
      <point x="200" y="999" type="line"/>
      <point x="493" y="182" type="line"/>
      <point x="777" y="999" type="line"/>
      <point x="940" y="999" type="line"/>
    </contour>
  </outline>
</glyph>
<glyph name="z" format="2">
  <advance width="930"/>
  <unicode hex="007A"/>
  <outline>
    <contour>
      <point x="852" y="0" type="line"/>
      <point x="66" y="0" type="line"/>
      <point x="66" y="113" type="line"/>
      <point x="677" y="877" type="line"/>
      <point x="95" y="877" type="line"/>
      <point x="95" y="999" type="line"/>
      <point x="852" y="999" type="line"/>
      <point x="852" y="876" type="line"/>
      <point x="252" y="128" type="line"/>
      <point x="852" y="128" type="line"/>
    </contour>
  </outline>
</glyph>
<glyph name="cent" format="2">
  <advance width="1134"/>
  <unicode hex="00A2"/>
  <outline>
    <contour>
      <point x="654" y="-205" type="line"/>
      <point x="544" y="-205" type="line"/>
      <point x="544" y="-16" type="line"/>
      <point x="419" y="0"/>
      <point x="250" y="145"/>
      <point x="165" y="369"/>
      <point x="165" y="498" type="qcurve" smooth="yes"/>
      <point x="165" y="624"/>
      <point x="249" y="848"/>
      <point x="417" y="996"/>
      <point x="544" y="1013" type="qcurve"/>
      <point x="544" y="1200" type="line"/>
      <point x="654" y="1200" type="line"/>
      <point x="654" y="1013" type="line"/>
      <point x="892" y="979"/>
      <point x="992" y="754" type="qcurve"/>
      <point x="844" y="693" type="line"/>
      <point x="819" y="781"/>
      <point x="686" y="876"/>
      <point x="602" y="876" type="qcurve" smooth="yes"/>
      <point x="504" y="876"/>
      <point x="442" y="822" type="qcurve"/>
      <point x="377" y="763"/>
      <point x="322" y="591"/>
      <point x="322" y="498" type="qcurve" smooth="yes"/>
      <point x="322" y="340"/>
      <point x="385" y="237" type="qcurve" smooth="yes"/>
      <point x="458" y="120"/>
      <point x="602" y="120" type="qcurve" smooth="yes"/>
      <point x="687" y="120"/>
      <point x="820" y="216"/>
      <point x="844" y="302" type="qcurve"/>
      <point x="980" y="245" type="line"/>
      <point x="892" y="12"/>
      <point x="654" y="-17" type="qcurve"/>
    </contour>
  </outline>
</glyph>
<glyph name="sterling" format="2">
  <advance width="1241"/>
  <unicode hex="00A3"/>
  <outline>
    <contour>
      <point x="1179" y="0" type="line"/>
      <point x="163" y="0" type="line"/>
      <point x="163" y="118" type="line"/>
      <point x="168" y="118"/>
      <point x="231" y="175" type="qcurve" smooth="yes"/>
      <point x="408" y="336"/>
      <point x="408" y="462" type="qcurve" smooth="yes"/>
      <point x="408" y="497"/>
      <point x="402" y="535" type="qcurve" smooth="yes"/>
      <point x="395" y="580"/>
      <point x="382" y="637" type="qcurve"/>
      <point x="166" y="637" type="line"/>
      <point x="166" y="770" type="line"/>
      <point x="349" y="770" type="line"/>
      <point x="348" y="770"/>
      <point x="340" y="797" type="qcurve" smooth="yes"/>
      <point x="301" y="917"/>
      <point x="301" y="1015" type="qcurve" smooth="yes"/>
      <point x="301" y="1129"/>
      <point x="394" y="1320"/>
      <point x="573" y="1433"/>
      <point x="697" y="1433" type="qcurve" smooth="yes"/>
      <point x="828" y="1433"/>
      <point x="1022" y="1273"/>
      <point x="1068" y="1148" type="qcurve"/>
      <point x="943" y="1101" type="line"/>
      <point x="910" y="1192"/>
      <point x="781" y="1300"/>
      <point x="697" y="1300" type="qcurve" smooth="yes"/>
      <point x="616" y="1300"/>
      <point x="497" y="1228"/>
      <point x="434" y="1100"/>
      <point x="434" y="1016" type="qcurve" smooth="yes"/>
      <point x="434" y="921"/>
      <point x="470" y="810" type="qcurve"/>
      <point x="482" y="770"/>
      <point x="483" y="770" type="qcurve"/>
      <point x="956" y="770" type="line"/>
      <point x="956" y="637" type="line"/>
      <point x="517" y="637" type="line"/>
      <point x="526" y="594" type="line"/>
      <point x="538" y="526"/>
      <point x="538" y="464" type="qcurve" smooth="yes"/>
      <point x="538" y="376"/>
      <point x="462" y="228"/>
      <point x="415" y="178" type="qcurve" smooth="yes"/>
      <point x="378" y="139"/>
      <point x="370" y="133" type="qcurve"/>
      <point x="1179" y="133" type="line"/>
    </contour>
  </outline>
</glyph>
<glyph name="copyright" format="2">
  <advance width="1750"/>
  <unicode hex="00A9"/>
  <outline>
    <contour>
      <point x="875" y="-51" type="qcurve" smooth="yes"/>
      <point x="732" y="-51"/>
      <point x="484" y="46"/>
      <point x="289" y="215"/>
      <point x="224" y="327" type="qcurve" smooth="yes"/>
      <point x="123" y="501"/>
      <point x="123" y="707" type="qcurve" smooth="yes"/>
      <point x="123" y="850"/>
      <point x="219" y="1100"/>
      <point x="387" y="1296"/>
      <point x="498" y="1362" type="qcurve" smooth="yes"/>
      <point x="671" y="1464"/>
      <point x="875" y="1464" type="qcurve" smooth="yes"/>
      <point x="1018" y="1464"/>
      <point x="1266" y="1367"/>
      <point x="1461" y="1198"/>
      <point x="1526" y="1086" type="qcurve" smooth="yes"/>
      <point x="1627" y="912"/>
      <point x="1627" y="707" type="qcurve" smooth="yes"/>
      <point x="1627" y="563"/>
      <point x="1531" y="313"/>
      <point x="1363" y="117"/>
      <point x="1252" y="51" type="qcurve" smooth="yes"/>
      <point x="1079" y="-51"/>
    </contour>
    <contour>
      <point x="875" y="69" type="qcurve" smooth="yes"/>
      <point x="993" y="69"/>
      <point x="1201" y="152"/>
      <point x="1366" y="296"/>
      <point x="1422" y="391" type="qcurve" smooth="yes"/>
      <point x="1508" y="537"/>
      <point x="1508" y="707" type="qcurve" smooth="yes"/>
      <point x="1508" y="825"/>
      <point x="1426" y="1034"/>
      <point x="1283" y="1201"/>
      <point x="1190" y="1257" type="qcurve" smooth="yes"/>
      <point x="1044" y="1344"/>
      <point x="875" y="1344" type="qcurve" smooth="yes"/>
      <point x="758" y="1344"/>
      <point x="550" y="1261"/>
      <point x="384" y="1117"/>
      <point x="328" y="1023" type="qcurve" smooth="yes"/>
      <point x="241" y="876"/>
      <point x="241" y="707" type="qcurve" smooth="yes"/>
      <point x="241" y="589"/>
      <point x="324" y="380"/>
      <point x="467" y="213"/>
      <point x="561" y="157" type="qcurve" smooth="yes"/>
      <point x="707" y="69"/>
    </contour>
    <contour>
      <point x="892" y="300" type="qcurve" smooth="yes"/>
      <point x="776" y="300"/>
      <point x="618" y="409"/>
      <point x="539" y="592"/>
      <point x="539" y="705" type="qcurve" smooth="yes"/>
      <point x="539" y="814"/>
      <point x="616" y="998"/>
      <point x="772" y="1109"/>
      <point x="892" y="1109" type="qcurve" smooth="yes"/>
      <point x="990" y="1109"/>
      <point x="1153" y="1014"/>
      <point x="1198" y="919" type="qcurve"/>
      <point x="1090" y="873" type="line"/>
      <point x="1059" y="932"/>
      <point x="956" y="990"/>
      <point x="892" y="990" type="qcurve" smooth="yes"/>
      <point x="811" y="990"/>
      <point x="706" y="912"/>
      <point x="655" y="782"/>
      <point x="655" y="705" type="qcurve" smooth="yes"/>
      <point x="655" y="630"/>
      <point x="704" y="500"/>
      <point x="808" y="421"/>
      <point x="890" y="421" type="qcurve" smooth="yes"/>
      <point x="953" y="421"/>
      <point x="1058" y="480"/>
      <point x="1088" y="539" type="qcurve"/>
      <point x="1198" y="492" type="line"/>
      <point x="1153" y="395"/>
      <point x="992" y="300"/>
    </contour>
  </outline>
</glyph>
<glyph name="ordfeminine" format="2">
  <advance width="850"/>
  <unicode hex="00AA"/>
  <outline>
    <contour>
      <point x="341" y="709" type="qcurve" smooth="yes"/>
      <point x="280" y="709"/>
      <point x="175" y="759"/>
      <point x="111" y="854"/>
      <point x="111" y="920" type="qcurve" smooth="yes"/>
      <point x="111" y="995"/>
      <point x="178" y="1087"/>
      <point x="296" y="1129"/>
      <point x="372" y="1129" type="qcurve" smooth="yes"/>
      <point x="584" y="1129" type="line"/>
      <point x="582" y="1336"/>
      <point x="410" y="1336" type="qcurve" smooth="yes"/>
      <point x="350" y="1336"/>
      <point x="256" y="1277"/>
      <point x="229" y="1235" type="qcurve"/>
      <point x="138" y="1293" type="line"/>
      <point x="193" y="1368"/>
      <point x="327" y="1434"/>
      <point x="415" y="1434" type="qcurve" smooth="yes"/>
      <point x="507" y="1434"/>
      <point x="629" y="1362"/>
      <point x="691" y="1235"/>
      <point x="691" y="1152" type="qcurve" smooth="yes"/>
      <point x="691" y="723" type="line"/>
      <point x="594" y="723" type="line"/>
      <point x="589" y="840" type="line"/>
      <point x="541" y="770"/>
      <point x="420" y="709"/>
    </contour>
    <contour>
      <point x="367" y="810" type="qcurve" smooth="yes"/>
      <point x="431" y="810"/>
      <point x="528" y="877"/>
      <point x="583" y="978"/>
      <point x="584" y="1032" type="qcurve"/>
      <point x="382" y="1032" type="line" smooth="yes"/>
      <point x="321" y="1032"/>
      <point x="235" y="974"/>
      <point x="235" y="920" type="qcurve" smooth="yes"/>
      <point x="235" y="886"/>
      <point x="276" y="837"/>
      <point x="337" y="810"/>
    </contour>
  </outline>
</glyph>
<glyph name="logicalnot" format="2">
  <advance width="1284"/>
  <unicode hex="00AC"/>
  <outline>
    <contour>
      <point x="1031" y="291" type="line"/>
      <point x="891" y="291" type="line"/>
      <point x="891" y="663" type="line"/>
      <point x="153" y="663" type="line"/>
      <point x="153" y="797" type="line"/>
      <point x="1031" y="797" type="line"/>
    </contour>
  </outline>
</glyph>
<glyph name="sfthyphen" format="2">
  <advance width="979"/>
  <unicode hex="00AD"/>
  <outline>
    <contour>
      <point x="818" y="578" type="line"/>
      <point x="161" y="578" type="line"/>
      <point x="161" y="692" type="line"/>
      <point x="818" y="692" type="line"/>
    </contour>
  </outline>
</glyph>
<glyph name="registered" format="2">
  <advance width="1750"/>
  <unicode hex="00AE"/>
  <outline>
    <contour>
      <point x="875" y="-49" type="qcurve" smooth="yes"/>
      <point x="732" y="-49"/>
      <point x="484" y="48"/>
      <point x="289" y="217"/>
      <point x="224" y="329" type="qcurve" smooth="yes"/>
      <point x="123" y="503"/>
      <point x="123" y="709" type="qcurve" smooth="yes"/>
      <point x="123" y="852"/>
      <point x="219" y="1102"/>
      <point x="387" y="1298"/>
      <point x="498" y="1364" type="qcurve" smooth="yes"/>
      <point x="671" y="1466"/>
      <point x="875" y="1466" type="qcurve" smooth="yes"/>
      <point x="1018" y="1466"/>
      <point x="1266" y="1369"/>
      <point x="1461" y="1200"/>
      <point x="1526" y="1088" type="qcurve" smooth="yes"/>
      <point x="1627" y="914"/>
      <point x="1627" y="709" type="qcurve" smooth="yes"/>
      <point x="1627" y="565"/>
      <point x="1531" y="315"/>
      <point x="1363" y="119"/>
      <point x="1252" y="53" type="qcurve" smooth="yes"/>
      <point x="1079" y="-49"/>
    </contour>
    <contour>
      <point x="875" y="63" type="qcurve" smooth="yes"/>
      <point x="995" y="63"/>
      <point x="1206" y="146"/>
      <point x="1373" y="291"/>
      <point x="1429" y="387" type="qcurve" smooth="yes"/>
      <point x="1516" y="536"/>
      <point x="1516" y="709" type="qcurve" smooth="yes"/>
      <point x="1516" y="830"/>
      <point x="1433" y="1042"/>
      <point x="1289" y="1210"/>
      <point x="1195" y="1267" type="qcurve" smooth="yes"/>
      <point x="1047" y="1355"/>
      <point x="875" y="1355" type="qcurve" smooth="yes"/>
      <point x="755" y="1355"/>
      <point x="544" y="1272"/>
      <point x="377" y="1126"/>
      <point x="321" y="1031" type="qcurve" smooth="yes"/>
      <point x="233" y="882"/>
      <point x="233" y="709" type="qcurve" smooth="yes"/>
      <point x="233" y="588"/>
      <point x="316" y="375"/>
      <point x="461" y="207"/>
      <point x="556" y="151" type="qcurve" smooth="yes"/>
      <point x="703" y="63"/>
    </contour>
    <contour>
      <point x="1226" y="304" type="line"/>
      <point x="1084" y="304" type="line"/>
      <point x="907" y="637" type="line"/>
      <point x="749" y="637" type="line"/>
      <point x="749" y="304" type="line"/>
      <point x="627" y="304" type="line"/>
      <point x="627" y="1099" type="line"/>
      <point x="929" y="1099" type="line" smooth="yes"/>
      <point x="1065" y="1099"/>
      <point x="1190" y="975"/>
      <point x="1190" y="867" type="qcurve" smooth="yes"/>
      <point x="1190" y="768"/>
      <point x="1096" y="663"/>
      <point x="1024" y="649" type="qcurve"/>
    </contour>
    <contour>
      <point x="929" y="747" type="line" smooth="yes"/>
      <point x="1078" y="747"/>
      <point x="1078" y="865" type="qcurve" smooth="yes"/>
      <point x="1078" y="928"/>
      <point x="1008" y="988"/>
      <point x="929" y="988" type="qcurve" smooth="yes"/>
      <point x="739" y="988" type="line"/>
      <point x="739" y="747" type="line"/>
    </contour>
  </outline>
</glyph>
<glyph name="degree" format="2">
  <advance width="950"/>
  <unicode hex="00B0"/>
  <outline>
    <contour>
      <point x="476" y="848" type="qcurve" smooth="yes"/>
      <point x="391" y="848"/>
      <point x="259" y="930"/>
      <point x="183" y="1064"/>
      <point x="183" y="1141" type="qcurve" smooth="yes"/>
      <point x="183" y="1227"/>
      <point x="266" y="1359"/>
      <point x="400" y="1434"/>
      <point x="476" y="1434" type="qcurve" smooth="yes"/>
      <point x="559" y="1434"/>
      <point x="691" y="1352"/>
      <point x="767" y="1219"/>
      <point x="767" y="1141" type="qcurve" smooth="yes"/>
      <point x="767" y="1057"/>
      <point x="686" y="924"/>
      <point x="553" y="848"/>
    </contour>
    <contour>
      <point x="476" y="941" type="qcurve" smooth="yes"/>
      <point x="559" y="941"/>
      <point x="674" y="1060"/>
      <point x="674" y="1141" type="qcurve" smooth="yes"/>
      <point x="674" y="1226"/>
      <point x="554" y="1340"/>
      <point x="476" y="1340" type="qcurve" smooth="yes"/>
      <point x="390" y="1340"/>
      <point x="276" y="1220"/>
      <point x="276" y="1141" type="qcurve" smooth="yes"/>
      <point x="276" y="1054"/>
      <point x="398" y="941"/>
    </contour>
  </outline>
</glyph>
<glyph name="twosuperior" format="2">
  <advance width="818"/>
  <unicode hex="00B2"/>
  <outline>
    <contour>
      <point x="741" y="486" type="line"/>
      <point x="64" y="486" type="line"/>
      <point x="64" y="592" type="line"/>
      <point x="232" y="694"/>
      <point x="468" y="910"/>
      <point x="526" y="1006" type="qcurve" smooth="yes"/>
      <point x="571" y="1081"/>
      <point x="571" y="1162" type="qcurve" smooth="yes"/>
      <point x="571" y="1249"/>
      <point x="479" y="1335"/>
      <point x="407" y="1335" type="qcurve" smooth="yes"/>
      <point x="318" y="1335"/>
      <point x="223" y="1214"/>
      <point x="218" y="1115" type="qcurve"/>
      <point x="101" y="1124" type="line"/>
      <point x="101" y="1278"/>
      <point x="270" y="1441"/>
      <point x="405" y="1441" type="qcurve" smooth="yes"/>
      <point x="543" y="1441"/>
      <point x="694" y="1292"/>
      <point x="694" y="1176" type="qcurve" smooth="yes"/>
      <point x="694" y="1079"/>
      <point x="584" y="891"/>
      <point x="465" y="777" type="qcurve" smooth="yes"/>
      <point x="391" y="706"/>
      <point x="281" y="622"/>
      <point x="222" y="587" type="qcurve"/>
      <point x="741" y="587" type="line"/>
    </contour>
  </outline>
</glyph>
<glyph name="mu" format="2">
  <advance width="1298"/>
  <unicode hex="00B5"/>
  <outline>
    <contour>
      <point x="391" y="-266" type="line"/>
      <point x="255" y="-266" type="line"/>
      <point x="255" y="999" type="line"/>
      <point x="412" y="999" type="line"/>
      <point x="412" y="403" type="line" smooth="yes"/>
      <point x="412" y="279"/>
      <point x="504" y="118"/>
      <point x="616" y="118" type="qcurve" smooth="yes"/>
      <point x="701" y="118"/>
      <point x="836" y="208"/>
      <point x="915" y="350"/>
      <point x="915" y="428" type="qcurve" smooth="yes"/>
      <point x="915" y="999" type="line"/>
      <point x="1072" y="999" type="line"/>
      <point x="1072" y="0" type="line"/>
      <point x="915" y="0" type="line"/>
      <point x="915" y="169" type="line"/>
      <point x="892" y="123"/>
      <point x="802" y="35"/>
      <point x="677" y="-23"/>
      <point x="602" y="-23" type="qcurve" smooth="yes"/>
      <point x="498" y="-23"/>
      <point x="413" y="28" type="qcurve"/>
    </contour>
  </outline>
</glyph>
<glyph name="paragraph" format="2">
  <advance width="1332"/>
  <unicode hex="00B6"/>
  <outline>
    <contour>
      <point x="708" y="-246" type="line"/>
      <point x="572" y="-246" type="line"/>
      <point x="572" y="623" type="line"/>
      <point x="458" y="623"/>
      <point x="251" y="714"/>
      <point x="183" y="808" type="qcurve"/>
      <point x="120" y="898"/>
      <point x="120" y="1018" type="qcurve" smooth="yes"/>
      <point x="120" y="1143"/>
      <point x="249" y="1320"/>
      <point x="455" y="1413"/>
      <point x="572" y="1413" type="qcurve" smooth="yes"/>
      <point x="708" y="1413" type="line"/>
    </contour>
    <contour>
      <point x="1076" y="-246" type="line"/>
      <point x="940" y="-246" type="line"/>
      <point x="940" y="1413" type="line"/>
      <point x="1076" y="1413" type="line"/>
    </contour>
  </outline>
</glyph>
<glyph name="periodcentered" format="2">
  <advance width="643"/>
  <unicode hex="00B7"/>
  <outline>
    <contour>
      <point x="320" y="699" type="qcurve" smooth="yes"/>
      <point x="267" y="699"/>
      <point x="196" y="772"/>
      <point x="196" y="824" type="qcurve" smooth="yes"/>
      <point x="196" y="880"/>
      <point x="268" y="948"/>
      <point x="320" y="948" type="qcurve" smooth="yes"/>
      <point x="373" y="948"/>
      <point x="445" y="878"/>
      <point x="445" y="824" type="qcurve" smooth="yes"/>
      <point x="445" y="772"/>
      <point x="372" y="699"/>
    </contour>
  </outline>
</glyph>
<glyph name="cedilla" format="2">
  <advance width="576"/>
  <unicode hex="00B8"/>
  <anchor x="273" y="-500" name="b.uni0326_2"/>
  <outline>
    <contour>
      <point x="264" y="-504" type="qcurve" smooth="yes"/>
      <point x="199" y="-504"/>
      <point x="103" y="-432"/>
      <point x="82" y="-380" type="qcurve"/>
      <point x="181" y="-329" type="line"/>
      <point x="187" y="-358"/>
      <point x="235" y="-401"/>
      <point x="270" y="-401" type="qcurve" smooth="yes"/>
      <point x="316" y="-401"/>
      <point x="368" y="-343"/>
      <point x="368" y="-305" type="qcurve" smooth="yes"/>
      <point x="368" y="-273"/>
      <point x="328" y="-216"/>
      <point x="246" y="-180"/>
      <point x="182" y="-180" type="qcurve" smooth="yes"/>
      <point x="140" y="-180" type="line"/>
      <point x="239" y="0" type="line"/>
      <point x="358" y="0" type="line"/>
      <point x="290" y="-117" type="line"/>
      <point x="384" y="-123"/>
      <point x="476" y="-226"/>
      <point x="476" y="-297" type="qcurve" smooth="yes"/>
      <point x="476" y="-347"/>
      <point x="427" y="-442"/>
      <point x="332" y="-504"/>
    </contour>
  </outline>
</glyph>
<glyph name="questiondown" format="2">
  <advance width="1019"/>
  <unicode hex="00BF"/>
  <outline>
    <contour>
      <point x="612" y="806" type="line"/>
      <point x="417" y="806" type="line"/>
      <point x="417" y="999" type="line"/>
      <point x="612" y="999" type="line"/>
    </contour>
    <contour>
      <point x="524" y="-434" type="qcurve" smooth="yes"/>
      <point x="409" y="-434"/>
      <point x="221" y="-351"/>
      <point x="109" y="-190"/>
      <point x="109" y="-71" type="qcurve" smooth="yes"/>
      <point x="109" y="85"/>
      <point x="206" y="168" type="qcurve" smooth="yes"/>
      <point x="248" y="203"/>
      <point x="315" y="240" type="qcurve" smooth="yes"/>
      <point x="382" y="276"/>
      <point x="449" y="342"/>
      <point x="449" y="398" type="qcurve" smooth="yes"/>
      <point x="449" y="623" type="line"/>
      <point x="586" y="623" type="line"/>
      <point x="586" y="396" type="line" smooth="yes"/>
      <point x="586" y="270"/>
      <point x="507" y="212" type="qcurve" smooth="yes"/>
      <point x="468" y="184"/>
      <point x="416" y="155" type="qcurve" smooth="yes"/>
      <point x="364" y="125"/>
      <point x="330" y="101" type="qcurve" smooth="yes"/>
      <point x="252" y="44"/>
      <point x="252" y="-75" type="qcurve" smooth="yes"/>
      <point x="252" y="-187"/>
      <point x="400" y="-302"/>
      <point x="517" y="-302" type="qcurve" smooth="yes"/>
      <point x="627" y="-302"/>
      <point x="779" y="-178"/>
      <point x="783" y="-59" type="qcurve"/>
      <point x="928" y="-59" type="line"/>
      <point x="922" y="-239"/>
      <point x="688" y="-434"/>
    </contour>
  </outline>
</glyph>
<glyph name="Aring" format="2">
  <advance width="1306"/>
  <unicode hex="00C5"/>
  <outline>
    <contour>
      <point x="1243" y="0" type="line"/>
      <point x="1073" y="0" type="line"/>
      <point x="965" y="307" type="line"/>
      <point x="344" y="307" type="line"/>
      <point x="236" y="0" type="line"/>
      <point x="63" y="0" type="line"/>
      <point x="564" y="1337" type="line"/>
      <point x="514" y="1361"/>
      <point x="451" y="1457"/>
      <point x="451" y="1520" type="qcurve" smooth="yes"/>
      <point x="451" y="1610"/>
      <point x="572" y="1724"/>
      <point x="652" y="1724" type="qcurve" smooth="yes"/>
      <point x="739" y="1724"/>
      <point x="857" y="1603"/>
      <point x="857" y="1520" type="qcurve" smooth="yes"/>
      <point x="857" y="1459"/>
      <point x="793" y="1364"/>
      <point x="744" y="1340" type="qcurve"/>
    </contour>
    <contour>
      <point x="652" y="1420" type="qcurve" smooth="yes"/>
      <point x="694" y="1420"/>
      <point x="752" y="1477"/>
      <point x="752" y="1521" type="qcurve" smooth="yes"/>
      <point x="752" y="1562"/>
      <point x="697" y="1619"/>
      <point x="652" y="1619" type="qcurve" smooth="yes"/>
      <point x="608" y="1619"/>
      <point x="554" y="1565"/>
      <point x="554" y="1521" type="qcurve" smooth="yes"/>
      <point x="554" y="1476"/>
      <point x="610" y="1420"/>
    </contour>
    <contour>
      <point x="911" y="452" type="line"/>
      <point x="656" y="1180" type="line"/>
      <point x="397" y="452" type="line"/>
    </contour>
  </outline>
</glyph>
<glyph name="Ccedilla" format="2">
  <advance width="1420"/>
  <unicode hex="00C7"/>
  <outline>
    <contour>
      <point x="763" y="-504" type="qcurve" smooth="yes"/>
      <point x="698" y="-504"/>
      <point x="602" y="-432"/>
      <point x="581" y="-380" type="qcurve"/>
      <point x="680" y="-329" type="line"/>
      <point x="686" y="-358"/>
      <point x="734" y="-401"/>
      <point x="769" y="-401" type="qcurve" smooth="yes"/>
      <point x="815" y="-401"/>
      <point x="867" y="-343"/>
      <point x="867" y="-305" type="qcurve" smooth="yes"/>
      <point x="867" y="-273"/>
      <point x="827" y="-216"/>
      <point x="745" y="-180"/>
      <point x="681" y="-180" type="qcurve" smooth="yes"/>
      <point x="639" y="-180" type="line"/>
      <point x="727" y="-19" type="line"/>
      <point x="528" y="-12"/>
      <point x="393" y="87" type="qcurve" smooth="yes"/>
      <point x="251" y="192"/>
      <point x="125" y="518"/>
      <point x="125" y="707" type="qcurve" smooth="yes"/>
      <point x="125" y="836"/>
      <point x="182" y="1073"/>
      <point x="306" y="1270"/>
      <point x="406" y="1339" type="qcurve" smooth="yes"/>
      <point x="548" y="1436"/>
      <point x="757" y="1436" type="qcurve" smooth="yes"/>
      <point x="948" y="1436"/>
      <point x="1246" y="1249"/>
      <point x="1332" y="1060" type="qcurve"/>
      <point x="1186" y="997" type="line"/>
      <point x="1145" y="1148"/>
      <point x="915" y="1289"/>
      <point x="755" y="1289" type="qcurve" smooth="yes"/>
      <point x="595" y="1289"/>
      <point x="489" y="1211" type="qcurve" smooth="yes"/>
      <point x="378" y="1128"/>
      <point x="281" y="868"/>
      <point x="281" y="717" type="qcurve" smooth="yes"/>
      <point x="281" y="558"/>
      <point x="378" y="289"/>
      <point x="489" y="205" type="qcurve"/>
      <point x="596" y="126"/>
      <point x="759" y="126" type="qcurve" smooth="yes"/>
      <point x="916" y="126"/>
      <point x="1132" y="270"/>
      <point x="1188" y="421" type="qcurve"/>
      <point x="1334" y="358" type="line"/>
      <point x="1259" y="190"/>
      <point x="1008" y="5"/>
      <point x="849" y="-15" type="qcurve"/>
      <point x="789" y="-117" type="line"/>
      <point x="883" y="-123"/>
      <point x="975" y="-226"/>
      <point x="975" y="-297" type="qcurve" smooth="yes"/>
      <point x="975" y="-347"/>
      <point x="926" y="-442"/>
      <point x="831" y="-504"/>
    </contour>
  </outline>
</glyph>
<glyph name="multiply" format="2">
  <advance width="1104"/>
  <unicode hex="00D7"/>
  <outline>
    <contour>
      <point x="879" y="217" type="line"/>
      <point x="553" y="544" type="line"/>
      <point x="229" y="221" type="line"/>
      <point x="148" y="301" type="line"/>
      <point x="471" y="625" type="line"/>
      <point x="145" y="950" type="line"/>
      <point x="226" y="1032" type="line"/>
      <point x="553" y="705" type="line"/>
      <point x="875" y="1028" type="line"/>
      <point x="956" y="948" type="line"/>
      <point x="633" y="625" type="line"/>
      <point x="959" y="299" type="line"/>
    </contour>
  </outline>
</glyph>
<glyph name="germandbls" format="2">
  <advance width="1178"/>
  <unicode hex="00DF"/>
  <outline>
    <contour>
      <point x="719" y="-18" type="qcurve" smooth="yes"/>
      <point x="592" y="-18"/>
      <point x="454" y="48" type="qcurve"/>
      <point x="515" y="188" type="line"/>
      <point x="622" y="131"/>
      <point x="718" y="131" type="qcurve" smooth="yes"/>
      <point x="789" y="131"/>
      <point x="908" y="225"/>
      <point x="908" y="293" type="qcurve" smooth="yes"/>
      <point x="908" y="382"/>
      <point x="836" y="451" type="qcurve"/>
      <point x="800" y="484"/>
      <point x="751" y="526" type="qcurve" smooth="yes"/>
      <point x="701" y="567"/>
      <point x="667" y="600" type="qcurve" smooth="yes"/>
      <point x="590" y="673"/>
      <point x="590" y="772" type="qcurve" smooth="yes"/>
      <point x="590" y="814"/>
      <point x="622" y="874"/>
      <point x="670" y="915"/>
      <point x="707" y="941" type="qcurve" smooth="yes"/>
      <point x="743" y="967"/>
      <point x="791" y="1009"/>
      <point x="822" y="1067"/>
      <point x="822" y="1106" type="qcurve" smooth="yes"/>
      <point x="822" y="1184"/>
      <point x="694" y="1297"/>
      <point x="581" y="1297" type="qcurve" smooth="yes"/>
      <point x="319" y="1297"/>
      <point x="319" y="907" type="qcurve" smooth="yes"/>
      <point x="319" y="0" type="line"/>
      <point x="170" y="0" type="line"/>
      <point x="170" y="908" type="line" smooth="yes"/>
      <point x="170" y="1182"/>
      <point x="393" y="1434"/>
      <point x="577" y="1434" type="qcurve" smooth="yes"/>
      <point x="670" y="1434"/>
      <point x="854" y="1352"/>
      <point x="917" y="1272" type="qcurve"/>
      <point x="975" y="1194"/>
      <point x="975" y="1094" type="qcurve" smooth="yes"/>
      <point x="975" y="1020"/>
      <point x="905" y="933"/>
      <point x="842" y="894" type="qcurve"/>
      <point x="793" y="862"/>
      <point x="745" y="808"/>
      <point x="745" y="768" type="qcurve" smooth="yes"/>
      <point x="745" y="713"/>
      <point x="801" y="665" type="qcurve" smooth="yes"/>
      <point x="826" y="643"/>
      <point x="866" y="611" type="qcurve" smooth="yes"/>
      <point x="925" y="565"/>
      <point x="967" y="526" type="qcurve" smooth="yes"/>
      <point x="1060" y="438"/>
      <point x="1060" y="308" type="qcurve" smooth="yes"/>
      <point x="1060" y="208"/>
      <point x="966" y="62"/>
      <point x="811" y="-18"/>
    </contour>
  </outline>
</glyph>
<glyph name="thorn" format="2">
  <advance width="1140"/>
  <unicode hex="00FE"/>
  <outline>
    <contour>
      <point x="331" y="-438" type="line"/>
      <point x="172" y="-438" type="line"/>
      <point x="172" y="1413" type="line"/>
      <point x="331" y="1413" type="line"/>
      <point x="331" y="860" type="line"/>
      <point x="379" y="933"/>
      <point x="536" y="1020"/>
      <point x="646" y="1020" type="qcurve" smooth="yes"/>
      <point x="775" y="1020"/>
      <point x="952" y="879"/>
      <point x="1044" y="643"/>
      <point x="1044" y="500" type="qcurve" smooth="yes"/>
      <point x="1044" y="362"/>
      <point x="955" y="123"/>
      <point x="861" y="49" type="qcurve"/>
      <point x="771" y="-20"/>
      <point x="646" y="-20" type="qcurve" smooth="yes"/>
      <point x="537" y="-20"/>
      <point x="380" y="65"/>
      <point x="331" y="139" type="qcurve"/>
    </contour>
    <contour>
      <point x="605" y="118" type="qcurve" smooth="yes"/>
      <point x="703" y="118"/>
      <point x="829" y="221"/>
      <point x="891" y="394"/>
      <point x="891" y="500" type="qcurve" smooth="yes"/>
      <point x="891" y="600"/>
      <point x="832" y="774"/>
      <point x="705" y="881"/>
      <point x="605" y="881" type="qcurve" smooth="yes"/>
      <point x="507" y="881"/>
      <point x="378" y="777"/>
      <point x="315" y="603"/>
      <point x="315" y="500" type="qcurve" smooth="yes"/>
      <point x="315" y="397"/>
      <point x="377" y="223"/>
      <point x="505" y="118"/>
    </contour>
  </outline>
</glyph>
<glyph name="dcaron" format="2">
  <advance width="1193"/>
  <unicode hex="010F"/>
  <outline>
    <contour>
      <point x="497" y="-20" type="qcurve" smooth="yes"/>
      <point x="368" y="-20"/>
      <point x="189" y="123"/>
      <point x="96" y="359"/>
      <point x="96" y="500" type="qcurve" smooth="yes"/>
      <point x="96" y="638"/>
      <point x="187" y="877"/>
      <point x="282" y="951" type="qcurve" smooth="yes"/>
      <point x="372" y="1020"/>
      <point x="496" y="1020" type="qcurve" smooth="yes"/>
      <point x="701" y="1020"/>
      <point x="809" y="863" type="qcurve"/>
      <point x="809" y="1413" type="line"/>
      <point x="958" y="1413" type="line"/>
      <point x="958" y="0" type="line"/>
      <point x="809" y="0" type="line"/>
      <point x="809" y="136" type="line"/>
      <point x="699" y="-20"/>
    </contour>
    <contour>
      <point x="1176" y="1017" type="line"/>
      <point x="1069" y="1017" type="line"/>
      <point x="1172" y="1413" type="line"/>
      <point x="1384" y="1413" type="line"/>
    </contour>
    <contour>
      <point x="535" y="116" type="qcurve" smooth="yes"/>
      <point x="635" y="116"/>
      <point x="761" y="220"/>
      <point x="821" y="394"/>
      <point x="821" y="500" type="qcurve" smooth="yes"/>
      <point x="821" y="601"/>
      <point x="764" y="775"/>
      <point x="638" y="882"/>
      <point x="535" y="882" type="qcurve" smooth="yes"/>
      <point x="438" y="882"/>
      <point x="311" y="778"/>
      <point x="249" y="604"/>
      <point x="249" y="500" type="qcurve" smooth="yes"/>
      <point x="249" y="399"/>
      <point x="308" y="224"/>
      <point x="434" y="116"/>
    </contour>
  </outline>
</glyph>
<glyph name="dcroat" format="2">
  <advance width="1129"/>
  <unicode hex="0111"/>
  <outline>
    <contour>
      <point x="497" y="-20" type="qcurve" smooth="yes"/>
      <point x="368" y="-20"/>
      <point x="189" y="123"/>
      <point x="96" y="359"/>
      <point x="96" y="500" type="qcurve" smooth="yes"/>
      <point x="96" y="638"/>
      <point x="187" y="877"/>
      <point x="282" y="951" type="qcurve" smooth="yes"/>
      <point x="372" y="1020"/>
      <point x="496" y="1020" type="qcurve" smooth="yes"/>
      <point x="701" y="1020"/>
      <point x="809" y="863" type="qcurve"/>
      <point x="809" y="1158" type="line"/>
      <point x="512" y="1158" type="line"/>
      <point x="512" y="1274" type="line"/>
      <point x="809" y="1274" type="line"/>
      <point x="809" y="1413" type="line"/>
      <point x="958" y="1413" type="line"/>
      <point x="958" y="1274" type="line"/>
      <point x="1146" y="1274" type="line"/>
      <point x="1146" y="1158" type="line"/>
      <point x="958" y="1158" type="line"/>
      <point x="958" y="0" type="line"/>
      <point x="813" y="0" type="line"/>
      <point x="810" y="139" type="line"/>
      <point x="700" y="-20"/>
    </contour>
    <contour>
      <point x="535" y="116" type="qcurve" smooth="yes"/>
      <point x="635" y="116"/>
      <point x="761" y="220"/>
      <point x="821" y="394"/>
      <point x="821" y="500" type="qcurve" smooth="yes"/>
      <point x="821" y="601"/>
      <point x="764" y="775"/>
      <point x="638" y="882"/>
      <point x="535" y="882" type="qcurve" smooth="yes"/>
      <point x="438" y="882"/>
      <point x="311" y="778"/>
      <point x="249" y="604"/>
      <point x="249" y="500" type="qcurve" smooth="yes"/>
      <point x="249" y="399"/>
      <point x="308" y="224"/>
      <point x="434" y="116"/>
    </contour>
  </outline>
</glyph>
<glyph name="Hbar" format="2">
  <advance width="1455"/>
  <unicode hex="0126"/>
  <outline>
    <contour>
      <point x="1243" y="0" type="line"/>
      <point x="1084" y="0" type="line"/>
      <point x="1084" y="641" type="line"/>
      <point x="371" y="641" type="line"/>
      <point x="371" y="0" type="line"/>
      <point x="212" y="0" type="line"/>
      <point x="212" y="1071" type="line"/>
      <point x="97" y="1071" type="line"/>
      <point x="97" y="1160" type="line"/>
      <point x="212" y="1160" type="line"/>
      <point x="212" y="1413" type="line"/>
      <point x="371" y="1413" type="line"/>
      <point x="371" y="1160" type="line"/>
      <point x="1084" y="1160" type="line"/>
      <point x="1084" y="1413" type="line"/>
      <point x="1243" y="1413" type="line"/>
      <point x="1243" y="1160" type="line"/>
      <point x="1356" y="1160" type="line"/>
      <point x="1356" y="1071" type="line"/>
      <point x="1243" y="1071" type="line"/>
    </contour>
    <contour>
      <point x="1084" y="774" type="line"/>
      <point x="1084" y="1071" type="line"/>
      <point x="371" y="1071" type="line"/>
      <point x="371" y="774" type="line"/>
    </contour>
  </outline>
</glyph>
<glyph name="Lcaron" format="2">
  <advance width="1051"/>
  <unicode hex="013D"/>
  <outline>
    <contour>
      <point x="975" y="0" type="line"/>
      <point x="212" y="0" type="line"/>
      <point x="212" y="1413" type="line"/>
      <point x="371" y="1413" type="line"/>
      <point x="371" y="145" type="line"/>
      <point x="975" y="145" type="line"/>
    </contour>
    <contour>
      <point x="708" y="1017" type="line"/>
      <point x="601" y="1017" type="line"/>
      <point x="704" y="1413" type="line"/>
      <point x="916" y="1413" type="line"/>
    </contour>
  </outline>
</glyph>
<glyph name="lslash" format="2">
  <advance width="518"/>
  <unicode hex="0142"/>
  <outline>
    <contour>
      <point x="328" y="-20" type="qcurve" smooth="yes"/>
      <point x="257" y="-20"/>
      <point x="184" y="36"/>
      <point x="165" y="129"/>
      <point x="165" y="202" type="qcurve" smooth="yes"/>
      <point x="165" y="484" type="line"/>
      <point x="8" y="307" type="line"/>
      <point x="8" y="454" type="line"/>
      <point x="165" y="631" type="line"/>
      <point x="165" y="1413" type="line"/>
      <point x="316" y="1413" type="line"/>
      <point x="316" y="801" type="line"/>
      <point x="496" y="1004" type="line"/>
      <point x="496" y="857" type="line"/>
      <point x="316" y="654" type="line"/>
      <point x="316" y="166" type="line" smooth="yes"/>
      <point x="316" y="151"/>
      <point x="337" y="110"/>
      <point x="366" y="110" type="qcurve" smooth="yes"/>
      <point x="407" y="110"/>
      <point x="462" y="120" type="qcurve"/>
      <point x="462" y="0" type="line"/>
      <point x="397" y="-20"/>
    </contour>
  </outline>
</glyph>
<glyph name="eng" format="2">
  <advance width="1119"/>
  <unicode hex="014B"/>
  <outline>
    <contour>
      <point x="707" y="-369" type="qcurve" smooth="yes"/>
      <point x="622" y="-369" type="line"/>
      <point x="622" y="-240" type="line"/>
      <point x="678" y="-240" type="line" smooth="yes"/>
      <point x="744" y="-240"/>
      <point x="809" y="-178"/>
      <point x="824" y="-102"/>
      <point x="824" y="-58" type="qcurve" smooth="yes"/>
      <point x="824" y="593" type="line" smooth="yes"/>
      <point x="824" y="871"/>
      <point x="619" y="871" type="qcurve" smooth="yes"/>
      <point x="532" y="871"/>
      <point x="397" y="784"/>
      <point x="319" y="646"/>
      <point x="319" y="569" type="qcurve" smooth="yes"/>
      <point x="319" y="0" type="line"/>
      <point x="168" y="0" type="line"/>
      <point x="168" y="999" type="line"/>
      <point x="319" y="999" type="line"/>
      <point x="319" y="841" type="line"/>
      <point x="367" y="920"/>
      <point x="536" y="1016"/>
      <point x="632" y="1016" type="qcurve" smooth="yes"/>
      <point x="753" y="1016"/>
      <point x="904" y="906"/>
      <point x="974" y="721"/>
      <point x="974" y="607" type="qcurve" smooth="yes"/>
      <point x="974" y="-84" type="line" smooth="yes"/>
      <point x="974" y="-198"/>
      <point x="870" y="-369"/>
    </contour>
  </outline>
</glyph>
<glyph name="OE" format="2">
  <advance width="2243"/>
  <unicode hex="0152"/>
  <outline>
    <contour>
      <point x="756" y="-20" type="qcurve" smooth="yes"/>
      <point x="549" y="-20"/>
      <point x="407" y="78" type="qcurve" smooth="yes"/>
      <point x="258" y="182"/>
      <point x="123" y="515"/>
      <point x="123" y="707" type="qcurve" smooth="yes"/>
      <point x="123" y="899"/>
      <point x="258" y="1232"/>
      <point x="407" y="1337" type="qcurve"/>
      <point x="549" y="1434"/>
      <point x="756" y="1434" type="qcurve" smooth="yes"/>
      <point x="1101" y="1434"/>
      <point x="1233" y="1158" type="qcurve"/>
      <point x="1233" y="1413" type="line"/>
      <point x="2132" y="1413" type="line"/>
      <point x="2132" y="1276" type="line"/>
      <point x="1392" y="1276" type="line"/>
      <point x="1392" y="774" type="line"/>
      <point x="2049" y="774" type="line"/>
      <point x="2049" y="641" type="line"/>
      <point x="1392" y="641" type="line"/>
      <point x="1392" y="145" type="line"/>
      <point x="2132" y="145" type="line"/>
      <point x="2132" y="0" type="line"/>
      <point x="1233" y="0" type="line"/>
      <point x="1233" y="256" type="line"/>
      <point x="1106" y="-20"/>
    </contour>
    <contour>
      <point x="756" y="124" type="qcurve" smooth="yes"/>
      <point x="920" y="124"/>
      <point x="1027" y="204" type="qcurve"/>
      <point x="1137" y="289"/>
      <point x="1233" y="553"/>
      <point x="1233" y="707" type="qcurve" smooth="yes"/>
      <point x="1233" y="861"/>
      <point x="1137" y="1125"/>
      <point x="1027" y="1210" type="qcurve"/>
      <point x="920" y="1289"/>
      <point x="756" y="1289" type="qcurve" smooth="yes"/>
      <point x="594" y="1289"/>
      <point x="488" y="1209" type="qcurve"/>
      <point x="378" y="1124"/>
      <point x="282" y="859"/>
      <point x="282" y="707" type="qcurve" smooth="yes"/>
      <point x="282" y="591"/>
      <point x="336" y="380"/>
      <point x="450" y="218"/>
      <point x="630" y="124"/>
    </contour>
  </outline>
</glyph>
<glyph name="Scedilla" format="2">
  <advance width="1110"/>
  <unicode hex="015E"/>
  <outline>
    <contour>
      <point x="523" y="-504" type="qcurve" smooth="yes"/>
      <point x="458" y="-504"/>
      <point x="362" y="-432"/>
      <point x="341" y="-380" type="qcurve"/>
      <point x="440" y="-329" type="line"/>
      <point x="446" y="-358"/>
      <point x="494" y="-401"/>
      <point x="529" y="-401" type="qcurve" smooth="yes"/>
      <point x="575" y="-401"/>
      <point x="627" y="-343"/>
      <point x="627" y="-305" type="qcurve" smooth="yes"/>
      <point x="627" y="-273"/>
      <point x="587" y="-216"/>
      <point x="505" y="-180"/>
      <point x="441" y="-180" type="qcurve" smooth="yes"/>
      <point x="399" y="-180" type="line"/>
      <point x="492" y="-11" type="line"/>
      <point x="338" y="8"/>
      <point x="113" y="195"/>
      <point x="83" y="362" type="qcurve"/>
      <point x="231" y="406" type="line"/>
      <point x="250" y="263"/>
      <point x="444" y="125"/>
      <point x="572" y="125" type="qcurve" smooth="yes"/>
      <point x="655" y="125"/>
      <point x="784" y="179"/>
      <point x="858" y="291"/>
      <point x="858" y="378" type="qcurve" smooth="yes"/>
      <point x="858" y="460"/>
      <point x="815" y="517" type="qcurve" smooth="yes"/>
      <point x="776" y="568"/>
      <point x="648" y="646"/>
      <point x="538" y="693" type="qcurve" smooth="yes"/>
      <point x="417" y="744"/>
      <point x="272" y="835"/>
      <point x="227" y="901" type="qcurve" smooth="yes"/>
      <point x="177" y="972"/>
      <point x="177" y="1076" type="qcurve" smooth="yes"/>
      <point x="177" y="1187"/>
      <point x="283" y="1348"/>
      <point x="457" y="1434"/>
      <point x="560" y="1434" type="qcurve" smooth="yes"/>
      <point x="682" y="1434"/>
      <point x="884" y="1328"/>
      <point x="952" y="1214" type="qcurve"/>
      <point x="833" y="1134" type="line"/>
      <point x="789" y="1218"/>
      <point x="642" y="1297"/>
      <point x="558" y="1297" type="qcurve" smooth="yes"/>
      <point x="498" y="1297"/>
      <point x="394" y="1247"/>
      <point x="331" y="1154"/>
      <point x="331" y="1090" type="qcurve" smooth="yes"/>
      <point x="331" y="1014"/>
      <point x="372" y="961" type="qcurve" smooth="yes"/>
      <point x="410" y="912"/>
      <point x="533" y="839"/>
      <point x="638" y="794" type="qcurve" smooth="yes"/>
      <point x="760" y="741"/>
      <point x="908" y="654"/>
      <point x="1012" y="503"/>
      <point x="1012" y="390" type="qcurve" smooth="yes"/>
      <point x="1012" y="270"/>
      <point x="906" y="94"/>
      <point x="724" y="-7"/>
      <point x="608" y="-15" type="qcurve"/>
      <point x="549" y="-117" type="line"/>
      <point x="643" y="-123"/>
      <point x="735" y="-226"/>
      <point x="735" y="-297" type="qcurve" smooth="yes"/>
      <point x="735" y="-347"/>
      <point x="686" y="-442"/>
      <point x="591" y="-504"/>
    </contour>
  </outline>
</glyph>
<glyph name="tcedilla" format="2">
  <advance width="673"/>
  <unicode hex="0163"/>
  <outline>
    <contour>
      <point x="418" y="-504" type="qcurve" smooth="yes"/>
      <point x="353" y="-504"/>
      <point x="257" y="-432"/>
      <point x="236" y="-380" type="qcurve"/>
      <point x="335" y="-329" type="line"/>
      <point x="341" y="-358"/>
      <point x="389" y="-401"/>
      <point x="424" y="-401" type="qcurve" smooth="yes"/>
      <point x="470" y="-401"/>
      <point x="522" y="-343"/>
      <point x="522" y="-305" type="qcurve" smooth="yes"/>
      <point x="522" y="-273"/>
      <point x="482" y="-216"/>
      <point x="400" y="-180"/>
      <point x="336" y="-180" type="qcurve" smooth="yes"/>
      <point x="294" y="-180" type="line"/>
      <point x="385" y="-15" type="line"/>
      <point x="201" y="18"/>
      <point x="201" y="265" type="qcurve" smooth="yes"/>
      <point x="201" y="877" type="line"/>
      <point x="44" y="877" type="line"/>
      <point x="44" y="999" type="line"/>
      <point x="202" y="999" type="line"/>
      <point x="202" y="1224" type="line"/>
      <point x="351" y="1364" type="line"/>
      <point x="351" y="999" type="line"/>
      <point x="606" y="999" type="line"/>
      <point x="606" y="877" type="line"/>
      <point x="351" y="877" type="line"/>
      <point x="351" y="264" type="line" smooth="yes"/>
      <point x="351" y="181"/>
      <point x="424" y="103"/>
      <point x="480" y="103" type="qcurve" smooth="yes"/>
      <point x="528" y="103"/>
      <point x="580" y="128" type="qcurve"/>
      <point x="580" y="0" type="line"/>
      <point x="552" y="-11"/>
      <point x="502" y="-17" type="qcurve"/>
      <point x="444" y="-117" type="line"/>
      <point x="538" y="-123"/>
      <point x="630" y="-226"/>
      <point x="630" y="-297" type="qcurve" smooth="yes"/>
      <point x="630" y="-347"/>
      <point x="581" y="-442"/>
      <point x="486" y="-504"/>
    </contour>
  </outline>
</glyph>
<glyph name="tcaron" format="2">
  <advance width="675"/>
  <unicode hex="0165"/>
  <outline>
    <contour>
      <point x="572" y="1104" type="line"/>
      <point x="478" y="1104" type="line"/>
      <point x="599" y="1477" type="line"/>
      <point x="795" y="1477" type="line"/>
    </contour>
    <contour>
      <point x="448" y="-20" type="qcurve" smooth="yes"/>
      <point x="202" y="-20"/>
      <point x="202" y="265" type="qcurve" smooth="yes"/>
      <point x="202" y="873" type="line"/>
      <point x="45" y="873" type="line"/>
      <point x="45" y="999" type="line"/>
      <point x="202" y="999" type="line"/>
      <point x="202" y="1224" type="line"/>
      <point x="351" y="1364" type="line"/>
      <point x="351" y="999" type="line"/>
      <point x="607" y="999" type="line"/>
      <point x="607" y="873" type="line"/>
      <point x="351" y="873" type="line"/>
      <point x="351" y="256" type="line" smooth="yes"/>
      <point x="351" y="110"/>
      <point x="460" y="110" type="qcurve" smooth="yes"/>
      <point x="539" y="110"/>
      <point x="579" y="128" type="qcurve"/>
      <point x="580" y="128" type="line"/>
      <point x="580" y="0" type="line"/>
      <point x="573" y="-4"/>
      <point x="501" y="-20"/>
    </contour>
  </outline>
</glyph>
<glyph name="florin" format="2">
  <advance width="1046"/>
  <unicode hex="0192"/>
  <outline>
    <contour>
      <point x="114" y="-457" type="qcurve"/>
      <point x="114" y="-322" type="line"/>
      <point x="293" y="-322"/>
      <point x="452" y="-169"/>
      <point x="452" y="-5" type="qcurve" smooth="yes"/>
      <point x="452" y="867" type="line"/>
      <point x="274" y="867" type="line"/>
      <point x="274" y="999" type="line"/>
      <point x="452" y="999" type="line"/>
      <point x="452" y="1160" type="line" smooth="yes"/>
      <point x="452" y="1248"/>
      <point x="526" y="1378"/>
      <point x="648" y="1450"/>
      <point x="719" y="1450" type="qcurve" smooth="yes"/>
      <point x="770" y="1450"/>
      <point x="872" y="1412"/>
      <point x="916" y="1374" type="qcurve"/>
      <point x="829" y="1271" type="line"/>
      <point x="802" y="1294"/>
      <point x="743" y="1315"/>
      <point x="719" y="1315" type="qcurve" smooth="yes"/>
      <point x="665" y="1315"/>
      <point x="587" y="1238"/>
      <point x="587" y="1160" type="qcurve" smooth="yes"/>
      <point x="587" y="999" type="line"/>
      <point x="892" y="999" type="line"/>
      <point x="892" y="867" type="line"/>
      <point x="587" y="867" type="line"/>
      <point x="587" y="-5" type="line" smooth="yes"/>
      <point x="587" y="-154"/>
      <point x="469" y="-356"/>
      <point x="256" y="-457"/>
    </contour>
  </outline>
</glyph>
<glyph name="oogonek" format="2">
  <advance width="1119"/>
  <unicode hex="01EB"/>
  <outline>
    <contour>
      <point x="549" y="-451" type="qcurve" smooth="yes"/>
      <point x="462" y="-451"/>
      <point x="343" y="-341"/>
      <point x="343" y="-246" type="qcurve" smooth="yes"/>
      <point x="343" y="-100"/>
      <point x="511" y="-18" type="qcurve"/>
      <point x="311" y="6"/>
      <point x="86" y="300"/>
      <point x="86" y="496" type="qcurve" smooth="yes"/>
      <point x="86" y="634"/>
      <point x="201" y="870"/>
      <point x="313" y="943" type="qcurve" smooth="yes"/>
      <point x="420" y="1012"/>
      <point x="558" y="1012" type="qcurve" smooth="yes"/>
      <point x="704" y="1012"/>
      <point x="917" y="868"/>
      <point x="1033" y="633"/>
      <point x="1033" y="496" type="qcurve" smooth="yes"/>
      <point x="1033" y="363"/>
      <point x="934" y="151"/>
      <point x="763" y="12"/>
      <point x="653" y="-11" type="qcurve"/>
      <point x="453" y="-99"/>
      <point x="453" y="-229" type="qcurve" smooth="yes"/>
      <point x="453" y="-282"/>
      <point x="504" y="-337"/>
      <point x="540" y="-337" type="qcurve" smooth="yes"/>
      <point x="618" y="-337"/>
      <point x="662" y="-273" type="qcurve"/>
      <point x="755" y="-338" type="line"/>
      <point x="716" y="-394"/>
      <point x="617" y="-451"/>
    </contour>
    <contour>
      <point x="558" y="112" type="qcurve" smooth="yes"/>
      <point x="666" y="112"/>
      <point x="801" y="216"/>
      <point x="865" y="390"/>
      <point x="865" y="496" type="qcurve" smooth="yes"/>
      <point x="865" y="599"/>
      <point x="804" y="774"/>
      <point x="669" y="879"/>
      <point x="558" y="879" type="qcurve" smooth="yes"/>
      <point x="451" y="879"/>
      <point x="316" y="775"/>
      <point x="253" y="601"/>
      <point x="253" y="496" type="qcurve" smooth="yes"/>
      <point x="253" y="392"/>
      <point x="315" y="217"/>
      <point x="450" y="112"/>
    </contour>
  </outline>
</glyph>
<glyph name="oopen" format="2">
  <advance width="970"/>
  <unicode hex="0254"/>
  <outline>
    <contour>
      <point x="452" y="-20" type="qcurve" smooth="yes"/>
      <point x="313" y="-20"/>
      <point x="114" y="120"/>
      <point x="62" y="241" type="qcurve"/>
      <point x="204" y="301" type="line"/>
      <point x="228" y="212"/>
      <point x="361" y="107"/>
      <point x="452" y="107" type="qcurve" smooth="yes"/>
      <point x="549" y="107"/>
      <point x="612" y="165" type="qcurve" smooth="yes"/>
      <point x="677" y="226"/>
      <point x="731" y="403"/>
      <point x="731" y="498" type="qcurve" smooth="yes"/>
      <point x="731" y="657"/>
      <point x="668" y="764" type="qcurve" smooth="yes"/>
      <point x="596" y="888"/>
      <point x="452" y="888" type="qcurve" smooth="yes"/>
      <point x="361" y="888"/>
      <point x="228" y="783"/>
      <point x="204" y="694" type="qcurve"/>
      <point x="74" y="750" type="line"/>
      <point x="118" y="876"/>
      <point x="312" y="1016"/>
      <point x="450" y="1016" type="qcurve" smooth="yes"/>
      <point x="558" y="1016"/>
      <point x="721" y="933"/>
      <point x="830" y="789"/>
      <point x="884" y="602"/>
      <point x="884" y="498" type="qcurve" smooth="yes"/>
      <point x="884" y="364"/>
      <point x="791" y="127"/>
      <point x="690" y="51" type="qcurve"/>
      <point x="592" y="-20"/>
    </contour>
  </outline>
</glyph>
<glyph name="schwa" format="2">
  <advance width="1029"/>
  <unicode hex="0259"/>
  <outline>
    <contour>
      <point x="507" y="-12" type="qcurve" smooth="yes"/>
      <point x="280" y="-12"/>
      <point x="86" y="282"/>
      <point x="86" y="517" type="qcurve" smooth="yes"/>
      <point x="86" y="526"/>
      <point x="88" y="535" type="qcurve" smooth="yes"/>
      <point x="89" y="544"/>
      <point x="89" y="550" type="qcurve"/>
      <point x="785" y="550" type="line"/>
      <point x="781" y="709"/>
      <point x="620" y="881"/>
      <point x="493" y="881" type="qcurve" smooth="yes"/>
      <point x="397" y="881"/>
      <point x="263" y="831"/>
      <point x="210" y="774" type="qcurve"/>
      <point x="109" y="856" type="line"/>
      <point x="184" y="936"/>
      <point x="366" y="1012"/>
      <point x="489" y="1012" type="qcurve" smooth="yes"/>
      <point x="640" y="1012"/>
      <point x="842" y="874"/>
      <point x="943" y="644"/>
      <point x="943" y="506" type="qcurve" smooth="yes"/>
      <point x="943" y="372"/>
      <point x="849" y="135"/>
      <point x="747" y="59" type="qcurve"/>
      <point x="648" y="-12"/>
    </contour>
    <contour>
      <point x="507" y="120" type="qcurve" smooth="yes"/>
      <point x="597" y="120"/>
      <point x="719" y="202"/>
      <point x="782" y="340"/>
      <point x="785" y="426" type="qcurve"/>
      <point x="227" y="426" type="line"/>
      <point x="228" y="337"/>
      <point x="289" y="199"/>
      <point x="412" y="120"/>
    </contour>
  </outline>
</glyph>
<glyph name="colontriangularhalfmod" format="2">
  <advance width="553"/>
  <unicode hex="02D1"/>
  <outline>
    <contour>
      <point x="297" y="265" type="line"/>
      <point x="66" y="628" type="line"/>
      <point x="469" y="666" type="line"/>
    </contour>
  </outline>
</glyph>
<glyph name="gravecmb" format="2">
  <unicode hex="0300"/>
  <anchor x="-147" y="999" name="_t.ringcmb_1"/>
  <outline>
    <contour>
      <point x="-67" y="1122" type="line"/>
      <point x="-219" y="1122" type="line"/>
      <point x="-477" y="1413" type="line"/>
      <point x="-285" y="1413" type="line"/>
    </contour>
  </outline>
</glyph>
<glyph name="tildecmb" format="2">
  <unicode hex="0303"/>
  <anchor x="-428" y="1002" name="_t.ringcmb_1"/>
  <outline>
    <contour>
      <point x="-307" y="1149" type="qcurve" smooth="yes"/>
      <point x="-355" y="1149"/>
      <point x="-428" y="1196"/>
      <point x="-469" y="1243" type="qcurve" smooth="yes"/>
      <point x="-499" y="1276"/>
      <point x="-540" y="1306"/>
      <point x="-562" y="1306" type="qcurve" smooth="yes"/>
      <point x="-600" y="1306"/>
      <point x="-631" y="1228"/>
      <point x="-631" y="1169" type="qcurve"/>
      <point x="-731" y="1169" type="line"/>
      <point x="-731" y="1278"/>
      <point x="-647" y="1419"/>
      <point x="-562" y="1419" type="qcurve" smooth="yes"/>
      <point x="-506" y="1419"/>
      <point x="-430" y="1367"/>
      <point x="-393" y="1322" type="qcurve" smooth="yes"/>
      <point x="-366" y="1290"/>
      <point x="-327" y="1260"/>
      <point x="-305" y="1260" type="qcurve" smooth="yes"/>
      <point x="-234" y="1260"/>
      <point x="-234" y="1413" type="qcurve"/>
      <point x="-128" y="1413" type="line"/>
      <point x="-128" y="1282"/>
      <point x="-223" y="1149"/>
    </contour>
  </outline>
</glyph>
<glyph name="macroncmb" format="2">
  <unicode hex="0304"/>
  <anchor x="-432" y="999" name="_t.ringcmb_1"/>
  <outline>
    <contour>
      <point x="-160" y="1183" type="line"/>
      <point x="-701" y="1183" type="line"/>
      <point x="-701" y="1308" type="line"/>
      <point x="-160" y="1308" type="line"/>
    </contour>
  </outline>
</glyph>
<glyph name="brevecmb" format="2">
  <unicode hex="0306"/>
  <anchor x="-416" y="999" name="_t.ringcmb_1"/>
  <outline>
    <contour>
      <point x="-416" y="1143" type="qcurve" smooth="yes"/>
      <point x="-503" y="1143"/>
      <point x="-642" y="1203"/>
      <point x="-723" y="1323"/>
      <point x="-723" y="1413" type="qcurve"/>
      <point x="-587" y="1413" type="line"/>
      <point x="-587" y="1341"/>
      <point x="-485" y="1257"/>
      <point x="-416" y="1257" type="qcurve" smooth="yes"/>
      <point x="-346" y="1257"/>
      <point x="-246" y="1342"/>
      <point x="-246" y="1413" type="qcurve"/>
      <point x="-110" y="1413" type="line"/>
      <point x="-110" y="1324"/>
      <point x="-189" y="1204"/>
      <point x="-327" y="1143"/>
    </contour>
  </outline>
</glyph>
<glyph name="uni0326" format="2">
  <unicode hex="0326"/>
  <anchor x="-172" y="0" name="_b.uni0326"/>
  <anchor x="-172" y="0" name="_b.uni0326_2"/>
  <anchor x="-233" y="-446" name="b.uni0326_2"/>
  <outline>
    <contour>
      <point x="-292" y="-446" type="line"/>
      <point x="-399" y="-446" type="line"/>
      <point x="-276" y="-111" type="line"/>
      <point x="-64" y="-111" type="line"/>
    </contour>
  </outline>
</glyph>
<glyph name="cedillacmb" format="2">
  <unicode hex="0327"/>
  <anchor x="-284" y="0" name="_b.uni0326"/>
  <anchor x="-284" y="0" name="_b.uni0326_2"/>
  <anchor x="-303" y="-500" name="b.uni0326_2"/>
  <outline>
    <contour>
      <point x="-312" y="-504" type="qcurve" smooth="yes"/>
      <point x="-377" y="-504"/>
      <point x="-473" y="-432"/>
      <point x="-494" y="-380" type="qcurve"/>
      <point x="-395" y="-329" type="line"/>
      <point x="-389" y="-358"/>
      <point x="-341" y="-401"/>
      <point x="-306" y="-401" type="qcurve" smooth="yes"/>
      <point x="-260" y="-401"/>
      <point x="-208" y="-343"/>
      <point x="-208" y="-305" type="qcurve" smooth="yes"/>
      <point x="-208" y="-273"/>
      <point x="-248" y="-216"/>
      <point x="-330" y="-180"/>
      <point x="-394" y="-180" type="qcurve" smooth="yes"/>
      <point x="-436" y="-180" type="line"/>
      <point x="-337" y="0" type="line"/>
      <point x="-218" y="0" type="line"/>
      <point x="-286" y="-117" type="line"/>
      <point x="-192" y="-123"/>
      <point x="-100" y="-226"/>
      <point x="-100" y="-297" type="qcurve" smooth="yes"/>
      <point x="-100" y="-347"/>
      <point x="-149" y="-442"/>
      <point x="-244" y="-504"/>
    </contour>
  </outline>
</glyph>
<glyph name="afii10051" format="2">
  <advance width="1631"/>
  <unicode hex="0402"/>
  <outline>
    <contour>
      <point x="1140" y="-17" type="qcurve" smooth="yes"/>
      <point x="1042" y="-17"/>
      <point x="876" y="46"/>
      <point x="819" y="110" type="qcurve"/>
      <point x="922" y="215" type="line"/>
      <point x="995" y="127"/>
      <point x="1135" y="127" type="qcurve" smooth="yes"/>
      <point x="1237" y="127"/>
      <point x="1366" y="315"/>
      <point x="1366" y="455" type="qcurve" smooth="yes"/>
      <point x="1366" y="597"/>
      <point x="1300" y="766"/>
      <point x="1231" y="807" type="qcurve" smooth="yes"/>
      <point x="1157" y="851"/>
      <point x="1030" y="851" type="qcurve" smooth="yes"/>
      <point x="922" y="851"/>
      <point x="747" y="768"/>
      <point x="697" y="704" type="qcurve"/>
      <point x="697" y="0" type="line"/>
      <point x="538" y="0" type="line"/>
      <point x="538" y="1284" type="line"/>
      <point x="60" y="1284" type="line"/>
      <point x="60" y="1413" type="line"/>
      <point x="1174" y="1413" type="line"/>
      <point x="1174" y="1284" type="line"/>
      <point x="697" y="1284" type="line"/>
      <point x="697" y="876" type="line"/>
      <point x="842" y="1001"/>
      <point x="1030" y="1001" type="qcurve" smooth="yes"/>
      <point x="1525" y="1001"/>
      <point x="1525" y="460" type="qcurve" smooth="yes"/>
      <point x="1525" y="328"/>
      <point x="1429" y="112"/>
      <point x="1256" y="-17"/>
    </contour>
  </outline>
</glyph>
<glyph name="afii10057" format="2">
  <advance width="1119"/>
  <unicode hex="0408"/>
  <outline>
    <contour>
      <point x="500" y="-20" type="qcurve" smooth="yes"/>
      <point x="370" y="-20"/>
      <point x="184" y="93"/>
      <point x="80" y="280"/>
      <point x="72" y="396" type="qcurve"/>
      <point x="227" y="418" type="line"/>
      <point x="232" y="340"/>
      <point x="292" y="205"/>
      <point x="409" y="120"/>
      <point x="500" y="120" type="qcurve" smooth="yes"/>
      <point x="605" y="120"/>
      <point x="724" y="208"/>
      <point x="772" y="372"/>
      <point x="772" y="486" type="qcurve" smooth="yes"/>
      <point x="772" y="1278" type="line"/>
      <point x="240" y="1278" type="line"/>
      <point x="240" y="1413" type="line"/>
      <point x="931" y="1413" type="line"/>
      <point x="931" y="497" type="line" smooth="yes"/>
      <point x="931" y="-20"/>
    </contour>
  </outline>
</glyph>
<glyph name="afii10058" format="2">
  <advance width="2019"/>
  <unicode hex="0409"/>
  <outline>
    <contour>
      <point x="224" y="-20" type="qcurve" smooth="yes"/>
      <point x="184" y="-20"/>
      <point x="92" y="1"/>
      <point x="55" y="23" type="qcurve"/>
      <point x="118" y="168" type="line"/>
      <point x="154" y="155"/>
      <point x="200" y="144"/>
      <point x="224" y="144" type="qcurve" smooth="yes"/>
      <point x="288" y="144"/>
      <point x="327" y="262" type="qcurve"/>
      <point x="395" y="480"/>
      <point x="395" y="881" type="qcurve" smooth="yes"/>
      <point x="395" y="1413" type="line"/>
      <point x="1240" y="1413" type="line"/>
      <point x="1240" y="776" type="line"/>
      <point x="1479" y="776" type="line" smooth="yes"/>
      <point x="1689" y="776"/>
      <point x="1930" y="573"/>
      <point x="1930" y="391" type="qcurve" smooth="yes"/>
      <point x="1930" y="265"/>
      <point x="1816" y="91"/>
      <point x="1612" y="0"/>
      <point x="1479" y="0" type="qcurve" smooth="yes"/>
      <point x="1083" y="0" type="line"/>
      <point x="1083" y="1278" type="line"/>
      <point x="552" y="1278" type="line"/>
      <point x="552" y="882" type="line" smooth="yes"/>
      <point x="552" y="653"/>
      <point x="517" y="280"/>
      <point x="372" y="-20"/>
    </contour>
    <contour>
      <point x="1479" y="141" type="line" smooth="yes"/>
      <point x="1622" y="141"/>
      <point x="1776" y="273"/>
      <point x="1776" y="391" type="qcurve" smooth="yes"/>
      <point x="1776" y="516"/>
      <point x="1615" y="635"/>
      <point x="1479" y="635" type="qcurve" smooth="yes"/>
      <point x="1240" y="635" type="line"/>
      <point x="1240" y="141" type="line"/>
    </contour>
  </outline>
</glyph>
<glyph name="afii10061" format="2">
  <advance width="1266"/>
  <unicode hex="040C"/>
  <outline>
    <contour>
      <point x="611" y="1538" type="line"/>
      <point x="493" y="1538" type="line"/>
      <point x="707" y="1826" type="line"/>
      <point x="879" y="1826" type="line"/>
    </contour>
    <contour>
      <point x="1195" y="0" type="line"/>
      <point x="1006" y="0" type="line"/>
      <point x="804" y="563" type="line"/>
      <point x="795" y="591"/>
      <point x="743" y="656"/>
      <point x="663" y="705"/>
      <point x="614" y="705" type="qcurve" smooth="yes"/>
      <point x="369" y="705" type="line"/>
      <point x="369" y="0" type="line"/>
      <point x="212" y="0" type="line"/>
      <point x="212" y="1413" type="line"/>
      <point x="369" y="1413" type="line"/>
      <point x="369" y="839" type="line"/>
      <point x="537" y="839" type="line"/>
      <point x="918" y="1413" type="line"/>
      <point x="1119" y="1413" type="line"/>
      <point x="708" y="816" type="line"/>
      <point x="769" y="816"/>
      <point x="871" y="757"/>
      <point x="940" y="678"/>
      <point x="953" y="643" type="qcurve" smooth="yes"/>
    </contour>
  </outline>
</glyph>
<glyph name="afii10062" format="2">
  <advance width="1115"/>
  <unicode hex="040E"/>
  <outline>
    <contour>
      <point x="559" y="1556" type="qcurve" smooth="yes"/>
      <point x="477" y="1556"/>
      <point x="339" y="1616"/>
      <point x="256" y="1736"/>
      <point x="256" y="1826" type="qcurve"/>
      <point x="379" y="1826" type="line"/>
      <point x="379" y="1752"/>
      <point x="487" y="1662"/>
      <point x="559" y="1662" type="qcurve" smooth="yes"/>
      <point x="632" y="1662"/>
      <point x="738" y="1754"/>
      <point x="738" y="1826" type="qcurve"/>
      <point x="861" y="1826" type="line"/>
      <point x="861" y="1738"/>
      <point x="779" y="1618"/>
      <point x="642" y="1556"/>
    </contour>
    <contour>
      <point x="431" y="0" type="line"/>
      <point x="262" y="0" type="line"/>
      <point x="459" y="457" type="line"/>
      <point x="63" y="1413" type="line"/>
      <point x="236" y="1413" type="line"/>
      <point x="542" y="624" type="line"/>
      <point x="875" y="1413" type="line"/>
      <point x="1052" y="1413" type="line"/>
    </contour>
  </outline>
</glyph>
<glyph name="afii10145" format="2">
  <advance width="1453"/>
  <unicode hex="040F"/>
  <outline>
    <contour>
      <point x="805" y="-307" type="line"/>
      <point x="648" y="-307" type="line"/>
      <point x="648" y="0" type="line"/>
      <point x="212" y="0" type="line"/>
      <point x="212" y="1413" type="line"/>
      <point x="369" y="1413" type="line"/>
      <point x="369" y="137" type="line"/>
      <point x="1084" y="137" type="line"/>
      <point x="1084" y="1413" type="line"/>
      <point x="1241" y="1413" type="line"/>
      <point x="1241" y="0" type="line"/>
      <point x="805" y="0" type="line"/>
    </contour>
  </outline>
</glyph>
<glyph name="Acyrillic" format="2">
  <advance width="1304"/>
  <unicode hex="0410"/>
  <outline>
    <contour>
      <point x="1241" y="0" type="line"/>
      <point x="1072" y="0" type="line"/>
      <point x="961" y="307" type="line"/>
      <point x="345" y="307" type="line"/>
      <point x="235" y="0" type="line"/>
      <point x="63" y="0" type="line"/>
      <point x="592" y="1413" type="line"/>
      <point x="714" y="1413" type="line"/>
    </contour>
    <contour>
      <point x="911" y="452" type="line"/>
      <point x="654" y="1181" type="line"/>
      <point x="395" y="452" type="line"/>
    </contour>
  </outline>
</glyph>
<glyph name="afii10018" format="2">
  <advance width="1244"/>
  <unicode hex="0411"/>
  <outline>
    <contour>
      <point x="676" y="0" type="qcurve" smooth="yes"/>
      <point x="212" y="0" type="line"/>
      <point x="212" y="1413" type="line"/>
      <point x="958" y="1413" type="line"/>
      <point x="958" y="1270" type="line"/>
      <point x="369" y="1270" type="line"/>
      <point x="369" y="793" type="line"/>
      <point x="701" y="793" type="line" smooth="yes"/>
      <point x="898" y="793"/>
      <point x="1127" y="586"/>
      <point x="1127" y="388" type="qcurve" smooth="yes"/>
      <point x="1127" y="265"/>
      <point x="1010" y="91"/>
      <point x="806" y="0"/>
    </contour>
    <contour>
      <point x="680" y="147" type="line" smooth="yes"/>
      <point x="757" y="147"/>
      <point x="887" y="210"/>
      <point x="967" y="324"/>
      <point x="967" y="401" type="qcurve" smooth="yes"/>
      <point x="967" y="481"/>
      <point x="887" y="591"/>
      <point x="757" y="648"/>
      <point x="683" y="648" type="qcurve" smooth="yes"/>
      <point x="369" y="648" type="line"/>
      <point x="369" y="147" type="line"/>
    </contour>
  </outline>
</glyph>
<glyph name="afii10021" format="2">
  <advance width="1462"/>
  <unicode hex="0414"/>
  <outline>
    <contour>
      <point x="1402" y="-253" type="line"/>
      <point x="1245" y="-253" type="line"/>
      <point x="1245" y="0" type="line"/>
      <point x="217" y="0" type="line"/>
      <point x="217" y="-253" type="line"/>
      <point x="60" y="-253" type="line"/>
      <point x="60" y="130" type="line"/>
      <point x="183" y="130" type="line"/>
      <point x="662" y="1413" type="line"/>
      <point x="799" y="1413" type="line"/>
      <point x="1278" y="130" type="line"/>
      <point x="1402" y="130" type="line"/>
    </contour>
    <contour>
      <point x="1116" y="130" type="line"/>
      <point x="732" y="1203" type="line"/>
      <point x="346" y="130" type="line"/>
    </contour>
  </outline>
</glyph>
<glyph name="afii10024" format="2">
  <advance width="1954"/>
  <unicode hex="0416"/>
  <outline>
    <contour>
      <point x="1882" y="0" type="line"/>
      <point x="1692" y="0" type="line"/>
      <point x="1492" y="563" type="line" smooth="yes"/>
      <point x="1472" y="620"/>
      <point x="1373" y="705"/>
      <point x="1300" y="705" type="qcurve" smooth="yes"/>
      <point x="1056" y="705" type="line"/>
      <point x="1056" y="0" type="line"/>
      <point x="898" y="0" type="line"/>
      <point x="898" y="705" type="line"/>
      <point x="653" y="705" type="line" smooth="yes"/>
      <point x="579" y="705"/>
      <point x="483" y="623"/>
      <point x="463" y="563" type="qcurve"/>
      <point x="261" y="0" type="line"/>
      <point x="72" y="0" type="line"/>
      <point x="315" y="643" type="line" smooth="yes"/>
      <point x="328" y="678"/>
      <point x="395" y="758"/>
      <point x="496" y="816"/>
      <point x="559" y="816" type="qcurve"/>
      <point x="149" y="1413" type="line"/>
      <point x="348" y="1413" type="line"/>
      <point x="731" y="839" type="line"/>
      <point x="898" y="839" type="line"/>
      <point x="898" y="1413" type="line"/>
      <point x="1056" y="1413" type="line"/>
      <point x="1056" y="839" type="line"/>
      <point x="1223" y="839" type="line"/>
      <point x="1604" y="1413" type="line"/>
      <point x="1805" y="1413" type="line"/>
      <point x="1395" y="816" type="line"/>
      <point x="1456" y="816"/>
      <point x="1558" y="757"/>
      <point x="1626" y="678"/>
      <point x="1639" y="643" type="qcurve" smooth="yes"/>
    </contour>
  </outline>
</glyph>
<glyph name="afii10026" format="2">
  <advance width="1418"/>
  <unicode hex="0418"/>
  <outline>
    <contour>
      <point x="1206" y="0" type="line"/>
      <point x="1048" y="0" type="line"/>
      <point x="1048" y="1247" type="line"/>
      <point x="444" y="0" type="line"/>
      <point x="212" y="0" type="line"/>
      <point x="212" y="1413" type="line"/>
      <point x="369" y="1413" type="line"/>
      <point x="369" y="168" type="line"/>
      <point x="977" y="1413" type="line"/>
      <point x="1206" y="1413" type="line"/>
    </contour>
  </outline>
</glyph>
<glyph name="afii10027" format="2">
  <advance width="1453"/>
  <unicode hex="0419"/>
  <outline>
    <contour>
      <point x="754" y="1556" type="qcurve" smooth="yes"/>
      <point x="672" y="1556"/>
      <point x="534" y="1617"/>
      <point x="452" y="1737"/>
      <point x="452" y="1826" type="qcurve"/>
      <point x="575" y="1826" type="line"/>
      <point x="575" y="1752"/>
      <point x="684" y="1662"/>
      <point x="754" y="1662" type="qcurve" smooth="yes"/>
      <point x="832" y="1662"/>
      <point x="934" y="1758"/>
      <point x="934" y="1826" type="qcurve"/>
      <point x="1058" y="1826" type="line"/>
      <point x="1058" y="1740"/>
      <point x="977" y="1619"/>
      <point x="839" y="1556"/>
    </contour>
    <contour>
      <point x="1241" y="0" type="line"/>
      <point x="1084" y="0" type="line"/>
      <point x="1084" y="1081" type="line" smooth="yes"/>
      <point x="1084" y="1157"/>
      <point x="1094" y="1223" type="qcurve"/>
      <point x="1091" y="1222" type="line"/>
      <point x="410" y="0" type="line"/>
      <point x="212" y="0" type="line"/>
      <point x="212" y="1413" type="line"/>
      <point x="369" y="1413" type="line"/>
      <point x="369" y="336" type="line" smooth="yes"/>
      <point x="369" y="287"/>
      <point x="359" y="189" type="qcurve"/>
      <point x="362" y="190" type="line"/>
      <point x="1043" y="1413" type="line"/>
      <point x="1241" y="1413" type="line"/>
    </contour>
  </outline>
</glyph>
<glyph name="afii10033" format="2">
  <advance width="1453"/>
  <unicode hex="041F"/>
  <outline>
    <contour>
      <point x="1241" y="0" type="line"/>
      <point x="1084" y="0" type="line"/>
      <point x="1084" y="1278" type="line"/>
      <point x="369" y="1278" type="line"/>
      <point x="369" y="0" type="line"/>
      <point x="212" y="0" type="line"/>
      <point x="212" y="1413" type="line"/>
      <point x="1241" y="1413" type="line"/>
    </contour>
  </outline>
</glyph>
<glyph name="afii10034" format="2">
  <advance width="1148"/>
  <unicode hex="0420"/>
  <outline>
    <contour>
      <point x="370" y="0" type="line"/>
      <point x="212" y="0" type="line"/>
      <point x="212" y="1413" type="line"/>
      <point x="608" y="1413" type="line" smooth="yes"/>
      <point x="743" y="1413"/>
      <point x="947" y="1322"/>
      <point x="1060" y="1147"/>
      <point x="1060" y="1023" type="qcurve" smooth="yes"/>
      <point x="1060" y="897"/>
      <point x="947" y="725"/>
      <point x="744" y="637"/>
      <point x="608" y="637" type="qcurve" smooth="yes"/>
      <point x="370" y="637" type="line"/>
    </contour>
    <contour>
      <point x="608" y="779" type="line" smooth="yes"/>
      <point x="744" y="779"/>
      <point x="905" y="897"/>
      <point x="905" y="1023" type="qcurve" smooth="yes"/>
      <point x="905" y="1141"/>
      <point x="750" y="1273"/>
      <point x="608" y="1273" type="qcurve" smooth="yes"/>
      <point x="370" y="1273" type="line"/>
      <point x="370" y="779" type="line"/>
    </contour>
  </outline>
</glyph>
<glyph name="afii10037" format="2">
  <advance width="1115"/>
  <unicode hex="0423"/>
  <outline>
    <contour>
      <point x="431" y="0" type="line"/>
      <point x="262" y="0" type="line"/>
      <point x="459" y="457" type="line"/>
      <point x="63" y="1413" type="line"/>
      <point x="236" y="1413" type="line"/>
      <point x="542" y="624" type="line"/>
      <point x="875" y="1413" type="line"/>
      <point x="1052" y="1413" type="line"/>
    </contour>
  </outline>
</glyph>
<glyph name="afii10042" format="2">
  <advance width="1745"/>
  <unicode hex="0428"/>
  <outline>
    <contour>
      <point x="1533" y="0" type="line"/>
      <point x="212" y="0" type="line"/>
      <point x="212" y="1413" type="line"/>
      <point x="369" y="1413" type="line"/>
      <point x="369" y="137" type="line"/>
      <point x="791" y="137" type="line"/>
      <point x="791" y="1413" type="line"/>
      <point x="949" y="1413" type="line"/>
      <point x="949" y="137" type="line"/>
      <point x="1376" y="137" type="line"/>
      <point x="1376" y="1413" type="line"/>
      <point x="1533" y="1413" type="line"/>
    </contour>
  </outline>
</glyph>
<glyph name="afii10044" format="2">
  <advance width="1369"/>
  <unicode hex="042A"/>
  <outline>
    <contour>
      <point x="829" y="0" type="qcurve" smooth="yes"/>
      <point x="433" y="0" type="line"/>
      <point x="433" y="1285" type="line"/>
      <point x="60" y="1285" type="line"/>
      <point x="60" y="1413" type="line"/>
      <point x="590" y="1413" type="line"/>
      <point x="590" y="776" type="line"/>
      <point x="829" y="776" type="line" smooth="yes"/>
      <point x="1039" y="776"/>
      <point x="1280" y="573"/>
      <point x="1280" y="391" type="qcurve" smooth="yes"/>
      <point x="1280" y="265"/>
      <point x="1166" y="91"/>
      <point x="962" y="0"/>
    </contour>
    <contour>
      <point x="829" y="141" type="line" smooth="yes"/>
      <point x="972" y="141"/>
      <point x="1126" y="273"/>
      <point x="1126" y="391" type="qcurve" smooth="yes"/>
      <point x="1126" y="516"/>
      <point x="965" y="635"/>
      <point x="829" y="635" type="qcurve" smooth="yes"/>
      <point x="590" y="635" type="line"/>
      <point x="590" y="141" type="line"/>
    </contour>
  </outline>
</glyph>
<glyph name="afii10066" format="2">
  <advance width="1126"/>
  <unicode hex="0431"/>
  <outline>
    <contour>
      <point x="579" y="-20" type="qcurve" smooth="yes"/>
      <point x="440" y="-20"/>
      <point x="239" y="113"/>
      <point x="130" y="338"/>
      <point x="130" y="475" type="qcurve" smooth="yes"/>
      <point x="130" y="810" type="line" smooth="yes"/>
      <point x="130" y="1121"/>
      <point x="349" y="1246" type="qcurve"/>
      <point x="554" y="1358"/>
      <point x="817" y="1434" type="qcurve"/>
      <point x="817" y="1289" type="line"/>
      <point x="602" y="1212"/>
      <point x="546" y="1189" type="qcurve" smooth="yes"/>
      <point x="469" y="1159"/>
      <point x="419" y="1126" type="qcurve"/>
      <point x="328" y="1069"/>
      <point x="267" y="915"/>
      <point x="267" y="781" type="qcurve"/>
      <point x="319" y="856"/>
      <point x="498" y="959"/>
      <point x="614" y="959" type="qcurve" smooth="yes"/>
      <point x="752" y="959"/>
      <point x="942" y="826"/>
      <point x="1040" y="605"/>
      <point x="1040" y="473" type="qcurve" smooth="yes"/>
      <point x="1040" y="329"/>
      <point x="917" y="107"/>
      <point x="708" y="-20"/>
    </contour>
    <contour>
      <point x="579" y="104" type="qcurve" smooth="yes"/>
      <point x="682" y="104"/>
      <point x="813" y="202"/>
      <point x="876" y="369"/>
      <point x="876" y="470" type="qcurve" smooth="yes"/>
      <point x="876" y="567"/>
      <point x="816" y="732"/>
      <point x="686" y="833"/>
      <point x="579" y="833" type="qcurve" smooth="yes"/>
      <point x="476" y="833"/>
      <point x="346" y="733"/>
      <point x="283" y="567"/>
      <point x="283" y="470" type="qcurve" smooth="yes"/>
      <point x="283" y="370"/>
      <point x="343" y="204"/>
      <point x="474" y="104"/>
    </contour>
  </outline>
</glyph>
<glyph name="afii10070" format="2">
  <advance width="1038"/>
  <unicode hex="0435"/>
  <outline>
    <contour>
      <point x="540" y="-12" type="qcurve" smooth="yes"/>
      <point x="395" y="-12"/>
      <point x="192" y="124"/>
      <point x="91" y="355"/>
      <point x="91" y="494" type="qcurve" smooth="yes"/>
      <point x="91" y="632"/>
      <point x="191" y="869"/>
      <point x="385" y="1012"/>
      <point x="523" y="1012" type="qcurve" smooth="yes"/>
      <point x="750" y="1012"/>
      <point x="949" y="718"/>
      <point x="949" y="487" type="qcurve"/>
      <point x="944" y="449" type="line"/>
      <point x="248" y="449" type="line"/>
      <point x="248" y="441" type="line" smooth="yes"/>
      <point x="248" y="354"/>
      <point x="280" y="284" type="qcurve" smooth="yes"/>
      <point x="313" y="209"/>
      <point x="445" y="120"/>
      <point x="538" y="120" type="qcurve" smooth="yes"/>
      <point x="633" y="120"/>
      <point x="765" y="166"/>
      <point x="821" y="224" type="qcurve"/>
      <point x="923" y="142" type="line"/>
      <point x="841" y="60"/>
      <point x="662" y="-12"/>
    </contour>
    <contour>
      <point x="806" y="571" type="line"/>
      <point x="806" y="577" type="line" smooth="yes"/>
      <point x="806" y="714"/>
      <point x="663" y="879"/>
      <point x="523" y="879" type="qcurve" smooth="yes"/>
      <point x="436" y="879"/>
      <point x="315" y="799"/>
      <point x="253" y="658"/>
      <point x="248" y="571" type="qcurve"/>
    </contour>
  </outline>
</glyph>
<glyph name="afii10075" format="2">
  <advance width="1142"/>
  <unicode hex="0439"/>
  <outline>
    <contour>
      <point x="559" y="1143" type="qcurve" smooth="yes"/>
      <point x="477" y="1143"/>
      <point x="339" y="1203"/>
      <point x="256" y="1323"/>
      <point x="256" y="1413" type="qcurve"/>
      <point x="379" y="1413" type="line"/>
      <point x="379" y="1340"/>
      <point x="487" y="1248"/>
      <point x="559" y="1248" type="qcurve" smooth="yes"/>
      <point x="632" y="1248"/>
      <point x="738" y="1340"/>
      <point x="738" y="1413" type="qcurve"/>
      <point x="861" y="1413" type="line"/>
      <point x="861" y="1325"/>
      <point x="779" y="1205"/>
      <point x="642" y="1143"/>
    </contour>
    <contour>
      <point x="513" y="-23" type="qcurve" smooth="yes"/>
      <point x="392" y="-23"/>
      <point x="240" y="91"/>
      <point x="168" y="286"/>
      <point x="168" y="405" type="qcurve" smooth="yes"/>
      <point x="168" y="999" type="line"/>
      <point x="318" y="999" type="line"/>
      <point x="318" y="403" type="line" smooth="yes"/>
      <point x="318" y="277"/>
      <point x="411" y="106"/>
      <point x="525" y="106" type="qcurve" smooth="yes"/>
      <point x="612" y="106"/>
      <point x="748" y="202"/>
      <point x="826" y="349"/>
      <point x="826" y="427" type="qcurve" smooth="yes"/>
      <point x="826" y="999" type="line"/>
      <point x="974" y="999" type="line"/>
      <point x="974" y="0" type="line"/>
      <point x="826" y="0" type="line"/>
      <point x="826" y="168" type="line"/>
      <point x="804" y="124"/>
      <point x="715" y="37"/>
      <point x="589" y="-23"/>
    </contour>
  </outline>
</glyph>
<glyph name="afii10076" format="2">
  <advance width="963"/>
  <unicode hex="043A"/>
  <outline>
    <contour>
      <point x="914" y="0" type="line"/>
      <point x="740" y="0" type="line"/>
      <point x="617" y="359" type="line"/>
      <point x="592" y="436"/>
      <point x="515" y="502"/>
      <point x="455" y="502" type="qcurve" smooth="yes"/>
      <point x="319" y="502" type="line"/>
      <point x="319" y="0" type="line"/>
      <point x="168" y="0" type="line"/>
      <point x="168" y="1413" type="line"/>
      <point x="319" y="1413" type="line"/>
      <point x="319" y="628" type="line"/>
      <point x="446" y="628" type="line"/>
      <point x="668" y="999" type="line"/>
      <point x="851" y="999" type="line"/>
      <point x="596" y="596" type="line"/>
      <point x="645" y="596"/>
      <point x="725" y="500"/>
      <point x="751" y="435" type="qcurve"/>
    </contour>
  </outline>
</glyph>
<glyph name="afii10077" format="2">
  <advance width="945"/>
  <unicode hex="043B"/>
  <outline>
    <contour>
      <point x="911" y="0" type="line"/>
      <point x="748" y="0" type="line"/>
      <point x="472" y="805" type="line"/>
      <point x="195" y="0" type="line"/>
      <point x="34" y="0" type="line"/>
      <point x="406" y="999" type="line"/>
      <point x="539" y="999" type="line"/>
    </contour>
  </outline>
</glyph>
<glyph name="afii10078" format="2">
  <advance width="1393"/>
  <unicode hex="043C"/>
  <outline>
    <contour>
      <point x="1225" y="0" type="line"/>
      <point x="1077" y="0" type="line"/>
      <point x="1077" y="809" type="line"/>
      <point x="755" y="0" type="line"/>
      <point x="639" y="0" type="line"/>
      <point x="316" y="807" type="line"/>
      <point x="316" y="0" type="line"/>
      <point x="168" y="0" type="line"/>
      <point x="168" y="999" type="line"/>
      <point x="377" y="999" type="line"/>
      <point x="698" y="184" type="line"/>
      <point x="1016" y="998" type="line"/>
      <point x="1225" y="998" type="line"/>
    </contour>
  </outline>
</glyph>
<glyph name="afii10082" format="2">
  <advance width="1118"/>
  <unicode hex="0440"/>
  <outline>
    <contour>
      <point x="318" y="-438" type="line"/>
      <point x="168" y="-438" type="line"/>
      <point x="168" y="999" type="line"/>
      <point x="318" y="999" type="line"/>
      <point x="318" y="861" type="line"/>
      <point x="423" y="1020"/>
      <point x="629" y="1020" type="qcurve" smooth="yes"/>
      <point x="760" y="1020"/>
      <point x="939" y="879"/>
      <point x="1032" y="643"/>
      <point x="1032" y="500" type="qcurve" smooth="yes"/>
      <point x="1032" y="360"/>
      <point x="941" y="122"/>
      <point x="846" y="49" type="qcurve" smooth="yes"/>
      <point x="754" y="-20"/>
      <point x="629" y="-20" type="qcurve" smooth="yes"/>
      <point x="425" y="-20"/>
      <point x="318" y="138" type="qcurve"/>
    </contour>
    <contour>
      <point x="591" y="111" type="qcurve" smooth="yes"/>
      <point x="690" y="111"/>
      <point x="818" y="218"/>
      <point x="879" y="394"/>
      <point x="879" y="498" type="qcurve" smooth="yes"/>
      <point x="879" y="599"/>
      <point x="820" y="777"/>
      <point x="693" y="888"/>
      <point x="591" y="888" type="qcurve" smooth="yes"/>
      <point x="493" y="888"/>
      <point x="367" y="782"/>
      <point x="307" y="605"/>
      <point x="307" y="498" type="qcurve" smooth="yes"/>
      <point x="307" y="395"/>
      <point x="365" y="219"/>
      <point x="490" y="111"/>
    </contour>
  </outline>
</glyph>
<glyph name="afii10091" format="2">
  <advance width="1724"/>
  <unicode hex="0449"/>
  <outline>
    <contour>
      <point x="1640" y="-307" type="line"/>
      <point x="1525" y="-307" type="line"/>
      <point x="1525" y="-23" type="line"/>
      <point x="1470" y="-23"/>
      <point x="1383" y="88"/>
      <point x="1379" y="172" type="qcurve"/>
      <point x="1345" y="89"/>
      <point x="1203" y="-18"/>
      <point x="1108" y="-18" type="qcurve" smooth="yes"/>
      <point x="1005" y="-18"/>
      <point x="842" y="81"/>
      <point x="800" y="184" type="qcurve"/>
      <point x="754" y="87"/>
      <point x="600" y="-16"/>
      <point x="492" y="-16" type="qcurve" smooth="yes"/>
      <point x="370" y="-16"/>
      <point x="216" y="93"/>
      <point x="144" y="277"/>
      <point x="144" y="391" type="qcurve" smooth="yes"/>
      <point x="144" y="999" type="line"/>
      <point x="295" y="999" type="line"/>
      <point x="295" y="409" type="line" smooth="yes"/>
      <point x="295" y="284"/>
      <point x="391" y="109"/>
      <point x="506" y="109" type="qcurve" smooth="yes"/>
      <point x="589" y="109"/>
      <point x="704" y="202"/>
      <point x="763" y="349"/>
      <point x="763" y="431" type="qcurve" smooth="yes"/>
      <point x="763" y="999" type="line"/>
      <point x="914" y="999" type="line"/>
      <point x="914" y="405" type="line" smooth="yes"/>
      <point x="914" y="279"/>
      <point x="1008" y="109"/>
      <point x="1123" y="109" type="qcurve" smooth="yes"/>
      <point x="1205" y="109"/>
      <point x="1320" y="201"/>
      <point x="1379" y="349"/>
      <point x="1379" y="431" type="qcurve" smooth="yes"/>
      <point x="1379" y="999" type="line"/>
      <point x="1530" y="999" type="line"/>
      <point x="1530" y="213" type="line" smooth="yes"/>
      <point x="1530" y="136"/>
      <point x="1616" y="62"/>
      <point x="1675" y="62" type="qcurve"/>
    </contour>
  </outline>
</glyph>
<glyph name="afii10092" format="2">
  <advance width="1160"/>
  <unicode hex="044A"/>
  <outline>
    <contour>
      <point x="632" y="-20" type="qcurve" smooth="yes"/>
      <point x="524" y="-20"/>
      <point x="341" y="65"/>
      <point x="229" y="241"/>
      <point x="229" y="376" type="qcurve" smooth="yes"/>
      <point x="229" y="876" type="line"/>
      <point x="29" y="876" type="line"/>
      <point x="29" y="999" type="line"/>
      <point x="378" y="999" type="line"/>
      <point x="378" y="669" type="line"/>
      <point x="415" y="724"/>
      <point x="574" y="809"/>
      <point x="675" y="809" type="qcurve" smooth="yes"/>
      <point x="785" y="809"/>
      <point x="966" y="722"/>
      <point x="1074" y="539"/>
      <point x="1074" y="395" type="qcurve" smooth="yes"/>
      <point x="1074" y="255"/>
      <point x="957" y="71"/>
      <point x="756" y="-20"/>
    </contour>
    <contour>
      <point x="650" y="112" type="qcurve" smooth="yes"/>
      <point x="732" y="112"/>
      <point x="847" y="186"/>
      <point x="907" y="314"/>
      <point x="907" y="395" type="qcurve" smooth="yes"/>
      <point x="907" y="472"/>
      <point x="844" y="601"/>
      <point x="726" y="677"/>
      <point x="642" y="677" type="qcurve" smooth="yes"/>
      <point x="522" y="677"/>
      <point x="378" y="532"/>
      <point x="378" y="429" type="qcurve" smooth="yes"/>
      <point x="378" y="362" type="line" smooth="yes"/>
      <point x="378" y="293"/>
      <point x="442" y="180"/>
      <point x="563" y="112"/>
    </contour>
  </outline>
</glyph>
<glyph name="afii10093" format="2">
  <advance width="1415"/>
  <unicode hex="044B"/>
  <outline>
    <contour>
      <point x="595" y="-20" type="qcurve" smooth="yes"/>
      <point x="487" y="-20"/>
      <point x="299" y="65"/>
      <point x="184" y="241"/>
      <point x="184" y="376" type="qcurve" smooth="yes"/>
      <point x="184" y="999" type="line"/>
      <point x="332" y="999" type="line"/>
      <point x="332" y="669" type="line"/>
      <point x="370" y="728"/>
      <point x="504" y="809"/>
      <point x="600" y="809" type="qcurve" smooth="yes"/>
      <point x="683" y="809"/>
      <point x="837" y="760"/>
      <point x="958" y="658"/>
      <point x="1029" y="502"/>
      <point x="1029" y="395" type="qcurve" smooth="yes"/>
      <point x="1029" y="256"/>
      <point x="908" y="72"/>
      <point x="710" y="-20"/>
    </contour>
    <contour>
      <point x="1329" y="0" type="line"/>
      <point x="1182" y="0" type="line"/>
      <point x="1182" y="999" type="line"/>
      <point x="1329" y="999" type="line"/>
    </contour>
    <contour>
      <point x="595" y="112" type="qcurve" smooth="yes"/>
      <point x="679" y="112"/>
      <point x="798" y="188"/>
      <point x="861" y="316"/>
      <point x="861" y="395" type="qcurve" smooth="yes"/>
      <point x="861" y="473"/>
      <point x="797" y="601"/>
      <point x="678" y="677"/>
      <point x="595" y="677" type="qcurve" smooth="yes"/>
      <point x="518" y="677"/>
      <point x="404" y="611"/>
      <point x="338" y="499"/>
      <point x="332" y="429" type="qcurve"/>
      <point x="332" y="362" type="line"/>
      <point x="342" y="250"/>
      <point x="483" y="112"/>
    </contour>
  </outline>
</glyph>
<glyph name="afii10095" format="2">
  <advance width="968"/>
  <unicode hex="044D"/>
  <outline>
    <contour>
      <point x="448" y="-20" type="qcurve" smooth="yes"/>
      <point x="313" y="-20"/>
      <point x="118" y="116"/>
      <point x="72" y="245" type="qcurve"/>
      <point x="202" y="301" type="line"/>
      <point x="225" y="215"/>
      <point x="357" y="107"/>
      <point x="450" y="107" type="qcurve" smooth="yes"/>
      <point x="577" y="107"/>
      <point x="713" y="295"/>
      <point x="727" y="433" type="qcurve"/>
      <point x="325" y="433" type="line"/>
      <point x="325" y="544" type="line"/>
      <point x="728" y="544" type="line"/>
      <point x="723" y="633"/>
      <point x="661" y="789"/>
      <point x="543" y="888"/>
      <point x="450" y="888" type="qcurve" smooth="yes"/>
      <point x="361" y="888"/>
      <point x="227" y="785"/>
      <point x="202" y="694" type="qcurve"/>
      <point x="61" y="754" type="line"/>
      <point x="112" y="874"/>
      <point x="310" y="1016"/>
      <point x="450" y="1016" type="qcurve" smooth="yes"/>
      <point x="558" y="1016"/>
      <point x="720" y="932"/>
      <point x="828" y="788"/>
      <point x="882" y="601"/>
      <point x="882" y="498" type="qcurve" smooth="yes"/>
      <point x="882" y="363"/>
      <point x="788" y="126"/>
      <point x="686" y="51" type="qcurve" smooth="yes"/>
      <point x="588" y="-20"/>
    </contour>
  </outline>
</glyph>
<glyph name="afii10097" format="2">
  <advance width="983"/>
  <unicode hex="044F"/>
  <outline>
    <contour>
      <point x="815" y="0" type="line"/>
      <point x="665" y="0" type="line"/>
      <point x="665" y="457" type="line"/>
      <point x="523" y="457" type="line" smooth="yes"/>
      <point x="464" y="457"/>
      <point x="387" y="391"/>
      <point x="361" y="314" type="qcurve"/>
      <point x="249" y="0" type="line"/>
      <point x="76" y="0" type="line"/>
      <point x="207" y="342" type="line"/>
      <point x="275" y="503"/>
      <point x="360" y="503" type="qcurve"/>
      <point x="245" y="524"/>
      <point x="122" y="637"/>
      <point x="122" y="754" type="qcurve" smooth="yes"/>
      <point x="122" y="818"/>
      <point x="186" y="930"/>
      <point x="328" y="999"/>
      <point x="445" y="999" type="qcurve" smooth="yes"/>
      <point x="815" y="999" type="line"/>
    </contour>
    <contour>
      <point x="665" y="585" type="line"/>
      <point x="665" y="879" type="line"/>
      <point x="440" y="879" type="line" smooth="yes"/>
      <point x="364" y="879"/>
      <point x="290" y="803"/>
      <point x="290" y="745" type="qcurve" smooth="yes"/>
      <point x="290" y="585"/>
      <point x="491" y="585" type="qcurve" smooth="yes"/>
    </contour>
  </outline>
</glyph>
<glyph name="afii10099" format="2">
  <advance width="1123"/>
  <unicode hex="0452"/>
  <outline>
    <contour>
      <point x="612" y="-456" type="qcurve" smooth="yes"/>
      <point x="518" y="-456"/>
      <point x="361" y="-379"/>
      <point x="277" y="-295" type="qcurve"/>
      <point x="372" y="-198" type="line"/>
      <point x="432" y="-263"/>
      <point x="536" y="-325"/>
      <point x="598" y="-325" type="qcurve" smooth="yes"/>
      <point x="693" y="-325"/>
      <point x="743" y="-280" type="qcurve" smooth="yes"/>
      <point x="790" y="-239"/>
      <point x="827" y="-90"/>
      <point x="827" y="30" type="qcurve" smooth="yes"/>
      <point x="827" y="590" type="line" smooth="yes"/>
      <point x="827" y="874"/>
      <point x="616" y="874" type="qcurve" smooth="yes"/>
      <point x="528" y="874"/>
      <point x="394" y="781"/>
      <point x="319" y="629"/>
      <point x="319" y="541" type="qcurve" smooth="yes"/>
      <point x="319" y="0" type="line"/>
      <point x="170" y="0" type="line"/>
      <point x="170" y="1146" type="line"/>
      <point x="-13" y="1146" type="line"/>
      <point x="-13" y="1263" type="line"/>
      <point x="170" y="1263" type="line"/>
      <point x="170" y="1413" type="line"/>
      <point x="319" y="1413" type="line"/>
      <point x="319" y="1263" type="line"/>
      <point x="622" y="1263" type="line"/>
      <point x="622" y="1146" type="line"/>
      <point x="319" y="1146" type="line"/>
      <point x="319" y="837" type="line"/>
      <point x="370" y="920"/>
      <point x="541" y="1015"/>
      <point x="635" y="1015" type="qcurve" smooth="yes"/>
      <point x="755" y="1015"/>
      <point x="906" y="907"/>
      <point x="978" y="725"/>
      <point x="978" y="614" type="qcurve" smooth="yes"/>
      <point x="978" y="37" type="line" smooth="yes"/>
      <point x="978" y="-199"/>
      <point x="801" y="-456"/>
    </contour>
  </outline>
</glyph>
<glyph name="afii10100" format="2">
  <advance width="763"/>
  <unicode hex="0453"/>
  <outline>
    <contour>
      <point x="444" y="1124" type="line"/>
      <point x="326" y="1124" type="line"/>
      <point x="538" y="1413" type="line"/>
      <point x="710" y="1413" type="line"/>
    </contour>
    <contour>
      <point x="315" y="0" type="line"/>
      <point x="165" y="0" type="line"/>
      <point x="165" y="999" type="line"/>
      <point x="736" y="999" type="line"/>
      <point x="736" y="881" type="line"/>
      <point x="315" y="881" type="line"/>
    </contour>
  </outline>
</glyph>
<glyph name="afii10105" format="2">
  <advance width="492"/>
  <unicode hex="0458"/>
  <outline>
    <contour>
      <point x="332" y="1224" type="line"/>
      <point x="156" y="1224" type="line"/>
      <point x="156" y="1421" type="line"/>
      <point x="332" y="1421" type="line"/>
    </contour>
    <contour>
      <point x="66" y="-438" type="qcurve" smooth="yes"/>
      <point x="-5" y="-438"/>
      <point x="-83" y="-408" type="qcurve"/>
      <point x="-86" y="-407" type="line"/>
      <point x="-54" y="-295" type="line"/>
      <point x="-50" y="-296" type="line" smooth="yes"/>
      <point x="10" y="-310"/>
      <point x="61" y="-310" type="qcurve" smooth="yes"/>
      <point x="171" y="-310"/>
      <point x="171" y="-175" type="qcurve" smooth="yes"/>
      <point x="171" y="999" type="line"/>
      <point x="322" y="999" type="line"/>
      <point x="322" y="-154" type="line" smooth="yes"/>
      <point x="322" y="-237"/>
      <point x="295" y="-301" type="qcurve" smooth="yes"/>
      <point x="238" y="-438"/>
    </contour>
  </outline>
</glyph>
<glyph name="afii10194" format="2">
  <advance width="995"/>
  <unicode hex="0463"/>
  <outline>
    <contour>
      <point x="505" y="0" type="qcurve" smooth="yes"/>
      <point x="170" y="0" type="line"/>
      <point x="170" y="1146" type="line"/>
      <point x="-27" y="1146" type="line"/>
      <point x="-27" y="1263" type="line"/>
      <point x="170" y="1263" type="line"/>
      <point x="170" y="1413" type="line"/>
      <point x="318" y="1413" type="line"/>
      <point x="318" y="1263" type="line"/>
      <point x="545" y="1263" type="line"/>
      <point x="545" y="1146" type="line"/>
      <point x="318" y="1146" type="line"/>
      <point x="318" y="665" type="line"/>
      <point x="505" y="665" type="line" smooth="yes"/>
      <point x="634" y="665"/>
      <point x="803" y="606"/>
      <point x="899" y="460"/>
      <point x="899" y="326" type="qcurve" smooth="yes"/>
      <point x="899" y="221"/>
      <point x="796" y="76"/>
      <point x="618" y="0"/>
    </contour>
    <contour>
      <point x="505" y="122" type="line" smooth="yes"/>
      <point x="609" y="122"/>
      <point x="730" y="214"/>
      <point x="730" y="326" type="qcurve" smooth="yes"/>
      <point x="730" y="448"/>
      <point x="610" y="543"/>
      <point x="505" y="543" type="qcurve" smooth="yes"/>
      <point x="318" y="543" type="line"/>
      <point x="318" y="122" type="line"/>
    </contour>
  </outline>
</glyph>
<glyph name="Eiotifiedcyrillic" format="2">
  <advance width="1815"/>
  <unicode hex="0464"/>
  <outline>
    <contour>
      <point x="1154" y="-20" type="qcurve" smooth="yes"/>
      <point x="1003" y="-20"/>
      <point x="773" y="80"/>
      <point x="614" y="259"/>
      <point x="527" y="498"/>
      <point x="519" y="639" type="qcurve"/>
      <point x="369" y="639" type="line"/>
      <point x="369" y="0" type="line"/>
      <point x="212" y="0" type="line"/>
      <point x="212" y="1413" type="line"/>
      <point x="369" y="1413" type="line"/>
      <point x="369" y="774" type="line"/>
      <point x="519" y="774" type="line"/>
      <point x="529" y="956"/>
      <point x="672" y="1256"/>
      <point x="817" y="1349" type="qcurve" smooth="yes"/>
      <point x="955" y="1436"/>
      <point x="1152" y="1436" type="qcurve" smooth="yes"/>
      <point x="1341" y="1436"/>
      <point x="1640" y="1252"/>
      <point x="1724" y="1060" type="qcurve"/>
      <point x="1579" y="1000" type="line"/>
      <point x="1536" y="1149"/>
      <point x="1308" y="1289"/>
      <point x="1150" y="1289" type="qcurve" smooth="yes"/>
      <point x="997" y="1289"/>
      <point x="792" y="1152"/>
      <point x="685" y="920"/>
      <point x="677" y="774" type="qcurve"/>
      <point x="1307" y="774" type="line"/>
      <point x="1307" y="639" type="line"/>
      <point x="678" y="639" type="line"/>
      <point x="687" y="486"/>
      <point x="796" y="256"/>
      <point x="1000" y="126"/>
      <point x="1154" y="126" type="qcurve" smooth="yes"/>
      <point x="1471" y="126"/>
      <point x="1579" y="418" type="qcurve"/>
      <point x="1726" y="358" type="line"/>
      <point x="1643" y="166"/>
      <point x="1342" y="-20"/>
    </contour>
  </outline>
</glyph>
<glyph name="Yuslittlecyrillic" format="2">
  <advance width="1304"/>
  <unicode hex="0466"/>
  <outline>
    <contour>
      <point x="1241" y="0" type="line"/>
      <point x="1072" y="0" type="line"/>
      <point x="858" y="605" type="line"/>
      <point x="730" y="605" type="line"/>
      <point x="730" y="0" type="line"/>
      <point x="575" y="0" type="line"/>
      <point x="575" y="605" type="line"/>
      <point x="449" y="605" type="line"/>
      <point x="235" y="0" type="line"/>
      <point x="63" y="0" type="line"/>
      <point x="592" y="1413" type="line"/>
      <point x="714" y="1413" type="line"/>
    </contour>
    <contour>
      <point x="810" y="739" type="line"/>
      <point x="654" y="1181" type="line"/>
      <point x="497" y="739" type="line"/>
    </contour>
  </outline>
</glyph>
<glyph name="Yuslittleiotifiedcyrillic" format="2">
  <advance width="1690"/>
  <unicode hex="0468"/>
  <outline>
    <contour>
      <point x="1627" y="0" type="line"/>
      <point x="1457" y="0" type="line"/>
      <point x="1244" y="605" type="line"/>
      <point x="1116" y="605" type="line"/>
      <point x="1116" y="0" type="line"/>
      <point x="961" y="0" type="line"/>
      <point x="961" y="605" type="line"/>
      <point x="834" y="605" type="line"/>
      <point x="621" y="0" type="line"/>
      <point x="449" y="0" type="line"/>
      <point x="688" y="639" type="line"/>
      <point x="369" y="639" type="line"/>
      <point x="369" y="0" type="line"/>
      <point x="212" y="0" type="line"/>
      <point x="212" y="1413" type="line"/>
      <point x="369" y="1413" type="line"/>
      <point x="369" y="774" type="line"/>
      <point x="739" y="774" type="line"/>
      <point x="978" y="1413" type="line"/>
      <point x="1100" y="1413" type="line"/>
    </contour>
    <contour>
      <point x="1196" y="739" type="line"/>
      <point x="1040" y="1181" type="line"/>
      <point x="883" y="739" type="line"/>
    </contour>
  </outline>
</glyph>
<glyph name="yusbigiotifiedcyrillic" format="2">
  <advance width="1575"/>
  <unicode hex="046D"/>
  <outline>
    <contour>
      <point x="1512" y="0" type="line"/>
      <point x="1339" y="0" type="line"/>
      <point x="1217" y="359" type="line"/>
      <point x="1190" y="441"/>
      <point x="1113" y="501"/>
      <point x="1019" y="501" type="qcurve"/>
      <point x="1019" y="0" type="line"/>
      <point x="873" y="0" type="line"/>
      <point x="873" y="501" type="line"/>
      <point x="785" y="501"/>
      <point x="704" y="441"/>
      <point x="679" y="359" type="qcurve"/>
      <point x="556" y="0" type="line"/>
      <point x="382" y="0" type="line"/>
      <point x="540" y="419" type="line"/>
      <point x="551" y="458"/>
      <point x="579" y="495" type="qcurve"/>
      <point x="318" y="495" type="line"/>
      <point x="318" y="0" type="line"/>
      <point x="168" y="0" type="line"/>
      <point x="168" y="999" type="line"/>
      <point x="318" y="999" type="line"/>
      <point x="318" y="615" type="line"/>
      <point x="753" y="615" type="line"/>
      <point x="537" y="881" type="line"/>
      <point x="537" y="999" type="line"/>
      <point x="1357" y="999" type="line"/>
      <point x="1357" y="881" type="line"/>
      <point x="1137" y="612" type="line"/>
      <point x="1200" y="612"/>
      <point x="1242" y="585" type="qcurve"/>
      <point x="1316" y="534"/>
      <point x="1349" y="435" type="qcurve"/>
    </contour>
    <contour>
      <point x="945" y="599" type="line"/>
      <point x="1171" y="881" type="line"/>
      <point x="721" y="881" type="line"/>
    </contour>
  </outline>
</glyph>
<glyph name="afii10147" format="2">
  <advance width="1515"/>
  <unicode hex="0472"/>
  <outline>
    <contour>
      <point x="756" y="-20" type="qcurve" smooth="yes"/>
      <point x="548" y="-20"/>
      <point x="406" y="77" type="qcurve"/>
      <point x="257" y="181"/>
      <point x="123" y="514"/>
      <point x="123" y="707" type="qcurve" smooth="yes"/>
      <point x="123" y="900"/>
      <point x="257" y="1233"/>
      <point x="406" y="1337" type="qcurve"/>
      <point x="548" y="1434"/>
      <point x="756" y="1434" type="qcurve" smooth="yes"/>
      <point x="966" y="1434"/>
      <point x="1109" y="1337" type="qcurve"/>
      <point x="1258" y="1233"/>
      <point x="1392" y="901"/>
      <point x="1392" y="707" type="qcurve" smooth="yes"/>
      <point x="1392" y="513"/>
      <point x="1258" y="181"/>
      <point x="1109" y="77" type="qcurve"/>
      <point x="966" y="-20"/>
    </contour>
    <contour>
      <point x="1232" y="779" type="line"/>
      <point x="1222" y="921"/>
      <point x="1114" y="1150"/>
      <point x="911" y="1287"/>
      <point x="756" y="1287" type="qcurve" smooth="yes"/>
      <point x="603" y="1287"/>
      <point x="400" y="1151"/>
      <point x="291" y="922"/>
      <point x="281" y="779" type="qcurve"/>
    </contour>
    <contour>
      <point x="756" y="126" type="qcurve" smooth="yes"/>
      <point x="915" y="126"/>
      <point x="1122" y="272"/>
      <point x="1228" y="516"/>
      <point x="1234" y="667" type="qcurve"/>
      <point x="279" y="667" type="line"/>
      <point x="284" y="520"/>
      <point x="387" y="275"/>
      <point x="496" y="199" type="qcurve" smooth="yes"/>
      <point x="601" y="126"/>
    </contour>
  </outline>
</glyph>
<glyph name="afii10195" format="2">
  <advance width="1119"/>
  <unicode hex="0473"/>
  <outline>
    <contour>
      <point x="559" y="-20" type="qcurve" smooth="yes"/>
      <point x="414" y="-20"/>
      <point x="202" y="123"/>
      <point x="86" y="358"/>
      <point x="86" y="496" type="qcurve" smooth="yes"/>
      <point x="86" y="632"/>
      <point x="202" y="870"/>
      <point x="314" y="943" type="qcurve" smooth="yes"/>
      <point x="422" y="1012"/>
      <point x="559" y="1012" type="qcurve" smooth="yes"/>
      <point x="703" y="1012"/>
      <point x="916" y="869"/>
      <point x="1033" y="635"/>
      <point x="1033" y="496" type="qcurve" smooth="yes"/>
      <point x="1033" y="358"/>
      <point x="917" y="122"/>
      <point x="805" y="49" type="qcurve"/>
      <point x="696" y="-20"/>
    </contour>
    <contour>
      <point x="861" y="570" type="line"/>
      <point x="846" y="708"/>
      <point x="697" y="879"/>
      <point x="559" y="879" type="qcurve" smooth="yes"/>
      <point x="421" y="879"/>
      <point x="270" y="708"/>
      <point x="255" y="570" type="qcurve"/>
    </contour>
    <contour>
      <point x="559" y="112" type="qcurve" smooth="yes"/>
      <point x="706" y="112"/>
      <point x="854" y="305"/>
      <point x="862" y="458" type="qcurve"/>
      <point x="253" y="458" type="line"/>
      <point x="261" y="305"/>
      <point x="411" y="112"/>
    </contour>
  </outline>
</glyph>
<glyph name="afii10148" format="2">
  <advance width="1288"/>
  <unicode hex="0474"/>
  <outline>
    <contour>
      <point x="647" y="0" type="line"/>
      <point x="510" y="0" type="line"/>
      <point x="32" y="1413" type="line"/>
      <point x="198" y="1413" type="line"/>
      <point x="579" y="210" type="line"/>
      <point x="870" y="999" type="line"/>
      <point x="936" y="1181"/>
      <point x="1125" y="1384"/>
      <point x="1261" y="1413" type="qcurve"/>
      <point x="1261" y="1262" type="line"/>
      <point x="1131" y="1201"/>
      <point x="1067" y="1088" type="qcurve" smooth="yes"/>
      <point x="1045" y="1049"/>
      <point x="1019" y="986" type="qcurve"/>
    </contour>
  </outline>
</glyph>
<glyph name="afii10196" format="2">
  <advance width="967"/>
  <unicode hex="0475"/>
  <outline>
    <contour>
      <point x="505" y="0" type="line"/>
      <point x="372" y="0" type="line"/>
      <point x="36" y="999" type="line"/>
      <point x="199" y="999" type="line"/>
      <point x="439" y="196" type="line"/>
      <point x="582" y="595" type="line" smooth="yes"/>
      <point x="657" y="802"/>
      <point x="840" y="997"/>
      <point x="931" y="999" type="qcurve"/>
      <point x="931" y="846" type="line"/>
      <point x="883" y="834"/>
      <point x="794" y="742"/>
      <point x="738" y="600" type="qcurve" smooth="yes"/>
    </contour>
  </outline>
</glyph>
<glyph name="titlocyrilliccmb" format="2">
  <unicode hex="0483"/>
  <outline>
    <contour>
      <point x="-809" y="1547" type="line"/>
      <point x="-932" y="1547" type="line"/>
      <point x="-932" y="1808" type="line"/>
      <point x="-257" y="1808" type="line"/>
      <point x="-257" y="1945" type="line"/>
      <point x="-127" y="1945" type="line"/>
      <point x="-127" y="1700" type="line"/>
      <point x="-809" y="1700" type="line"/>
    </contour>
  </outline>
</glyph>
<glyph name="afii10050" format="2">
  <advance width="1068"/>
  <unicode hex="0490"/>
  <outline>
    <contour>
      <point x="369" y="0" type="line"/>
      <point x="212" y="0" type="line"/>
      <point x="212" y="1413" type="line"/>
      <point x="853" y="1413" type="line"/>
      <point x="853" y="1720" type="line"/>
      <point x="1008" y="1720" type="line"/>
      <point x="1008" y="1278" type="line"/>
      <point x="369" y="1278" type="line"/>
    </contour>
  </outline>
</glyph>
<glyph name="ghestrokecyrillic" format="2">
  <advance width="766"/>
  <unicode hex="0493"/>
  <outline>
    <contour>
      <point x="318" y="0" type="line"/>
      <point x="168" y="0" type="line"/>
      <point x="168" y="999" type="line"/>
      <point x="739" y="999" type="line"/>
      <point x="739" y="881" type="line"/>
      <point x="318" y="881" type="line"/>
    </contour>
  </outline>
</glyph>
<glyph name="Kadescendercyrillic" format="2">
  <advance width="1266"/>
  <unicode hex="049A"/>
  <outline>
    <contour>
      <point x="1268" y="-238" type="line"/>
      <point x="1118" y="-238" type="line"/>
      <point x="1118" y="0" type="line"/>
      <point x="1006" y="0" type="line"/>
      <point x="804" y="563" type="line"/>
      <point x="795" y="591"/>
      <point x="743" y="656"/>
      <point x="663" y="705"/>
      <point x="614" y="705" type="qcurve" smooth="yes"/>
      <point x="369" y="705" type="line"/>
      <point x="369" y="0" type="line"/>
      <point x="212" y="0" type="line"/>
      <point x="212" y="1413" type="line"/>
      <point x="369" y="1413" type="line"/>
      <point x="369" y="839" type="line"/>
      <point x="537" y="839" type="line"/>
      <point x="918" y="1413" type="line"/>
      <point x="1119" y="1413" type="line"/>
      <point x="708" y="816" type="line"/>
      <point x="769" y="816"/>
      <point x="871" y="757"/>
      <point x="940" y="678"/>
      <point x="953" y="643" type="qcurve" smooth="yes"/>
      <point x="1132" y="168" type="line"/>
      <point x="1268" y="168" type="line"/>
    </contour>
  </outline>
</glyph>
<glyph name="Hadescendercyrillic" format="2">
  <advance width="1260"/>
  <unicode hex="04B2"/>
  <outline>
    <contour>
      <point x="1215" y="-238" type="line"/>
      <point x="1065" y="-238" type="line"/>
      <point x="1065" y="0" type="line"/>
      <point x="1001" y="0" type="line"/>
      <point x="627" y="578" type="line"/>
      <point x="261" y="0" type="line"/>
      <point x="72" y="0" type="line"/>
      <point x="539" y="707" type="line"/>
      <point x="74" y="1413" type="line"/>
      <point x="263" y="1413" type="line"/>
      <point x="629" y="826" type="line"/>
      <point x="999" y="1413" type="line"/>
      <point x="1186" y="1413" type="line"/>
      <point x="723" y="707" type="line"/>
      <point x="1078" y="168" type="line"/>
      <point x="1215" y="168" type="line"/>
    </contour>
  </outline>
</glyph>
<glyph name="hadescendercyrillic" format="2">
  <advance width="922"/>
  <unicode hex="04B3"/>
  <outline>
    <contour>
      <point x="908" y="-238" type="line"/>
      <point x="758" y="-238" type="line"/>
      <point x="758" y="0" type="line"/>
      <point x="696" y="0" type="line"/>
      <point x="462" y="378" type="line"/>
      <point x="229" y="0" type="line"/>
      <point x="46" y="0" type="line"/>
      <point x="382" y="504" type="line"/>
      <point x="46" y="999" type="line"/>
      <point x="229" y="999" type="line"/>
      <point x="462" y="627" type="line"/>
      <point x="696" y="999" type="line"/>
      <point x="876" y="999" type="line"/>
      <point x="543" y="504" type="line"/>
      <point x="765" y="168" type="line"/>
      <point x="908" y="168" type="line"/>
    </contour>
  </outline>
</glyph>
<glyph name="Chedescendercyrillic" format="2">
  <advance width="1325"/>
  <unicode hex="04B6"/>
  <outline>
    <contour>
      <point x="1251" y="-238" type="line"/>
      <point x="1101" y="-238" type="line"/>
      <point x="1101" y="0" type="line"/>
      <point x="955" y="0" type="line"/>
      <point x="955" y="537" type="line"/>
      <point x="832" y="411"/>
      <point x="621" y="411" type="qcurve" smooth="yes"/>
      <point x="370" y="411"/>
      <point x="127" y="739"/>
      <point x="127" y="1017" type="qcurve" smooth="yes"/>
      <point x="127" y="1413" type="line"/>
      <point x="286" y="1413" type="line"/>
      <point x="286" y="1011" type="line" smooth="yes"/>
      <point x="286" y="798"/>
      <point x="438" y="562"/>
      <point x="621" y="562" type="qcurve" smooth="yes"/>
      <point x="730" y="562"/>
      <point x="904" y="645"/>
      <point x="955" y="709" type="qcurve"/>
      <point x="955" y="1413" type="line"/>
      <point x="1114" y="1413" type="line"/>
      <point x="1114" y="168" type="line"/>
      <point x="1251" y="168" type="line"/>
    </contour>
  </outline>
</glyph>
<glyph name="chedescendercyrillic" format="2">
  <advance width="1077"/>
  <unicode hex="04B7"/>
  <outline>
    <contour>
      <point x="1045" y="-238" type="line"/>
      <point x="895" y="-238" type="line"/>
      <point x="895" y="0" type="line"/>
      <point x="757" y="0" type="line"/>
      <point x="757" y="433" type="line"/>
      <point x="735" y="390"/>
      <point x="647" y="303"/>
      <point x="520" y="243"/>
      <point x="444" y="243" type="qcurve" smooth="yes"/>
      <point x="322" y="243"/>
      <point x="170" y="358"/>
      <point x="98" y="552"/>
      <point x="98" y="671" type="qcurve" smooth="yes"/>
      <point x="98" y="999" type="line"/>
      <point x="249" y="999" type="line"/>
      <point x="249" y="668" type="line" smooth="yes"/>
      <point x="249" y="542"/>
      <point x="342" y="372"/>
      <point x="456" y="372" type="qcurve" smooth="yes"/>
      <point x="542" y="372"/>
      <point x="678" y="466"/>
      <point x="757" y="614"/>
      <point x="757" y="693" type="qcurve" smooth="yes"/>
      <point x="757" y="999" type="line"/>
      <point x="908" y="999" type="line"/>
      <point x="908" y="168" type="line"/>
      <point x="1045" y="168" type="line"/>
    </contour>
  </outline>
</glyph>
<glyph name="Shhacyrillic" format="2">
  <advance width="1325"/>
  <unicode hex="04BA"/>
  <outline>
    <contour>
      <point x="1198" y="0" type="line"/>
      <point x="1039" y="0" type="line"/>
      <point x="1039" y="402" type="line" smooth="yes"/>
      <point x="1039" y="615"/>
      <point x="887" y="851"/>
      <point x="704" y="851" type="qcurve" smooth="yes"/>
      <point x="595" y="851"/>
      <point x="421" y="768"/>
      <point x="370" y="704" type="qcurve"/>
      <point x="370" y="0" type="line"/>
      <point x="211" y="0" type="line"/>
      <point x="211" y="1413" type="line"/>
      <point x="370" y="1413" type="line"/>
      <point x="370" y="876" type="line"/>
      <point x="493" y="1002"/>
      <point x="704" y="1002" type="qcurve" smooth="yes"/>
      <point x="955" y="1002"/>
      <point x="1198" y="674"/>
      <point x="1198" y="396" type="qcurve" smooth="yes"/>
    </contour>
  </outline>
</glyph>
<glyph name="afii10846" format="2">
  <advance width="1038"/>
  <unicode hex="04D9"/>
  <outline>
    <contour>
      <point x="515" y="-13" type="qcurve" smooth="yes"/>
      <point x="289" y="-13"/>
      <point x="89" y="281"/>
      <point x="89" y="512" type="qcurve"/>
      <point x="92" y="545"/>
      <point x="94" y="550" type="qcurve"/>
      <point x="790" y="550" type="line"/>
      <point x="790" y="558" type="line" smooth="yes"/>
      <point x="790" y="645"/>
      <point x="725" y="790"/>
      <point x="593" y="879"/>
      <point x="500" y="879" type="qcurve" smooth="yes"/>
      <point x="406" y="879"/>
      <point x="273" y="834"/>
      <point x="217" y="775" type="qcurve"/>
      <point x="115" y="857" type="line"/>
      <point x="197" y="939"/>
      <point x="377" y="1011"/>
      <point x="498" y="1011" type="qcurve" smooth="yes"/>
      <point x="644" y="1011"/>
      <point x="846" y="876"/>
      <point x="947" y="645"/>
      <point x="947" y="505" type="qcurve" smooth="yes"/>
      <point x="947" y="367"/>
      <point x="849" y="130"/>
      <point x="653" y="-13"/>
    </contour>
    <contour>
      <point x="515" y="120" type="qcurve" smooth="yes"/>
      <point x="602" y="120"/>
      <point x="723" y="201"/>
      <point x="786" y="341"/>
      <point x="790" y="428" type="qcurve"/>
      <point x="232" y="428" type="line"/>
      <point x="232" y="422" type="line" smooth="yes"/>
      <point x="232" y="285"/>
      <point x="376" y="120"/>
    </contour>
  </outline>
</glyph>
<glyph name="afii00208" format="2">
  <advance width="1511"/>
  <unicode hex="2015"/>
  <outline>
    <contour>
      <point x="1350" y="578" type="line"/>
      <point x="161" y="578" type="line"/>
      <point x="161" y="692" type="line"/>
      <point x="1350" y="692" type="line"/>
    </contour>
  </outline>
</glyph>
<glyph name="quoteright" format="2">
  <advance width="559"/>
  <unicode hex="2019"/>
  <outline>
    <contour>
      <point x="235" y="927" type="line"/>
      <point x="142" y="927" type="line"/>
      <point x="263" y="1413" type="line"/>
      <point x="458" y="1413" type="line"/>
    </contour>
  </outline>
</glyph>
<glyph name="quotedblleft" format="2">
  <advance width="868"/>
  <unicode hex="201C"/>
  <outline>
    <contour>
      <point x="417" y="927" type="line"/>
      <point x="322" y="927" type="line"/>
      <point x="101" y="1413" type="line"/>
      <point x="297" y="1413" type="line"/>
    </contour>
    <contour>
      <point x="725" y="927" type="line"/>
      <point x="632" y="927" type="line"/>
      <point x="410" y="1413" type="line"/>
      <point x="605" y="1413" type="line"/>
    </contour>
  </outline>
</glyph>
<glyph name="quotedblbase" format="2">
  <advance width="877"/>
  <unicode hex="201E"/>
  <outline>
    <contour>
      <point x="238" y="-225" type="line"/>
      <point x="141" y="-225" type="line"/>
      <point x="263" y="264" type="line"/>
      <point x="459" y="264" type="line"/>
    </contour>
    <contour>
      <point x="553" y="-225" type="line"/>
      <point x="456" y="-225" type="line"/>
      <point x="578" y="264" type="line"/>
      <point x="775" y="264" type="line"/>
    </contour>
  </outline>
</glyph>
<glyph name="uni2023" format="2">
  <advance width="797"/>
  <unicode hex="2023"/>
  <outline>
    <contour>
      <point x="236" y="237" type="line"/>
      <point x="236" y="741" type="line"/>
      <point x="682" y="490" type="line"/>
    </contour>
  </outline>
</glyph>
<glyph name="twodotenleader" format="2">
  <advance width="1076"/>
  <unicode hex="2025"/>
  <outline>
    <contour>
      <point x="430" y="0" type="line"/>
      <point x="232" y="0" type="line"/>
      <point x="232" y="194" type="line"/>
      <point x="430" y="194" type="line"/>
    </contour>
    <contour>
      <point x="844" y="0" type="line"/>
      <point x="646" y="0" type="line"/>
      <point x="646" y="194" type="line"/>
      <point x="844" y="194" type="line"/>
    </contour>
  </outline>
</glyph>
<glyph name="guilsinglleft" format="2">
  <advance width="598"/>
  <unicode hex="2039"/>
  <outline>
    <contour>
      <point x="433" y="185" type="line"/>
      <point x="64" y="512" type="line"/>
      <point x="433" y="837" type="line"/>
      <point x="433" y="675" type="line"/>
      <point x="240" y="512" type="line"/>
      <point x="433" y="347" type="line"/>
    </contour>
  </outline>
</glyph>
<glyph name="eightsuperior" format="2">
  <advance width="852"/>
  <unicode hex="2078"/>
  <outline>
    <contour>
      <point x="426" y="466" type="qcurve" smooth="yes"/>
      <point x="335" y="466"/>
      <point x="177" y="526"/>
      <point x="80" y="648"/>
      <point x="80" y="742" type="qcurve" smooth="yes"/>
      <point x="80" y="831"/>
      <point x="178" y="960"/>
      <point x="266" y="995" type="qcurve"/>
      <point x="133" y="1067"/>
      <point x="133" y="1202" type="qcurve" smooth="yes"/>
      <point x="133" y="1280"/>
      <point x="214" y="1390"/>
      <point x="348" y="1448"/>
      <point x="428" y="1448" type="qcurve" smooth="yes"/>
      <point x="503" y="1448"/>
      <point x="637" y="1391"/>
      <point x="720" y="1282"/>
      <point x="720" y="1202" type="qcurve" smooth="yes"/>
      <point x="720" y="1133"/>
      <point x="650" y="1027"/>
      <point x="590" y="995" type="qcurve"/>
      <point x="673" y="962"/>
      <point x="772" y="834"/>
      <point x="772" y="743" type="qcurve" smooth="yes"/>
      <point x="772" y="650"/>
      <point x="678" y="527"/>
      <point x="520" y="466"/>
    </contour>
    <contour>
      <point x="431" y="1032" type="qcurve" smooth="yes"/>
      <point x="503" y="1032"/>
      <point x="609" y="1114"/>
      <point x="609" y="1188" type="qcurve" smooth="yes"/>
      <point x="609" y="1240"/>
      <point x="559" y="1311"/>
      <point x="478" y="1347"/>
      <point x="430" y="1347" type="qcurve" smooth="yes"/>
      <point x="384" y="1347"/>
      <point x="302" y="1312"/>
      <point x="250" y="1245"/>
      <point x="250" y="1196" type="qcurve" smooth="yes"/>
      <point x="250" y="1120"/>
      <point x="351" y="1032"/>
    </contour>
    <contour>
      <point x="426" y="565" type="qcurve" smooth="yes"/>
      <point x="485" y="565"/>
      <point x="590" y="606"/>
      <point x="655" y="690"/>
      <point x="655" y="753" type="qcurve" smooth="yes"/>
      <point x="655" y="815"/>
      <point x="591" y="898"/>
      <point x="487" y="941"/>
      <point x="426" y="941" type="qcurve" smooth="yes"/>
      <point x="362" y="941"/>
      <point x="256" y="897"/>
      <point x="194" y="813"/>
      <point x="194" y="754" type="qcurve" smooth="yes"/>
      <point x="194" y="692"/>
      <point x="259" y="608"/>
      <point x="364" y="565"/>
    </contour>
  </outline>
</glyph>
<glyph name="Euro" format="2">
  <advance width="1277"/>
  <unicode hex="20AC"/>
  <outline>
    <contour>
      <point x="777" y="-20" type="qcurve" smooth="yes"/>
      <point x="640" y="-20"/>
      <point x="438" y="106"/>
      <point x="309" y="328"/>
      <point x="282" y="474" type="qcurve"/>
      <point x="145" y="474" type="line"/>
      <point x="200" y="602" type="line"/>
      <point x="264" y="602" type="line"/>
      <point x="262" y="637"/>
      <point x="262" y="707" type="qcurve" smooth="yes"/>
      <point x="262" y="783"/>
      <point x="267" y="824" type="qcurve"/>
      <point x="145" y="824" type="line"/>
      <point x="200" y="948" type="line"/>
      <point x="284" y="948" type="line"/>
      <point x="313" y="1093"/>
      <point x="441" y="1312"/>
      <point x="640" y="1436"/>
      <point x="775" y="1436" type="qcurve" smooth="yes"/>
      <point x="884" y="1436"/>
      <point x="1073" y="1342"/>
      <point x="1144" y="1244" type="qcurve"/>
      <point x="1038" y="1155" type="line"/>
      <point x="950" y="1295"/>
      <point x="772" y="1295" type="qcurve" smooth="yes"/>
      <point x="638" y="1295"/>
      <point x="460" y="1103"/>
      <point x="423" y="948" type="qcurve"/>
      <point x="949" y="948" type="line"/>
      <point x="894" y="820" type="line"/>
      <point x="402" y="820" type="line"/>
      <point x="398" y="752"/>
      <point x="398" y="715" type="qcurve" smooth="yes"/>
      <point x="398" y="672"/>
      <point x="402" y="600" type="qcurve"/>
      <point x="949" y="600" type="line"/>
      <point x="894" y="471" type="line"/>
      <point x="423" y="471" type="line"/>
      <point x="460" y="314"/>
      <point x="638" y="120"/>
      <point x="777" y="120" type="qcurve" smooth="yes"/>
      <point x="949" y="120"/>
      <point x="1033" y="262" type="qcurve"/>
      <point x="1132" y="154" type="line"/>
      <point x="1064" y="67"/>
      <point x="881" y="-20"/>
    </contour>
  </outline>
</glyph>
<glyph name="uni20B1" format="2">
  <advance width="1345"/>
  <unicode hex="20B1"/>
  <anchor x="654" y="0" name="b.uni0326"/>
  <anchor x="654" y="1413" name="t.ringcmb_1"/>
  <anchor x="0" y="0" name="b.ogonekcmb_2"/>
  <anchor x="0" y="0" name="m.horncmb_3"/>
  <outline>
    <contour>
      <point x="449" y="0" type="line"/>
      <point x="291" y="0" type="line"/>
      <point x="291" y="982" type="line"/>
      <point x="151" y="982" type="line"/>
      <point x="151" y="1074" type="line"/>
      <point x="291" y="1074" type="line"/>
      <point x="291" y="1413" type="line"/>
      <point x="687" y="1413" type="line" smooth="yes"/>
      <point x="874" y="1413"/>
      <point x="1116" y="1237"/>
      <point x="1136" y="1074" type="qcurve"/>
      <point x="1220" y="1074" type="line"/>
      <point x="1220" y="982" type="line"/>
      <point x="1137" y="982" type="line"/>
      <point x="1121" y="812"/>
      <point x="879" y="638"/>
      <point x="687" y="638" type="qcurve" smooth="yes"/>
      <point x="449" y="638" type="line"/>
    </contour>
    <contour>
      <point x="979" y="1074" type="line"/>
      <point x="963" y="1168"/>
      <point x="815" y="1272"/>
      <point x="687" y="1272" type="qcurve" smooth="yes"/>
      <point x="449" y="1272" type="line"/>
      <point x="449" y="1074" type="line"/>
    </contour>
    <contour>
      <point x="687" y="779" type="line" smooth="yes"/>
      <point x="812" y="779"/>
      <point x="966" y="878"/>
      <point x="981" y="982" type="qcurve"/>
      <point x="449" y="982" type="line"/>
      <point x="449" y="779" type="line"/>
    </contour>
  </outline>
</glyph>
<glyph name="uni20B8" format="2">
  <advance width="1424"/>
  <unicode hex="20B8"/>
  <outline>
    <contour>
      <point x="1269" y="1281" type="line"/>
      <point x="155" y="1281" type="line"/>
      <point x="155" y="1411" type="line"/>
      <point x="1269" y="1411" type="line"/>
    </contour>
    <contour>
      <point x="791" y="0" type="line"/>
      <point x="633" y="0" type="line"/>
      <point x="633" y="993" type="line"/>
      <point x="155" y="993" type="line"/>
      <point x="155" y="1122" type="line"/>
      <point x="1269" y="1122" type="line"/>
      <point x="1269" y="993" type="line"/>
      <point x="791" y="993" type="line"/>
    </contour>
  </outline>
</glyph>
<glyph name="afii61352" format="2">
  <advance width="2315"/>
  <unicode hex="2116"/>
  <anchor x="1786" y="315" name="b.uni0326"/>
  <anchor x="1786" y="1169" name="t.ringcmb_1"/>
  <anchor x="1891" y="315" name="b.ogonekcmb_2"/>
  <anchor x="2251" y="1169" name="m.horncmb_3"/>
  <outline>
    <contour>
      <point x="1206" y="0" type="line"/>
      <point x="974" y="0" type="line"/>
      <point x="370" y="1247" type="line"/>
      <point x="370" y="0" type="line"/>
      <point x="212" y="0" type="line"/>
      <point x="212" y="1413" type="line"/>
      <point x="441" y="1413" type="line"/>
      <point x="1049" y="168" type="line"/>
      <point x="1049" y="1413" type="line"/>
      <point x="1206" y="1413" type="line"/>
    </contour>
    <contour>
      <point x="1786" y="298" type="qcurve" smooth="yes"/>
      <point x="1662" y="298"/>
      <point x="1481" y="419"/>
      <point x="1383" y="620"/>
      <point x="1383" y="739" type="qcurve" smooth="yes"/>
      <point x="1383" y="855"/>
      <point x="1480" y="1059"/>
      <point x="1576" y="1122" type="qcurve" smooth="yes"/>
      <point x="1668" y="1181"/>
      <point x="1786" y="1181" type="qcurve" smooth="yes"/>
      <point x="1909" y="1181"/>
      <point x="2091" y="1059"/>
      <point x="2192" y="857"/>
      <point x="2192" y="739" type="qcurve" smooth="yes"/>
      <point x="2192" y="622"/>
      <point x="2092" y="420"/>
      <point x="1996" y="357" type="qcurve"/>
      <point x="1903" y="298"/>
    </contour>
    <contour>
      <point x="1786" y="411" type="qcurve" smooth="yes"/>
      <point x="1921" y="411"/>
      <point x="2049" y="597"/>
      <point x="2049" y="739" type="qcurve" smooth="yes"/>
      <point x="2049" y="881"/>
      <point x="1921" y="1067"/>
      <point x="1786" y="1067" type="qcurve" smooth="yes"/>
      <point x="1695" y="1067"/>
      <point x="1580" y="977"/>
      <point x="1525" y="828"/>
      <point x="1525" y="739" type="qcurve" smooth="yes"/>
      <point x="1525" y="651"/>
      <point x="1578" y="502"/>
      <point x="1693" y="411"/>
    </contour>
    <contour>
      <point x="2134" y="0" type="line"/>
      <point x="1434" y="0" type="line"/>
      <point x="1434" y="127" type="line"/>
      <point x="2134" y="127" type="line"/>
    </contour>
  </outline>
</glyph>
<glyph name="Ohm" format="2">
  <advance width="1678"/>
  <unicode hex="2126"/>
  <outline>
    <contour>
      <point x="1495" y="0" type="line"/>
      <point x="986" y="0" type="line"/>
      <point x="986" y="134" type="line"/>
      <point x="1156" y="190"/>
      <point x="1350" y="521"/>
      <point x="1350" y="745" type="qcurve" smooth="yes"/>
      <point x="1350" y="844"/>
      <point x="1282" y="1029"/>
      <point x="1228" y="1092" type="qcurve"/>
      <point x="1155" y="1173"/>
      <point x="947" y="1273"/>
      <point x="839" y="1273" type="qcurve" smooth="yes"/>
      <point x="729" y="1273"/>
      <point x="524" y="1172"/>
      <point x="452" y="1092" type="qcurve"/>
      <point x="328" y="943"/>
      <point x="328" y="745" type="qcurve" smooth="yes"/>
      <point x="328" y="530"/>
      <point x="525" y="206"/>
      <point x="690" y="134" type="qcurve"/>
      <point x="690" y="0" type="line"/>
      <point x="181" y="0" type="line"/>
      <point x="181" y="132" type="line"/>
      <point x="526" y="132" type="line"/>
      <point x="366" y="225"/>
      <point x="185" y="539"/>
      <point x="185" y="716" type="qcurve" smooth="yes"/>
      <point x="185" y="847"/>
      <point x="276" y="1100"/>
      <point x="357" y="1188" type="qcurve" smooth="yes"/>
      <point x="446" y="1285"/>
      <point x="701" y="1407"/>
      <point x="839" y="1407" type="qcurve" smooth="yes"/>
      <point x="974" y="1407"/>
      <point x="1230" y="1286"/>
      <point x="1322" y="1188" type="qcurve"/>
      <point x="1400" y="1102"/>
      <point x="1493" y="851"/>
      <point x="1493" y="716" type="qcurve" smooth="yes"/>
      <point x="1493" y="526"/>
      <point x="1315" y="217"/>
      <point x="1171" y="134" type="qcurve"/>
      <point x="1495" y="134" type="line"/>
    </contour>
  </outline>
</glyph>
<glyph name="arrowleft" format="2">
  <advance width="2187"/>
  <unicode hex="2190"/>
  <outline>
    <contour>
      <point x="1000" y="137" type="line"/>
      <point x="104" y="639" type="line"/>
      <point x="1000" y="1135" type="line"/>
      <point x="1065" y="1019" type="line"/>
      <point x="431" y="690" type="line"/>
      <point x="2066" y="690" type="line"/>
      <point x="2066" y="580" type="line"/>
      <point x="444" y="580" type="line"/>
      <point x="1065" y="250" type="line"/>
    </contour>
  </outline>
</glyph>
<glyph name="arrowright" format="2">
  <advance width="2187"/>
  <unicode hex="2192"/>
  <outline>
    <contour>
      <point x="1187" y="137" type="line"/>
      <point x="1122" y="250" type="line"/>
      <point x="1743" y="580" type="line"/>
      <point x="121" y="580" type="line"/>
      <point x="121" y="690" type="line"/>
      <point x="1755" y="690" type="line"/>
      <point x="1122" y="1019" type="line"/>
      <point x="1187" y="1135" type="line"/>
      <point x="2084" y="639" type="line"/>
    </contour>
  </outline>
</glyph>
<glyph name="product" format="2">
  <advance width="1335"/>
  <unicode hex="220F"/>
  <outline>
    <contour>
      <point x="1069" y="0" type="line"/>
      <point x="934" y="0" type="line"/>
      <point x="934" y="1279" type="line"/>
      <point x="401" y="1279" type="line"/>
      <point x="401" y="0" type="line"/>
      <point x="267" y="0" type="line"/>
      <point x="267" y="1279" type="line"/>
      <point x="185" y="1279" type="line"/>
      <point x="185" y="1413" type="line"/>
      <point x="1151" y="1413" type="line"/>
      <point x="1151" y="1279" type="line"/>
      <point x="1069" y="1279" type="line"/>
    </contour>
  </outline>
</glyph>
<glyph name="summation" format="2">
  <advance width="1269"/>
  <unicode hex="2211"/>
  <outline>
    <contour>
      <point x="1133" y="0" type="line"/>
      <point x="122" y="0" type="line"/>
      <point x="122" y="64" type="line"/>
      <point x="703" y="707" type="line"/>
      <point x="122" y="1349" type="line"/>
      <point x="122" y="1413" type="line"/>
      <point x="1133" y="1413" type="line"/>
      <point x="1133" y="1279" type="line"/>
      <point x="370" y="1279" type="line"/>
      <point x="897" y="708" type="line"/>
      <point x="370" y="134" type="line"/>
      <point x="1133" y="134" type="line"/>
    </contour>
  </outline>
</glyph>
<glyph name="minus" format="2">
  <advance width="1192"/>
  <unicode hex="2212"/>
  <outline>
    <contour>
      <point x="946" y="571" type="line"/>
      <point x="246" y="571" type="line"/>
      <point x="246" y="685" type="line"/>
      <point x="946" y="685" type="line"/>
    </contour>
  </outline>
</glyph>
<glyph name="radical" format="2">
  <advance width="1212"/>
  <unicode hex="221A"/>
  <outline>
    <contour>
      <point x="510" y="-174" type="line"/>
      <point x="254" y="577" type="line"/>
      <point x="104" y="577" type="line"/>
      <point x="104" y="711" type="line"/>
      <point x="349" y="711" type="line"/>
      <point x="517" y="178" type="line"/>
      <point x="981" y="1416" type="line"/>
      <point x="1107" y="1369" type="line"/>
    </contour>
  </outline>
</glyph>
<glyph name="integral" format="2">
  <advance width="992"/>
  <unicode hex="222B"/>
  <outline>
    <contour>
      <point x="95" y="-457" type="qcurve"/>
      <point x="95" y="-322" type="line"/>
      <point x="273" y="-322"/>
      <point x="438" y="-176"/>
      <point x="438" y="-2" type="qcurve" smooth="yes"/>
      <point x="438" y="1158" type="line" smooth="yes"/>
      <point x="438" y="1246"/>
      <point x="511" y="1377"/>
      <point x="632" y="1450"/>
      <point x="703" y="1450" type="qcurve" smooth="yes"/>
      <point x="753" y="1450"/>
      <point x="857" y="1411"/>
      <point x="905" y="1372" type="qcurve"/>
      <point x="817" y="1267" type="line"/>
      <point x="765" y="1315"/>
      <point x="703" y="1315" type="qcurve" smooth="yes"/>
      <point x="651" y="1315"/>
      <point x="573" y="1237"/>
      <point x="573" y="1160" type="qcurve" smooth="yes"/>
      <point x="573" y="-2" type="line" smooth="yes"/>
      <point x="573" y="-152"/>
      <point x="456" y="-355"/>
      <point x="242" y="-457"/>
    </contour>
  </outline>
</glyph>
<glyph name="approxequal" format="2">
  <advance width="1170"/>
  <unicode hex="2248"/>
  <outline>
    <contour>
      <point x="741" y="734" type="qcurve" smooth="yes"/>
      <point x="701" y="734"/>
      <point x="632" y="761"/>
      <point x="581" y="799"/>
      <point x="546" y="830" type="qcurve" smooth="yes"/>
      <point x="502" y="869"/>
      <point x="445" y="905"/>
      <point x="407" y="905" type="qcurve" smooth="yes"/>
      <point x="355" y="905"/>
      <point x="313" y="827"/>
      <point x="313" y="768" type="qcurve" smooth="yes"/>
      <point x="313" y="760" type="line"/>
      <point x="214" y="760" type="line"/>
      <point x="214" y="870"/>
      <point x="312" y="1004"/>
      <point x="405" y="1004" type="qcurve" smooth="yes"/>
      <point x="456" y="1004"/>
      <point x="535" y="975"/>
      <point x="590" y="935"/>
      <point x="627" y="902" type="qcurve" smooth="yes"/>
      <point x="663" y="869"/>
      <point x="714" y="836"/>
      <point x="747" y="836" type="qcurve" smooth="yes"/>
      <point x="803" y="836"/>
      <point x="850" y="921"/>
      <point x="850" y="1000" type="qcurve"/>
      <point x="956" y="1000" type="line"/>
      <point x="956" y="873"/>
      <point x="845" y="734"/>
    </contour>
    <contour>
      <point x="743" y="389" type="qcurve" smooth="yes"/>
      <point x="685" y="389"/>
      <point x="600" y="440"/>
      <point x="547" y="486" type="qcurve" smooth="yes"/>
      <point x="503" y="525"/>
      <point x="445" y="562"/>
      <point x="407" y="562" type="qcurve" smooth="yes"/>
      <point x="313" y="562"/>
      <point x="313" y="423" type="qcurve" smooth="yes"/>
      <point x="313" y="415" type="line"/>
      <point x="214" y="415" type="line"/>
      <point x="214" y="525"/>
      <point x="312" y="661"/>
      <point x="405" y="661" type="qcurve" smooth="yes"/>
      <point x="456" y="661"/>
      <point x="535" y="632"/>
      <point x="590" y="592"/>
      <point x="625" y="560" type="qcurve" smooth="yes"/>
      <point x="663" y="526"/>
      <point x="714" y="492"/>
      <point x="747" y="492" type="qcurve" smooth="yes"/>
      <point x="803" y="492"/>
      <point x="850" y="576"/>
      <point x="850" y="655" type="qcurve"/>
      <point x="956" y="655" type="line"/>
      <point x="956" y="529"/>
      <point x="845" y="389"/>
    </contour>
  </outline>
</glyph>
<glyph name="lessequal" format="2">
  <advance width="1320"/>
  <unicode hex="2264"/>
  <outline>
    <contour>
      <point x="1081" y="119" type="line"/>
      <point x="183" y="622" type="line"/>
      <point x="1081" y="1122" type="line"/>
      <point x="1149" y="1004" type="line"/>
      <point x="433" y="622" type="line"/>
      <point x="1149" y="237" type="line"/>
    </contour>
    <contour>
      <point x="1168" y="-114" type="line"/>
      <point x="114" y="-114" type="line"/>
      <point x="114" y="0" type="line"/>
      <point x="1168" y="0" type="line"/>
    </contour>
  </outline>
</glyph>
<glyph name="greaterequal" format="2">
  <advance width="1320"/>
  <unicode hex="2265"/>
  <outline>
    <contour>
      <point x="239" y="119" type="line"/>
      <point x="171" y="237" type="line"/>
      <point x="887" y="622" type="line"/>
      <point x="171" y="1004" type="line"/>
      <point x="239" y="1122" type="line"/>
      <point x="1137" y="622" type="line"/>
    </contour>
    <contour>
      <point x="1205" y="-114" type="line"/>
      <point x="152" y="-114" type="line"/>
      <point x="152" y="0" type="line"/>
      <point x="1205" y="0" type="line"/>
    </contour>
  </outline>
</glyph>
<glyph name="lozenge" format="2">
  <advance width="1127"/>
  <unicode hex="25CA"/>
  <outline>
    <contour>
      <point x="645" y="0" type="line"/>
      <point x="483" y="0" type="line"/>
      <point x="116" y="717" type="line"/>
      <point x="483" y="1434" type="line"/>
      <point x="645" y="1434" type="line"/>
      <point x="1012" y="717" type="line"/>
    </contour>
    <contour>
      <point x="564" y="150" type="line"/>
      <point x="849" y="717" type="line"/>
      <point x="564" y="1283" type="line"/>
      <point x="279" y="717" type="line"/>
    </contour>
  </outline>
</glyph>
<glyph name="fi" format="2">
  <advance width="996"/>
  <unicode hex="FB01"/>
  <outline>
    <contour>
      <point x="179" y="877" type="line"/>
      <point x="32" y="877" type="line"/>
      <point x="32" y="999" type="line"/>
      <point x="181" y="999" type="line"/>
      <point x="181" y="1191"/>
      <point x="350" y="1434"/>
      <point x="548" y="1434" type="qcurve" smooth="yes"/>
      <point x="644" y="1434"/>
      <point x="771" y="1371"/>
      <point x="833" y="1311" type="qcurve"/>
      <point x="752" y="1210" type="line"/>
      <point x="700" y="1264"/>
      <point x="602" y="1307"/>
      <point x="545" y="1307" type="qcurve" smooth="yes"/>
      <point x="420" y="1307"/>
      <point x="319" y="1139"/>
      <point x="319" y="999" type="qcurve"/>
      <point x="831" y="999" type="line"/>
      <point x="831" y="0" type="line"/>
      <point x="696" y="0" type="line"/>
      <point x="696" y="877" type="line"/>
      <point x="319" y="877" type="line"/>
      <point x="319" y="0" type="line"/>
      <point x="179" y="0" type="line"/>
    </contour>
  </outline>
</glyph>
<glyph name="c.001" format="2">
  <advance width="974"/>
  <outline>
    <contour>
      <point x="526" y="-20" type="qcurve" smooth="yes"/>
      <point x="418" y="-20"/>
      <point x="255" y="64"/>
      <point x="147" y="209"/>
      <point x="92" y="396"/>
      <point x="92" y="498" type="qcurve" smooth="yes"/>
      <point x="92" y="630"/>
      <point x="187" y="869"/>
      <point x="289" y="948" type="qcurve"/>
      <point x="386" y="1020"/>
      <point x="524" y="1020" type="qcurve" smooth="yes"/>
      <point x="663" y="1020"/>
      <point x="861" y="874"/>
      <point x="913" y="754" type="qcurve"/>
      <point x="772" y="694" type="line"/>
      <point x="748" y="788"/>
      <point x="613" y="894"/>
      <point x="524" y="894" type="qcurve" smooth="yes"/>
      <point x="427" y="894"/>
      <point x="364" y="836" type="qcurve"/>
      <point x="299" y="773"/>
      <point x="245" y="592"/>
      <point x="245" y="498" type="qcurve" smooth="yes"/>
      <point x="245" y="337"/>
      <point x="307" y="230" type="qcurve" smooth="yes"/>
      <point x="380" y="106"/>
      <point x="524" y="106" type="qcurve" smooth="yes"/>
      <point x="617" y="106"/>
      <point x="748" y="212"/>
      <point x="772" y="301" type="qcurve"/>
      <point x="902" y="245" type="line"/>
      <point x="859" y="124"/>
      <point x="667" y="-20"/>
    </contour>
  </outline>
</glyph>
<glyph name="g.ss01" format="2">
  <advance width="1128"/>
  <outline>
    <contour>
      <point x="536" y="-433" type="qcurve" smooth="yes"/>
      <point x="410" y="-433"/>
      <point x="207" y="-336"/>
      <point x="142" y="-236" type="qcurve"/>
      <point x="258" y="-150" type="line"/>
      <point x="307" y="-230"/>
      <point x="450" y="-304"/>
      <point x="535" y="-304" type="qcurve" smooth="yes"/>
      <point x="627" y="-304"/>
      <point x="748" y="-226"/>
      <point x="808" y="-89"/>
      <point x="808" y="0" type="qcurve" smooth="yes"/>
      <point x="808" y="140" type="line"/>
      <point x="699" y="-16"/>
      <point x="503" y="-16" type="qcurve" smooth="yes"/>
      <point x="370" y="-16"/>
      <point x="188" y="124"/>
      <point x="95" y="359"/>
      <point x="95" y="502" type="qcurve" smooth="yes"/>
      <point x="95" y="640"/>
      <point x="186" y="877"/>
      <point x="282" y="951" type="qcurve"/>
      <point x="374" y="1020"/>
      <point x="502" y="1020" type="qcurve" smooth="yes"/>
      <point x="604" y="1020"/>
      <point x="759" y="936"/>
      <point x="808" y="863" type="qcurve"/>
      <point x="808" y="999" type="line"/>
      <point x="959" y="999" type="line"/>
      <point x="957" y="0" type="line"/>
      <point x="957" y="-132"/>
      <point x="860" y="-326"/>
      <point x="673" y="-433"/>
    </contour>
    <contour>
      <point x="536" y="116" type="qcurve" smooth="yes"/>
      <point x="634" y="116"/>
      <point x="760" y="221"/>
      <point x="820" y="396"/>
      <point x="820" y="502" type="qcurve" smooth="yes"/>
      <point x="820" y="601"/>
      <point x="764" y="777"/>
      <point x="639" y="887"/>
      <point x="536" y="887" type="qcurve" smooth="yes"/>
      <point x="437" y="887"/>
      <point x="310" y="781"/>
      <point x="248" y="606"/>
      <point x="248" y="502" type="qcurve" smooth="yes"/>
      <point x="248" y="400"/>
      <point x="307" y="224"/>
      <point x="435" y="116"/>
    </contour>
  </outline>
</glyph>
<glyph name="uni041B.loclRUS" format="2">
  <advance width="1458"/>
  <outline>
    <contour>
      <point x="231" y="-20" type="qcurve" smooth="yes"/>
      <point x="191" y="-20"/>
      <point x="100" y="2"/>
      <point x="63" y="23" type="qcurve"/>
      <point x="126" y="171" type="line"/>
      <point x="173" y="139"/>
      <point x="214" y="139" type="qcurve" smooth="yes"/>
      <point x="301" y="139"/>
      <point x="384" y="421"/>
      <point x="403" y="810"/>
      <point x="403" y="1108" type="qcurve" smooth="yes"/>
      <point x="403" y="1413" type="line"/>
      <point x="1246" y="1413" type="line"/>
      <point x="1246" y="0" type="line"/>
      <point x="1091" y="0" type="line"/>
      <point x="1091" y="1278" type="line"/>
      <point x="560" y="1278" type="line"/>
      <point x="560" y="1096" type="line" smooth="yes"/>
      <point x="560" y="745"/>
      <point x="527" y="299"/>
      <point x="383" y="-20"/>
    </contour>
  </outline>
</glyph>
<glyph name="uni0436.loclRUS" format="2">
  <advance width="1433"/>
  <outline>
    <contour>
      <point x="1387" y="0" type="line"/>
      <point x="1213" y="0" type="line"/>
      <point x="1090" y="359" type="line"/>
      <point x="1065" y="436"/>
      <point x="988" y="502"/>
      <point x="928" y="502" type="qcurve" smooth="yes"/>
      <point x="792" y="502" type="line"/>
      <point x="792" y="0" type="line"/>
      <point x="641" y="0" type="line"/>
      <point x="641" y="502" type="line"/>
      <point x="505" y="502" type="line" smooth="yes"/>
      <point x="445" y="502"/>
      <point x="368" y="436"/>
      <point x="343" y="359" type="qcurve"/>
      <point x="220" y="0" type="line"/>
      <point x="46" y="0" type="line"/>
      <point x="209" y="435" type="line"/>
      <point x="234" y="499"/>
      <point x="315" y="596"/>
      <point x="364" y="596" type="qcurve"/>
      <point x="109" y="999" type="line"/>
      <point x="292" y="999" type="line"/>
      <point x="514" y="628" type="line"/>
      <point x="641" y="628" type="line"/>
      <point x="641" y="999" type="line"/>
      <point x="792" y="999" type="line"/>
      <point x="792" y="628" type="line"/>
      <point x="920" y="628" type="line"/>
      <point x="1142" y="999" type="line"/>
      <point x="1324" y="999" type="line"/>
      <point x="1069" y="596" type="line"/>
      <point x="1119" y="596"/>
      <point x="1199" y="499"/>
      <point x="1224" y="435" type="qcurve"/>
    </contour>
  </outline>
</glyph>
<glyph name="uni0437.loclSRB" format="2">
  <advance width="942"/>
  <outline>
    <contour>
      <point x="440" y="-20" type="qcurve" smooth="yes"/>
      <point x="310" y="-20"/>
      <point x="133" y="71"/>
      <point x="48" y="167" type="qcurve"/>
      <point x="161" y="256" type="line"/>
      <point x="253" y="104"/>
      <point x="427" y="104" type="qcurve" smooth="yes"/>
      <point x="696" y="104"/>
      <point x="696" y="280" type="qcurve" smooth="yes"/>
      <point x="696" y="368"/>
      <point x="571" y="435"/>
      <point x="454" y="435" type="qcurve" smooth="yes"/>
      <point x="327" y="435" type="line"/>
      <point x="327" y="565" type="line"/>
      <point x="480" y="565" type="line"/>
      <point x="565" y="582"/>
      <point x="646" y="663"/>
      <point x="646" y="733" type="qcurve" smooth="yes"/>
      <point x="646" y="806"/>
      <point x="554" y="887"/>
      <point x="440" y="887" type="qcurve" smooth="yes"/>
      <point x="357" y="887"/>
      <point x="216" y="805"/>
      <point x="179" y="736" type="qcurve"/>
      <point x="60" y="802" type="line"/>
      <point x="121" y="908"/>
      <point x="324" y="1012"/>
      <point x="440" y="1012" type="qcurve" smooth="yes"/>
      <point x="794" y="1012"/>
      <point x="796" y="736" type="qcurve"/>
      <point x="796" y="538"/>
      <point x="622" y="507" type="qcurve"/>
      <point x="730" y="494"/>
      <point x="848" y="364"/>
      <point x="848" y="280" type="qcurve" smooth="yes"/>
      <point x="848" y="178"/>
      <point x="748" y="45"/>
      <point x="565" y="-20"/>
    </contour>
  </outline>
</glyph>
<glyph name="uni043B.loclRUS" format="2">
  <advance width="1069"/>
  <outline>
    <contour>
      <point x="193" y="-22" type="qcurve" smooth="yes"/>
      <point x="149" y="-22"/>
      <point x="52" y="5"/>
      <point x="19" y="22" type="qcurve"/>
      <point x="66" y="131" type="line"/>
      <point x="72" y="128" type="line"/>
      <point x="122" y="100"/>
      <point x="149" y="100" type="qcurve" smooth="yes"/>
      <point x="199" y="100"/>
      <point x="267" y="313"/>
      <point x="267" y="619" type="qcurve" smooth="yes"/>
      <point x="267" y="999" type="line"/>
      <point x="900" y="999" type="line"/>
      <point x="900" y="0" type="line"/>
      <point x="751" y="0" type="line"/>
      <point x="751" y="881" type="line"/>
      <point x="415" y="881" type="line"/>
      <point x="415" y="594" type="line" smooth="yes"/>
      <point x="415" y="340"/>
      <point x="352" y="68"/>
      <point x="256" y="-22"/>
    </contour>
  </outline>
</glyph>
<glyph name="uni0446.loclSRB" format="2">
  <advance width="1176"/>
  <outline>
    <contour>
      <point x="1116" y="-307" type="line"/>
      <point x="968" y="-307" type="line"/>
      <point x="968" y="0" type="line"/>
      <point x="168" y="0" type="line"/>
      <point x="168" y="999" type="line"/>
      <point x="318" y="999" type="line"/>
      <point x="318" y="120" type="line"/>
      <point x="826" y="120" type="line"/>
      <point x="826" y="999" type="line"/>
      <point x="974" y="999" type="line"/>
      <point x="974" y="120" type="line"/>
      <point x="1116" y="120" type="line"/>
    </contour>
  </outline>
</glyph>
<glyph name="uni044A.loclRUS" format="2">
  <advance width="1117"/>
  <outline>
    <contour>
      <point x="627" y="0" type="qcurve" smooth="yes"/>
      <point x="292" y="0" type="line"/>
      <point x="292" y="881" type="line"/>
      <point x="27" y="881" type="line"/>
      <point x="27" y="999" type="line"/>
      <point x="440" y="999" type="line"/>
      <point x="440" y="665" type="line"/>
      <point x="627" y="665" type="line" smooth="yes"/>
      <point x="756" y="665"/>
      <point x="924" y="606"/>
      <point x="971" y="535" type="qcurve" smooth="yes"/>
      <point x="1020" y="460"/>
      <point x="1020" y="326" type="qcurve" smooth="yes"/>
      <point x="1020" y="221"/>
      <point x="917" y="76"/>
      <point x="739" y="0"/>
    </contour>
    <contour>
      <point x="627" y="122" type="line" smooth="yes"/>
      <point x="729" y="122"/>
      <point x="850" y="214"/>
      <point x="850" y="326" type="qcurve" smooth="yes"/>
      <point x="850" y="448"/>
      <point x="731" y="543"/>
      <point x="627" y="543" type="qcurve" smooth="yes"/>
      <point x="440" y="543" type="line"/>
      <point x="440" y="122" type="line"/>
    </contour>
  </outline>
</glyph>
<glyph name="uni044E.loclRUS" format="2">
  <advance width="1443"/>
  <outline>
    <contour>
      <point x="884" y="-20" type="qcurve" smooth="yes"/>
      <point x="740" y="-20"/>
      <point x="528" y="121"/>
      <point x="412" y="352"/>
      <point x="410" y="491" type="qcurve"/>
      <point x="318" y="491" type="line"/>
      <point x="318" y="0" type="line"/>
      <point x="168" y="0" type="line"/>
      <point x="168" y="999" type="line"/>
      <point x="318" y="999" type="line"/>
      <point x="318" y="609" type="line"/>
      <point x="419" y="609" type="line"/>
      <point x="442" y="721"/>
      <point x="565" y="903"/>
      <point x="758" y="1012"/>
      <point x="884" y="1012" type="qcurve" smooth="yes"/>
      <point x="1029" y="1012"/>
      <point x="1241" y="868"/>
      <point x="1357" y="633"/>
      <point x="1357" y="496" type="qcurve" smooth="yes"/>
      <point x="1357" y="351"/>
      <point x="1235" y="117"/>
      <point x="1022" y="-20"/>
    </contour>
    <contour>
      <point x="884" y="112" type="qcurve" smooth="yes"/>
      <point x="992" y="112"/>
      <point x="1127" y="216"/>
      <point x="1191" y="390"/>
      <point x="1191" y="496" type="qcurve" smooth="yes"/>
      <point x="1191" y="599"/>
      <point x="1129" y="773"/>
      <point x="994" y="879"/>
      <point x="884" y="879" type="qcurve" smooth="yes"/>
      <point x="776" y="879"/>
      <point x="640" y="775"/>
      <point x="576" y="601"/>
      <point x="576" y="496" type="qcurve" smooth="yes"/>
      <point x="576" y="392"/>
      <point x="639" y="217"/>
      <point x="775" y="112"/>
    </contour>
  </outline>
</glyph>
